STARTFONT 2.1
COMMENT 
COMMENT Copyright (C) 2012, 2013 Uwe Waldmann
COMMENT 
COMMENT Permission is hereby granted, free of charge, to any person obtaining
COMMENT a copy of this font software and associated files (the "Software"),
COMMENT to deal in the Software without restriction, including without
COMMENT limitation the rights to use, copy, modify, merge, publish,
COMMENT distribute, embed, sublicense, and/or sell copies of the Software,
COMMENT and to permit persons to whom the Software is furnished to do so,
COMMENT subject to the following conditions:
COMMENT 
COMMENT (1) The above copyright notice, this permission notice, and the
COMMENT     disclaimer below shall be included in all copies or substantial
COMMENT     portions of the Software.
COMMENT 
COMMENT (2) If the design of any glyphs in the fonts that are contained in the
COMMENT     Software or generated during the installation process is modified
COMMENT     or if additional glyphs are added to the fonts, the fonts
COMMENT     must be renamed. The new names may not contain the word "UW",
COMMENT     irrespective of capitalisation; the new names may contain the word
COMMENT     "ttyp0", irrespective of capitalisation, only if preceded by a
COMMENT     foundry name different from "UW".
COMMENT 
COMMENT THE SOFTWARE IS PROVIDED "AS IS", WITHOUT WARRANTY OF ANY KIND, EXPRESS
COMMENT OR IMPLIED, INCLUDING BUT NOT LIMITED TO THE WARRANTIES OF
COMMENT MERCHANTABILITY, FITNESS FOR A PARTICULAR PURPOSE AND NONINFRINGEMENT.
COMMENT IN NO EVENT SHALL THE AUTHORS OR COPYRIGHT HOLDERS BE LIABLE FOR ANY
COMMENT CLAIM, DAMAGES OR OTHER LIABILITY, WHETHER IN AN ACTION OF CONTRACT,
COMMENT TORT OR OTHERWISE, ARISING FROM, OUT OF OR IN CONNECTION WITH THE
COMMENT SOFTWARE OR THE USE OR OTHER DEALINGS IN THE SOFTWARE.
COMMENT 
FONT -UW-Ttyp0-Bold-R-Normal--18-170-75-75-C-90-UW-Fontspecific
SIZE 18 75 75
FONTBOUNDINGBOX 9 18 0 -4
STARTPROPERTIES 19
FONTNAME_REGISTRY ""
FOUNDRY "UW"
FAMILY_NAME "Ttyp0"

STARTCHAR LtCapA
ENCODING 0
SWIDTH 1080 0
DWIDTH 9 0
BBX 9 18 0 -4
BITMAP
0000
0000
0000
0800
1800
1c00
1c00
2c00
2600
2600
7e00
4300
4300
c300
0000
0000
0000
0000
ENDCHAR
STARTCHAR LtCapB
ENCODING 1
SWIDTH 1080 0
DWIDTH 9 0
BBX 9 18 0 -4
BITMAP
0000
0000
0000
7e00
6300
6300
6300
6200
7e00
6300
6300
6300
6300
7e00
0000
0000
0000
0000
ENDCHAR
STARTCHAR LtCapC
ENCODING 2
SWIDTH 1080 0
DWIDTH 9 0
BBX 9 18 0 -4
BITMAP
0000
0000
0000
1f00
3300
6100
6000
6000
6000
6000
6000
6000
3300
1e00
0000
0000
0000
0000
ENDCHAR
STARTCHAR LtCapD
ENCODING 3
SWIDTH 1080 0
DWIDTH 9 0
BBX 9 18 0 -4
BITMAP
0000
0000
0000
7c00
6600
6300
6300
6300
6300
6300
6300
6300
6600
7c00
0000
0000
0000
0000
ENDCHAR
STARTCHAR LtCapE
ENCODING 4
SWIDTH 1080 0
DWIDTH 9 0
BBX 9 18 0 -4
BITMAP
0000
0000
0000
7f00
6300
6100
6000
6400
7c00
6400
6000
6100
6300
7f00
0000
0000
0000
0000
ENDCHAR
STARTCHAR LtCapF
ENCODING 5
SWIDTH 1080 0
DWIDTH 9 0
BBX 9 18 0 -4
BITMAP
0000
0000
0000
3f80
3180
3080
3000
3200
3e00
3200
3000
3000
3000
3000
0000
0000
0000
0000
ENDCHAR
STARTCHAR LtCapG
ENCODING 6
SWIDTH 1080 0
DWIDTH 9 0
BBX 9 18 0 -4
BITMAP
0000
0000
0000
1f00
3300
6100
6000
6000
6700
6300
6300
6300
3300
1f00
0000
0000
0000
0000
ENDCHAR
STARTCHAR LtCapH
ENCODING 7
SWIDTH 1080 0
DWIDTH 9 0
BBX 9 18 0 -4
BITMAP
0000
0000
0000
6300
6300
6300
6300
6300
7f00
6300
6300
6300
6300
6300
0000
0000
0000
0000
ENDCHAR
STARTCHAR LtCapI
ENCODING 8
SWIDTH 1080 0
DWIDTH 9 0
BBX 9 18 0 -4
BITMAP
0000
0000
0000
3f00
0c00
0c00
0c00
0c00
0c00
0c00
0c00
0c00
0c00
3f00
0000
0000
0000
0000
ENDCHAR
STARTCHAR LtCapJ
ENCODING 9
SWIDTH 1080 0
DWIDTH 9 0
BBX 9 18 0 -4
BITMAP
0000
0000
0000
0f00
0600
0600
0600
0600
0600
0600
0600
6600
6600
3c00
0000
0000
0000
0000
ENDCHAR
STARTCHAR LtCapK
ENCODING 10
SWIDTH 1080 0
DWIDTH 9 0
BBX 9 18 0 -4
BITMAP
0000
0000
0000
6300
6200
6600
6400
6800
7c00
7c00
6600
6600
6300
6300
0000
0000
0000
0000
ENDCHAR
STARTCHAR LtCapL
ENCODING 11
SWIDTH 1080 0
DWIDTH 9 0
BBX 9 18 0 -4
BITMAP
0000
0000
0000
6000
6000
6000
6000
6000
6000
6000
6000
6100
6300
7f00
0000
0000
0000
0000
ENDCHAR
STARTCHAR LtCapM
ENCODING 12
SWIDTH 1080 0
DWIDTH 9 0
BBX 9 18 0 -4
BITMAP
0000
0000
0000
6300
6300
7700
7700
7f00
5b00
5b00
4300
4300
4300
4300
0000
0000
0000
0000
ENDCHAR
STARTCHAR LtCapN
ENCODING 13
SWIDTH 1080 0
DWIDTH 9 0
BBX 9 18 0 -4
BITMAP
0000
0000
0000
6100
7100
7100
5900
5900
4d00
4d00
4700
4700
4300
4100
0000
0000
0000
0000
ENDCHAR
STARTCHAR LtCapO
ENCODING 14
SWIDTH 1080 0
DWIDTH 9 0
BBX 9 18 0 -4
BITMAP
0000
0000
0000
3e00
6300
6300
6300
6300
6300
6300
6300
6300
6300
3e00
0000
0000
0000
0000
ENDCHAR
STARTCHAR LtCapP
ENCODING 15
SWIDTH 1080 0
DWIDTH 9 0
BBX 9 18 0 -4
BITMAP
0000
0000
0000
7e00
6300
6300
6300
6300
7e00
6000
6000
6000
6000
6000
0000
0000
0000
0000
ENDCHAR
STARTCHAR LtCapQ
ENCODING 16
SWIDTH 1080 0
DWIDTH 9 0
BBX 9 18 0 -4
BITMAP
0000
0000
0000
3e00
6300
6300
6300
6300
6300
6300
6300
7b00
6b00
3e00
0600
0380
0000
0000
ENDCHAR
STARTCHAR LtCapR
ENCODING 17
SWIDTH 1080 0
DWIDTH 9 0
BBX 9 18 0 -4
BITMAP
0000
0000
0000
7e00
6300
6300
6300
6300
7e00
6c00
6600
6600
6300
6300
0000
0000
0000
0000
ENDCHAR
STARTCHAR LtCapS
ENCODING 18
SWIDTH 1080 0
DWIDTH 9 0
BBX 9 18 0 -4
BITMAP
0000
0000
0000
3f00
6300
6100
6000
3800
1e00
0600
0300
4300
6300
7e00
0000
0000
0000
0000
ENDCHAR
STARTCHAR LtCapT
ENCODING 19
SWIDTH 1080 0
DWIDTH 9 0
BBX 9 18 0 -4
BITMAP
0000
0000
0000
7f80
6d80
4c80
0c00
0c00
0c00
0c00
0c00
0c00
0c00
0c00
0000
0000
0000
0000
ENDCHAR
STARTCHAR LtCapU
ENCODING 20
SWIDTH 1080 0
DWIDTH 9 0
BBX 9 18 0 -4
BITMAP
0000
0000
0000
6300
6300
6300
6300
6300
6300
6300
6300
6300
6300
3e00
0000
0000
0000
0000
ENDCHAR
STARTCHAR LtCapV
ENCODING 21
SWIDTH 1080 0
DWIDTH 9 0
BBX 9 18 0 -4
BITMAP
0000
0000
0000
6180
6100
6100
3300
3200
3200
1a00
1c00
1c00
0c00
0800
0000
0000
0000
0000
ENDCHAR
STARTCHAR LtCapW
ENCODING 22
SWIDTH 1080 0
DWIDTH 9 0
BBX 9 18 0 -4
BITMAP
0000
0000
0000
6080
6080
6080
6480
6480
6e80
7f80
3700
3300
3300
3300
0000
0000
0000
0000
ENDCHAR
STARTCHAR LtCapX
ENCODING 23
SWIDTH 1080 0
DWIDTH 9 0
BBX 9 18 0 -4
BITMAP
0000
0000
0000
6300
6300
3200
3400
1c00
0800
1c00
1600
2600
6300
6300
0000
0000
0000
0000
ENDCHAR
STARTCHAR LtCapY
ENCODING 24
SWIDTH 1080 0
DWIDTH 9 0
BBX 9 18 0 -4
BITMAP
0000
0000
0000
6180
6100
3100
3200
1a00
1c00
0c00
0c00
0c00
0c00
0c00
0000
0000
0000
0000
ENDCHAR
STARTCHAR LtCapZ
ENCODING 25
SWIDTH 1080 0
DWIDTH 9 0
BBX 9 18 0 -4
BITMAP
0000
0000
0000
7f00
6300
4600
0600
0c00
1800
1800
3000
3100
6300
7f00
0000
0000
0000
0000
ENDCHAR
STARTCHAR LtCapTone6
ENCODING 26
SWIDTH 1080 0
DWIDTH 9 0
BBX 9 18 0 -4
BITMAP
0000
0000
0000
6000
e000
e000
6000
6000
7e00
6300
6300
6300
6300
7e00
0000
0000
0000
0000
ENDCHAR
STARTCHAR LtCapEth
ENCODING 27
SWIDTH 1080 0
DWIDTH 9 0
BBX 9 18 0 -4
BITMAP
0000
0000
0000
7c00
6600
6300
6300
fb00
fb00
6300
6300
6300
6600
7c00
0000
0000
0000
0000
ENDCHAR
STARTCHAR LtCapEps
ENCODING 28
SWIDTH 1080 0
DWIDTH 9 0
BBX 9 18 0 -4
BITMAP
0000
0000
0000
3e00
6300
6000
6000
2000
3c00
6000
6000
6000
6300
3e00
0000
0000
0000
0000
ENDCHAR
STARTCHAR LtCapSchwa
ENCODING 29
SWIDTH 1080 0
DWIDTH 9 0
BBX 9 18 0 -4
BITMAP
0000
0000
0000
3c00
3600
2300
0300
0300
7f00
6300
6300
6300
3600
1c00
0000
0000
0000
0000
ENDCHAR
STARTCHAR LtCapGam
ENCODING 30
SWIDTH 1080 0
DWIDTH 9 0
BBX 9 18 0 -4
BITMAP
0000
0000
0000
6180
6300
3200
1600
1c00
0c00
1e00
1600
1600
1e00
0c00
0000
0000
0000
0000
ENDCHAR
STARTCHAR LtCapHwair
ENCODING 31
SWIDTH 1080 0
DWIDTH 9 0
BBX 9 18 0 -4
BITMAP
0000
0000
0000
6800
6800
6800
6b00
6b00
7b00
6b00
6b00
6b00
6f00
6600
0000
0000
0000
0000
ENDCHAR
STARTCHAR LtCapIot
ENCODING 32
SWIDTH 1080 0
DWIDTH 9 0
BBX 9 18 0 -4
BITMAP
0000
0000
0000
7800
3000
3000
3000
3000
3000
3000
3000
3300
3300
1e00
0000
0000
0000
0000
ENDCHAR
STARTCHAR LtCapEng
ENCODING 33
SWIDTH 1080 0
DWIDTH 9 0
BBX 9 18 0 -4
BITMAP
0000
0000
0000
6e00
7300
6300
6300
6300
6300
6300
6300
6b00
6b00
6600
0000
0000
0000
0000
ENDCHAR
STARTCHAR LtCapEngSami
ENCODING 34
SWIDTH 1080 0
DWIDTH 9 0
BBX 9 18 0 -4
BITMAP
0000
0000
0000
6100
7100
7100
5900
5900
4d00
4d00
4700
4700
4300
4100
0100
1b00
0e00
0000
ENDCHAR
STARTCHAR LtCapOi
ENCODING 35
SWIDTH 1080 0
DWIDTH 9 0
BBX 9 18 0 -4
BITMAP
0000
0000
0000
3300
7f00
6f00
6b00
6b00
6b00
6b00
6b00
6b00
7b00
3300
0300
0300
0300
0000
ENDCHAR
STARTCHAR LtCapOu
ENCODING 36
SWIDTH 1080 0
DWIDTH 9 0
BBX 9 18 0 -4
BITMAP
0000
0000
0000
3600
6300
6300
6300
3e00
7700
6300
6300
6300
6300
3e00
0000
0000
0000
0000
ENDCHAR
STARTCHAR LtCapYr
ENCODING 37
SWIDTH 1080 0
DWIDTH 9 0
BBX 9 18 0 -4
BITMAP
0000
0000
0000
6000
6000
7e00
6300
6300
6300
6300
7e00
6c00
6600
6600
0300
0300
0000
0000
ENDCHAR
STARTCHAR LtCapEsh
ENCODING 38
SWIDTH 1080 0
DWIDTH 9 0
BBX 9 18 0 -4
BITMAP
0000
0000
0000
7f00
7300
3100
1800
0c00
0c00
0800
1000
2100
7f00
7f00
0000
0000
0000
0000
ENDCHAR
STARTCHAR LtCapTone2
ENCODING 39
SWIDTH 1080 0
DWIDTH 9 0
BBX 9 18 0 -4
BITMAP
0000
0000
0000
3e00
6300
0300
0700
0e00
1c00
3800
7000
6000
6300
3e00
0000
0000
0000
0000
ENDCHAR
STARTCHAR LtCapTone5
ENCODING 40
SWIDTH 1080 0
DWIDTH 9 0
BBX 9 18 0 -4
BITMAP
0000
0000
0000
3e00
3e00
2000
2000
3c00
0600
0300
0300
0300
6600
3c00
0000
0000
0000
0000
ENDCHAR
STARTCHAR LtCapSz
ENCODING 41
SWIDTH 1080 0
DWIDTH 9 0
BBX 9 18 0 -4
BITMAP
0000
0000
0000
7f00
6300
6200
6600
6600
6300
6180
6180
6180
6580
6700
0000
0000
0000
0000
ENDCHAR
STARTCHAR LtCapThorn
ENCODING 42
SWIDTH 1080 0
DWIDTH 9 0
BBX 9 18 0 -4
BITMAP
0000
0000
0000
6000
6000
6000
7e00
6300
6300
6300
7e00
6000
6000
6000
0000
0000
0000
0000
ENDCHAR
STARTCHAR LtCapUps
ENCODING 43
SWIDTH 1080 0
DWIDTH 9 0
BBX 9 18 0 -4
BITMAP
0000
0000
0000
7700
3600
2200
6300
6300
6300
6300
6300
6300
3600
1c00
0000
0000
0000
0000
ENDCHAR
STARTCHAR LtCapWynn
ENCODING 44
SWIDTH 1080 0
DWIDTH 9 0
BBX 9 18 0 -4
BITMAP
0000
0000
0000
6600
6b00
7300
6300
6600
6c00
7000
6000
6000
6000
6000
0000
0000
0000
0000
ENDCHAR
STARTCHAR LtCapYogh
ENCODING 45
SWIDTH 1080 0
DWIDTH 9 0
BBX 9 18 0 -4
BITMAP
0000
0000
0000
3e00
6300
0300
0600
1e00
1300
0300
0300
0600
1c00
7000
0000
0000
0000
0000
ENDCHAR
STARTCHAR LtCapEzh
ENCODING 46
SWIDTH 1080 0
DWIDTH 9 0
BBX 9 18 0 -4
BITMAP
0000
0000
0000
7f00
6300
4600
0400
0c00
0e00
0300
0300
0300
6600
3c00
0000
0000
0000
0000
ENDCHAR
STARTCHAR LtCapAlefEgpt
ENCODING 47
SWIDTH 1080 0
DWIDTH 9 0
BBX 9 18 0 -4
BITMAP
0000
0000
0000
3c00
0600
0600
0c00
1800
3c00
0600
0600
0600
0c00
3800
0000
0000
0000
0000
ENDCHAR
STARTCHAR LtCapAinEgpt
ENCODING 48
SWIDTH 1080 0
DWIDTH 9 0
BBX 9 18 0 -4
BITMAP
0000
0000
0000
0f00
1900
3000
3000
3000
3000
1800
0000
0000
0000
0000
0000
0000
0000
0000
ENDCHAR
STARTCHAR LtCapGlot1
ENCODING 49
SWIDTH 1080 0
DWIDTH 9 0
BBX 9 18 0 -4
BITMAP
0000
0000
0000
3c00
6600
6300
0300
0300
0300
0e00
0c00
0c00
0c00
0c00
0000
0000
0000
0000
ENDCHAR
STARTCHAR LtCapSaltillo
ENCODING 50
SWIDTH 1080 0
DWIDTH 9 0
BBX 9 18 0 -4
BITMAP
0000
0c00
0c00
0c00
0c00
0c00
0c00
0c00
0c00
0000
0000
0000
0000
0000
0000
0000
0000
0000
ENDCHAR
STARTCHAR LtSmlA
ENCODING 51
SWIDTH 1080 0
DWIDTH 9 0
BBX 9 18 0 -4
BITMAP
0000
0000
0000
0000
0000
0000
3e00
3300
0300
3f00
6300
6300
6700
3b00
0000
0000
0000
0000
ENDCHAR
STARTCHAR LtSmlB
ENCODING 52
SWIDTH 1080 0
DWIDTH 9 0
BBX 9 18 0 -4
BITMAP
0000
0000
0000
6000
6000
6000
6e00
7300
6300
6300
6300
6300
7300
6e00
0000
0000
0000
0000
ENDCHAR
STARTCHAR LtSmlC
ENCODING 53
SWIDTH 1080 0
DWIDTH 9 0
BBX 9 18 0 -4
BITMAP
0000
0000
0000
0000
0000
0000
1e00
3300
6000
6000
6000
6000
3300
1e00
0000
0000
0000
0000
ENDCHAR
STARTCHAR LtSmlD
ENCODING 54
SWIDTH 1080 0
DWIDTH 9 0
BBX 9 18 0 -4
BITMAP
0000
0000
0000
0300
0300
0300
3b00
6700
6300
6300
6300
6300
6700
3b00
0000
0000
0000
0000
ENDCHAR
STARTCHAR LtSmlE
ENCODING 55
SWIDTH 1080 0
DWIDTH 9 0
BBX 9 18 0 -4
BITMAP
0000
0000
0000
0000
0000
0000
1e00
3300
6300
7f00
6000
6000
3300
1e00
0000
0000
0000
0000
ENDCHAR
STARTCHAR LtSmlF
ENCODING 56
SWIDTH 1080 0
DWIDTH 9 0
BBX 9 18 0 -4
BITMAP
0000
0000
0000
0f00
1b00
1800
1800
7f00
1800
1800
1800
1800
1800
1800
0000
0000
0000
0000
ENDCHAR
STARTCHAR LtSmlG
ENCODING 57
SWIDTH 1080 0
DWIDTH 9 0
BBX 9 18 0 -4
BITMAP
0000
0000
0000
0000
0000
0000
3d00
6700
6600
6600
3c00
6000
3e00
3f00
6100
6300
3e00
0000
ENDCHAR
STARTCHAR LtSmlH
ENCODING 58
SWIDTH 1080 0
DWIDTH 9 0
BBX 9 18 0 -4
BITMAP
0000
0000
0000
6000
6000
6000
6e00
7300
6300
6300
6300
6300
6300
6300
0000
0000
0000
0000
ENDCHAR
STARTCHAR LtSmlI
ENCODING 59
SWIDTH 1080 0
DWIDTH 9 0
BBX 9 18 0 -4
BITMAP
0000
0000
0c00
0c00
0000
0000
1c00
0c00
0c00
0c00
0c00
0c00
0c00
3f00
0000
0000
0000
0000
ENDCHAR
STARTCHAR LtSmlJ
ENCODING 60
SWIDTH 1080 0
DWIDTH 9 0
BBX 9 18 0 -4
BITMAP
0000
0000
0600
0600
0000
0000
1e00
0600
0600
0600
0600
0600
0600
0600
6600
6600
3c00
0000
ENDCHAR
STARTCHAR LtSmlK
ENCODING 61
SWIDTH 1080 0
DWIDTH 9 0
BBX 9 18 0 -4
BITMAP
0000
0000
0000
6000
6000
6000
6300
6200
6400
6c00
7c00
6600
6300
6300
0000
0000
0000
0000
ENDCHAR
STARTCHAR LtSmlL
ENCODING 62
SWIDTH 1080 0
DWIDTH 9 0
BBX 9 18 0 -4
BITMAP
0000
0000
0000
1c00
0c00
0c00
0c00
0c00
0c00
0c00
0c00
0c00
0c00
3f00
0000
0000
0000
0000
ENDCHAR
STARTCHAR LtSmlM
ENCODING 63
SWIDTH 1080 0
DWIDTH 9 0
BBX 9 18 0 -4
BITMAP
0000
0000
0000
0000
0000
0000
5600
7f00
6b00
6b00
6b00
6b00
6b00
6b00
0000
0000
0000
0000
ENDCHAR
STARTCHAR LtSmlN
ENCODING 64
SWIDTH 1080 0
DWIDTH 9 0
BBX 9 18 0 -4
BITMAP
0000
0000
0000
0000
0000
0000
6e00
7300
6300
6300
6300
6300
6300
6300
0000
0000
0000
0000
ENDCHAR
STARTCHAR LtSmlO
ENCODING 65
SWIDTH 1080 0
DWIDTH 9 0
BBX 9 18 0 -4
BITMAP
0000
0000
0000
0000
0000
0000
3e00
6300
6300
6300
6300
6300
6300
3e00
0000
0000
0000
0000
ENDCHAR
STARTCHAR LtSmlP
ENCODING 66
SWIDTH 1080 0
DWIDTH 9 0
BBX 9 18 0 -4
BITMAP
0000
0000
0000
0000
0000
0000
6e00
7300
6300
6300
6300
6300
7300
6e00
6000
6000
6000
0000
ENDCHAR
STARTCHAR LtSmlQ
ENCODING 67
SWIDTH 1080 0
DWIDTH 9 0
BBX 9 18 0 -4
BITMAP
0000
0000
0000
0000
0000
0000
3b00
6700
6300
6300
6300
6300
6700
3b00
0300
0300
0300
0000
ENDCHAR
STARTCHAR LtSmlR
ENCODING 68
SWIDTH 1080 0
DWIDTH 9 0
BBX 9 18 0 -4
BITMAP
0000
0000
0000
0000
0000
0000
7700
3b00
3100
3000
3000
3000
3000
3000
0000
0000
0000
0000
ENDCHAR
STARTCHAR LtSmlS
ENCODING 69
SWIDTH 1080 0
DWIDTH 9 0
BBX 9 18 0 -4
BITMAP
0000
0000
0000
0000
0000
0000
3e00
6300
7000
3c00
0e00
0300
6300
3e00
0000
0000
0000
0000
ENDCHAR
STARTCHAR LtSmlT
ENCODING 70
SWIDTH 1080 0
DWIDTH 9 0
BBX 9 18 0 -4
BITMAP
0000
0000
0000
0000
1800
1800
7e00
1800
1800
1800
1800
1800
1b00
0e00
0000
0000
0000
0000
ENDCHAR
STARTCHAR LtSmlU
ENCODING 71
SWIDTH 1080 0
DWIDTH 9 0
BBX 9 18 0 -4
BITMAP
0000
0000
0000
0000
0000
0000
6300
6300
6300
6300
6300
6300
6700
3b00
0000
0000
0000
0000
ENDCHAR
STARTCHAR LtSmlV
ENCODING 72
SWIDTH 1080 0
DWIDTH 9 0
BBX 9 18 0 -4
BITMAP
0000
0000
0000
0000
0000
0000
6180
6100
3200
3200
1a00
1c00
0c00
0800
0000
0000
0000
0000
ENDCHAR
STARTCHAR LtSmlW
ENCODING 73
SWIDTH 1080 0
DWIDTH 9 0
BBX 9 18 0 -4
BITMAP
0000
0000
0000
0000
0000
0000
6080
6080
6480
6480
6e80
3f00
3300
3300
0000
0000
0000
0000
ENDCHAR
STARTCHAR LtSmlX
ENCODING 74
SWIDTH 1080 0
DWIDTH 9 0
BBX 9 18 0 -4
BITMAP
0000
0000
0000
0000
0000
0000
6300
7300
3400
1800
0c00
1600
6700
6300
0000
0000
0000
0000
ENDCHAR
STARTCHAR LtSmlY
ENCODING 75
SWIDTH 1080 0
DWIDTH 9 0
BBX 9 18 0 -4
BITMAP
0000
0000
0000
0000
0000
0000
6300
6300
3200
3200
1a00
1c00
0c00
0c00
0800
6800
7000
0000
ENDCHAR
STARTCHAR LtSmlZ
ENCODING 76
SWIDTH 1080 0
DWIDTH 9 0
BBX 9 18 0 -4
BITMAP
0000
0000
0000
0000
0000
0000
7f00
6700
4600
0c00
1800
3100
7300
7f00
0000
0000
0000
0000
ENDCHAR
STARTCHAR LtSmlTone6
ENCODING 77
SWIDTH 1080 0
DWIDTH 9 0
BBX 9 18 0 -4
BITMAP
0000
0000
0000
0000
0000
0000
6000
e000
e000
7e00
6300
6300
6300
7e00
0000
0000
0000
0000
ENDCHAR
STARTCHAR LtSmlCStretch
ENCODING 78
SWIDTH 1080 0
DWIDTH 9 0
BBX 9 18 0 -4
BITMAP
0000
0000
0000
0000
0000
0000
1e00
3300
6000
6000
6000
6000
6000
6000
6000
3300
1e00
0000
ENDCHAR
STARTCHAR LtSmlEth
ENCODING 79
SWIDTH 1080 0
DWIDTH 9 0
BBX 9 18 0 -4
BITMAP
0000
0000
0000
6c00
3800
6c00
1e00
3600
6300
6300
6300
6300
3600
1c00
0000
0000
0000
0000
ENDCHAR
STARTCHAR LtSmlEps
ENCODING 80
SWIDTH 1080 0
DWIDTH 9 0
BBX 9 18 0 -4
BITMAP
0000
0000
0000
0000
0000
0000
3e00
6300
6000
3800
6000
6000
6300
3e00
0000
0000
0000
0000
ENDCHAR
STARTCHAR LtSmlSchwa
ENCODING 81
SWIDTH 1080 0
DWIDTH 9 0
BBX 9 18 0 -4
BITMAP
0000
0000
0000
0000
0000
0000
3c00
6600
0300
0300
7f00
6300
6600
3c00
0000
0000
0000
0000
ENDCHAR
STARTCHAR LtSmlPhi
ENCODING 82
SWIDTH 1080 0
DWIDTH 9 0
BBX 9 18 0 -4
BITMAP
0000
0000
0000
0800
0800
0800
3e00
6b00
6b00
6b00
6b00
6b00
6b00
3e00
0800
0800
0800
0000
ENDCHAR
STARTCHAR LtSmlGam
ENCODING 83
SWIDTH 1080 0
DWIDTH 9 0
BBX 9 18 0 -4
BITMAP
0000
0000
0000
0000
0000
0000
6180
6300
3200
1600
1c00
0c00
1e00
1600
1600
1e00
0c00
0000
ENDCHAR
STARTCHAR LtSmlGamSml
ENCODING 84
SWIDTH 1080 0
DWIDTH 9 0
BBX 9 18 0 -4
BITMAP
0000
0000
0000
0000
0000
0000
6300
3200
1c00
0800
1c00
3600
3600
1c00
0000
0000
0000
0000
ENDCHAR
STARTCHAR LtSmlHwair
ENCODING 85
SWIDTH 1080 0
DWIDTH 9 0
BBX 9 18 0 -4
BITMAP
0000
0000
0000
6000
6000
6000
7300
6b00
6b00
6b00
6b00
6b00
6b00
6600
0000
0000
0000
0000
ENDCHAR
STARTCHAR LtSmlIot
ENCODING 86
SWIDTH 1080 0
DWIDTH 9 0
BBX 9 18 0 -4
BITMAP
0000
0000
0000
0000
0000
0000
1800
1800
1800
1800
1800
1800
1b00
0e00
0000
0000
0000
0000
ENDCHAR
STARTCHAR LtSmlKra
ENCODING 87
SWIDTH 1080 0
DWIDTH 9 0
BBX 9 18 0 -4
BITMAP
0000
0000
0000
0000
0000
0000
6300
6200
6400
6c00
7c00
6600
6300
6300
0000
0000
0000
0000
ENDCHAR
STARTCHAR LtSmlEng
ENCODING 88
SWIDTH 1080 0
DWIDTH 9 0
BBX 9 18 0 -4
BITMAP
0000
0000
0000
0000
0000
0000
6e00
7300
6300
6300
6300
6300
6300
6300
0300
1b00
0e00
0000
ENDCHAR
STARTCHAR LtSmlOi
ENCODING 89
SWIDTH 1080 0
DWIDTH 9 0
BBX 9 18 0 -4
BITMAP
0000
0000
0000
0000
0000
0000
3300
7f00
6f00
6b00
6b00
6b00
7b00
3300
0300
0300
0300
0000
ENDCHAR
STARTCHAR LtSmlOu
ENCODING 90
SWIDTH 1080 0
DWIDTH 9 0
BBX 9 18 0 -4
BITMAP
0000
0000
0000
3600
6300
6300
3600
1c00
3600
6300
6300
6300
6300
3e00
0000
0000
0000
0000
ENDCHAR
STARTCHAR LtSmlRFish
ENCODING 91
SWIDTH 1080 0
DWIDTH 9 0
BBX 9 18 0 -4
BITMAP
0000
0000
0000
0000
0000
0000
0e00
1b00
3300
3000
3000
3000
3000
3000
0000
0000
0000
0000
ENDCHAR
STARTCHAR LtSmlSLong
ENCODING 92
SWIDTH 1080 0
DWIDTH 9 0
BBX 9 18 0 -4
BITMAP
0000
0000
0000
0780
0d80
1800
1800
1800
1800
1800
1800
1800
1800
1800
0000
0000
0000
0000
ENDCHAR
STARTCHAR LtSmlEsh
ENCODING 93
SWIDTH 1080 0
DWIDTH 9 0
BBX 9 18 0 -4
BITMAP
0000
0000
0000
0780
0d80
0c00
0c00
0c00
0c00
0c00
0c00
0c00
0c00
0c00
0c00
6c00
7800
0000
ENDCHAR
STARTCHAR LtSmlTone2
ENCODING 94
SWIDTH 1080 0
DWIDTH 9 0
BBX 9 18 0 -4
BITMAP
0000
0000
0000
0000
0000
0000
3e00
6300
0700
1e00
3800
6000
6300
3e00
0000
0000
0000
0000
ENDCHAR
STARTCHAR LtSmlTone5
ENCODING 95
SWIDTH 1080 0
DWIDTH 9 0
BBX 9 18 0 -4
BITMAP
0000
0000
0000
0000
0000
0000
3e00
3e00
2000
3e00
0300
0300
6300
3e00
0000
0000
0000
0000
ENDCHAR
STARTCHAR LtSmlSz
ENCODING 96
SWIDTH 1080 0
DWIDTH 9 0
BBX 9 18 0 -4
BITMAP
0000
0000
0000
3c00
6600
6600
6600
6c00
6e00
6300
6300
6300
6b00
6e00
0000
0000
0000
0000
ENDCHAR
STARTCHAR LtSmlThorn
ENCODING 97
SWIDTH 1080 0
DWIDTH 9 0
BBX 9 18 0 -4
BITMAP
0000
0000
0000
6000
6000
6000
6e00
7300
6300
6300
6300
6300
7300
6e00
6000
6000
6000
0000
ENDCHAR
STARTCHAR LtSmlUps
ENCODING 98
SWIDTH 1080 0
DWIDTH 9 0
BBX 9 18 0 -4
BITMAP
0000
0000
0000
0000
0000
0000
6300
3600
6300
6300
6300
6300
6300
3e00
0000
0000
0000
0000
ENDCHAR
STARTCHAR LtSmlW2
ENCODING 99
SWIDTH 1080 0
DWIDTH 9 0
BBX 9 18 0 -4
BITMAP
0000
0000
0000
6100
6d00
6d00
3e00
3600
0000
6100
6d00
6d00
3e00
3600
0000
0000
0000
0000
ENDCHAR
STARTCHAR LtSmlWynn
ENCODING 100
SWIDTH 1080 0
DWIDTH 9 0
BBX 9 18 0 -4
BITMAP
0000
0000
0000
0000
0000
0000
6600
6f00
7300
6300
6600
6400
6800
7000
6000
6000
6000
0000
ENDCHAR
STARTCHAR LtSmlYogh
ENCODING 101
SWIDTH 1080 0
DWIDTH 9 0
BBX 9 18 0 -4
BITMAP
0000
0000
0000
0000
0000
0000
3e00
6300
0300
0600
1e00
1300
0300
0300
0600
1c00
7000
0000
ENDCHAR
STARTCHAR LtSmlEzh
ENCODING 102
SWIDTH 1080 0
DWIDTH 9 0
BBX 9 18 0 -4
BITMAP
0000
0000
0000
0000
0000
0000
7f00
6300
4600
0600
0c00
0e00
0300
0300
0300
6200
3c00
0000
ENDCHAR
STARTCHAR LtSmlAlefEgpt
ENCODING 103
SWIDTH 1080 0
DWIDTH 9 0
BBX 9 18 0 -4
BITMAP
0000
0000
0000
0000
0000
0000
3c00
0600
0c00
3c00
0600
0600
0c00
3800
0000
0000
0000
0000
ENDCHAR
STARTCHAR LtSmlAinEgpt
ENCODING 104
SWIDTH 1080 0
DWIDTH 9 0
BBX 9 18 0 -4
BITMAP
0000
0000
0000
0000
0000
0000
0f00
1900
3000
3000
3000
1800
0000
0000
0000
0000
0000
0000
ENDCHAR
STARTCHAR LtSmlGlot1
ENCODING 105
SWIDTH 1080 0
DWIDTH 9 0
BBX 9 18 0 -4
BITMAP
0000
0000
0000
0000
0000
0000
3c00
6600
6300
0300
0300
0e00
0c00
0c00
0000
0000
0000
0000
ENDCHAR
STARTCHAR LtSmlGlot
ENCODING 106
SWIDTH 1080 0
DWIDTH 9 0
BBX 9 18 0 -4
BITMAP
0000
0000
0000
3e00
6300
6300
0300
0600
0c00
0c00
0c00
0c00
0c00
0c00
0000
0000
0000
0000
ENDCHAR
STARTCHAR LtSmlSaltillo
ENCODING 107
SWIDTH 1080 0
DWIDTH 9 0
BBX 9 18 0 -4
BITMAP
0000
0000
0c00
0c00
0c00
0c00
0c00
0c00
0000
0000
0000
0000
0000
0000
0000
0000
0000
0000
ENDCHAR
STARTCHAR LtSmlBullseye
ENCODING 108
SWIDTH 1080 0
DWIDTH 9 0
BBX 9 18 0 -4
BITMAP
0000
0000
0000
0000
0000
0000
1e00
3300
6180
6d80
6d80
6180
3300
1e00
0000
0000
0000
0000
ENDCHAR
STARTCHAR LtSmlPipe
ENCODING 109
SWIDTH 1080 0
DWIDTH 9 0
BBX 9 18 0 -4
BITMAP
0000
0000
0000
0c00
0c00
0c00
0c00
0c00
0c00
0c00
0c00
0c00
0c00
0c00
0000
0000
0000
0000
ENDCHAR
STARTCHAR LtSmlPipe2
ENCODING 110
SWIDTH 1080 0
DWIDTH 9 0
BBX 9 18 0 -4
BITMAP
0000
0000
0000
3600
3600
3600
3600
3600
3600
3600
3600
3600
3600
3600
0000
0000
0000
0000
ENDCHAR
STARTCHAR LtSmlBridge2
ENCODING 111
SWIDTH 1080 0
DWIDTH 9 0
BBX 9 18 0 -4
BITMAP
0000
0000
0000
7f00
7f00
6300
6300
0000
0000
7f00
7f00
6300
6300
6300
0000
0000
0000
0000
ENDCHAR
STARTCHAR LtToneHhigh
ENCODING 112
SWIDTH 1080 0
DWIDTH 9 0
BBX 9 18 0 -4
BITMAP
0000
0000
0000
3e00
0600
0600
0600
0600
0600
0600
0600
0600
0600
0600
0000
0000
0000
0000
ENDCHAR
STARTCHAR LtToneHigh
ENCODING 113
SWIDTH 1080 0
DWIDTH 9 0
BBX 9 18 0 -4
BITMAP
0000
0000
0000
0600
0600
3e00
0600
0600
0600
0600
0600
0600
0600
0600
0000
0000
0000
0000
ENDCHAR
STARTCHAR LtToneMid
ENCODING 114
SWIDTH 1080 0
DWIDTH 9 0
BBX 9 18 0 -4
BITMAP
0000
0000
0000
0600
0600
0600
0600
0600
3e00
0600
0600
0600
0600
0600
0000
0000
0000
0000
ENDCHAR
STARTCHAR LtToneLow
ENCODING 115
SWIDTH 1080 0
DWIDTH 9 0
BBX 9 18 0 -4
BITMAP
0000
0000
0000
0600
0600
0600
0600
0600
0600
0600
0600
3e00
0600
0600
0000
0000
0000
0000
ENDCHAR
STARTCHAR LtToneLlow
ENCODING 116
SWIDTH 1080 0
DWIDTH 9 0
BBX 9 18 0 -4
BITMAP
0000
0000
0000
0600
0600
0600
0600
0600
0600
0600
0600
0600
0600
3e00
0000
0000
0000
0000
ENDCHAR
STARTCHAR LtSmlBSmc
ENCODING 117
SWIDTH 1080 0
DWIDTH 9 0
BBX 9 18 0 -4
BITMAP
0000
0000
0000
0000
0000
0000
7e00
6300
6200
7e00
6300
6300
6300
7e00
0000
0000
0000
0000
ENDCHAR
STARTCHAR LtSmlGSmc
ENCODING 118
SWIDTH 1080 0
DWIDTH 9 0
BBX 9 18 0 -4
BITMAP
0000
0000
0000
0000
0000
0000
1f00
3300
6000
6000
6f00
6300
3300
1d00
0000
0000
0000
0000
ENDCHAR
STARTCHAR LtSmlHSmc
ENCODING 119
SWIDTH 1080 0
DWIDTH 9 0
BBX 9 18 0 -4
BITMAP
0000
0000
0000
0000
0000
0000
6300
6300
6300
7f00
6300
6300
6300
6300
0000
0000
0000
0000
ENDCHAR
STARTCHAR LtSmlISmc
ENCODING 120
SWIDTH 1080 0
DWIDTH 9 0
BBX 9 18 0 -4
BITMAP
0000
0000
0000
0000
0000
0000
3f00
0c00
0c00
0c00
0c00
0c00
0c00
3f00
0000
0000
0000
0000
ENDCHAR
STARTCHAR LtSmlLSmc
ENCODING 121
SWIDTH 1080 0
DWIDTH 9 0
BBX 9 18 0 -4
BITMAP
0000
0000
0000
0000
0000
0000
6000
6000
6000
6000
6000
6000
6300
7f00
0000
0000
0000
0000
ENDCHAR
STARTCHAR LtSmlNSmc
ENCODING 122
SWIDTH 1080 0
DWIDTH 9 0
BBX 9 18 0 -4
BITMAP
0000
0000
0000
0000
0000
0000
6100
7100
7900
5d00
4f00
4700
4300
4100
0000
0000
0000
0000
ENDCHAR
STARTCHAR LtSmlRSmc
ENCODING 123
SWIDTH 1080 0
DWIDTH 9 0
BBX 9 18 0 -4
BITMAP
0000
0000
0000
0000
0000
0000
7e00
6300
6300
7e00
6c00
6600
6300
6300
0000
0000
0000
0000
ENDCHAR
STARTCHAR LtSmlYSmc
ENCODING 124
SWIDTH 1080 0
DWIDTH 9 0
BBX 9 18 0 -4
BITMAP
0000
0000
0000
0000
0000
0000
6180
6100
3200
1e00
0c00
0c00
0c00
0c00
0000
0000
0000
0000
ENDCHAR
STARTCHAR LtSmlOESmc
ENCODING 125
SWIDTH 1080 0
DWIDTH 9 0
BBX 9 18 0 -4
BITMAP
0000
0000
0000
0000
0000
0000
3f80
6c80
6c00
6f00
6d00
6c00
6c80
3f80
0000
0000
0000
0000
ENDCHAR
STARTCHAR LtSmlAScr
ENCODING 126
SWIDTH 1080 0
DWIDTH 9 0
BBX 9 18 0 -4
BITMAP
0000
0000
0000
0000
0000
0000
1b00
3700
6300
6300
6300
6300
3700
1b80
0000
0000
0000
0000
ENDCHAR
STARTCHAR LtSmlGScr
ENCODING 127
SWIDTH 1080 0
DWIDTH 9 0
BBX 9 18 0 -4
BITMAP
0000
0000
0000
0000
0000
0000
3b00
6700
6300
6300
6300
6300
6700
3b00
0300
6300
3e00
0000
ENDCHAR
STARTCHAR LtSmlANonscr
ENCODING 128
SWIDTH 1080 0
DWIDTH 9 0
BBX 9 18 0 -4
BITMAP
0000
0000
0000
0000
0000
0000
3e00
3300
0300
3f00
6300
6300
6700
3b00
0000
0000
0000
0000
ENDCHAR
STARTCHAR LtSmlEpsClsd
ENCODING 129
SWIDTH 1080 0
DWIDTH 9 0
BBX 9 18 0 -4
BITMAP
0000
0000
0000
0000
0000
0000
3c00
6600
6300
3b00
6300
6300
6600
3c00
0000
0000
0000
0000
ENDCHAR
STARTCHAR LtSmlOmeClsd
ENCODING 130
SWIDTH 1080 0
DWIDTH 9 0
BBX 9 18 0 -4
BITMAP
0000
0000
0000
0000
0000
1c00
3600
6300
6300
6b00
6b00
6b00
6b00
3600
0000
0000
0000
0000
ENDCHAR
STARTCHAR LtSmlGlotInv
ENCODING 131
SWIDTH 1080 0
DWIDTH 9 0
BBX 9 18 0 -4
BITMAP
0000
0000
0000
0c00
0c00
0c00
0c00
0c00
0c00
0600
0300
6300
6300
3e00
0000
0000
0000
0000
ENDCHAR
STARTCHAR LtSmlRSmcInv
ENCODING 132
SWIDTH 1080 0
DWIDTH 9 0
BBX 9 18 0 -4
BITMAP
0000
0000
0000
0000
0000
0000
6300
6300
6600
6c00
7e00
6300
6300
7e00
0000
0000
0000
0000
ENDCHAR
STARTCHAR LtCapERev
ENCODING 133
SWIDTH 1080 0
DWIDTH 9 0
BBX 9 18 0 -4
BITMAP
0000
0000
0000
7f00
6300
4300
0300
1300
1f00
1300
0300
4300
6300
7f00
0000
0000
0000
0000
ENDCHAR
STARTCHAR LtCapEzhRev
ENCODING 134
SWIDTH 1080 0
DWIDTH 9 0
BBX 9 18 0 -4
BITMAP
0000
0000
0000
7f00
6300
3100
1000
1800
3800
6000
6000
6000
3300
1e00
0000
0000
0000
0000
ENDCHAR
STARTCHAR LtSmlERev
ENCODING 135
SWIDTH 1080 0
DWIDTH 9 0
BBX 9 18 0 -4
BITMAP
0000
0000
0000
0000
0000
0000
3c00
6600
6300
7f00
0300
0300
6600
3c00
0000
0000
0000
0000
ENDCHAR
STARTCHAR LtSmlEpsRev
ENCODING 136
SWIDTH 1080 0
DWIDTH 9 0
BBX 9 18 0 -4
BITMAP
0000
0000
0000
0000
0000
0000
3e00
6300
0300
0e00
0300
0300
6300
3e00
0000
0000
0000
0000
ENDCHAR
STARTCHAR LtSmlRFishRev
ENCODING 137
SWIDTH 1080 0
DWIDTH 9 0
BBX 9 18 0 -4
BITMAP
0000
0000
0000
0000
0000
0000
1c00
3600
3300
0300
0300
0300
0300
0300
0000
0000
0000
0000
ENDCHAR
STARTCHAR LtSmlEshSmlRev
ENCODING 138
SWIDTH 1080 0
DWIDTH 9 0
BBX 9 18 0 -4
BITMAP
0000
0000
0000
0000
0000
0000
7800
6c00
0c00
0c00
0c00
0c00
0d80
0780
0000
0000
0000
0000
ENDCHAR
STARTCHAR LtSmlEzhRev
ENCODING 139
SWIDTH 1080 0
DWIDTH 9 0
BBX 9 18 0 -4
BITMAP
0000
0000
0000
0000
0000
0000
7f00
6300
3100
3000
1800
3800
6000
6000
6000
2300
1e00
0000
ENDCHAR
STARTCHAR LtSmlAin
ENCODING 140
SWIDTH 1080 0
DWIDTH 9 0
BBX 9 18 0 -4
BITMAP
0000
0000
0000
3e00
6300
6300
6000
3000
1800
1800
1800
1800
1800
1800
0000
0000
0000
0000
ENDCHAR
STARTCHAR LtSmlEpsRevClsd
ENCODING 141
SWIDTH 1080 0
DWIDTH 9 0
BBX 9 18 0 -4
BITMAP
0000
0000
0000
0000
0000
0000
1e00
3300
6300
6600
6300
6300
3300
1e00
0000
0000
0000
0000
ENDCHAR
STARTCHAR LtCapCTrnd
ENCODING 142
SWIDTH 1080 0
DWIDTH 9 0
BBX 9 18 0 -4
BITMAP
0000
0000
0000
3c00
6600
0300
0300
0300
0300
0300
0300
0300
6600
3c00
0000
0000
0000
0000
ENDCHAR
STARTCHAR LtCapHTrnd
ENCODING 143
SWIDTH 1080 0
DWIDTH 9 0
BBX 9 18 0 -4
BITMAP
0000
0000
0000
6300
6300
6300
6300
6300
7f00
0300
0300
0300
0300
0300
0000
0000
0000
0000
ENDCHAR
STARTCHAR LtCapMTrnd
ENCODING 144
SWIDTH 1080 0
DWIDTH 9 0
BBX 9 18 0 -4
BITMAP
0000
0000
0000
6b00
6b00
6b00
6b00
6b00
6b00
6b00
6b00
6b00
7f00
3500
0000
0000
0000
0000
ENDCHAR
STARTCHAR LtCapVTrnd
ENCODING 145
SWIDTH 1080 0
DWIDTH 9 0
BBX 9 18 0 -4
BITMAP
0000
0000
0000
0800
1800
1c00
1c00
2c00
2600
2600
6600
4300
4300
c300
0000
0000
0000
0000
ENDCHAR
STARTCHAR LtSmlATrnd
ENCODING 146
SWIDTH 1080 0
DWIDTH 9 0
BBX 9 18 0 -4
BITMAP
0000
0000
0000
0000
0000
0000
ee00
7300
6300
6300
7e00
6000
6300
3e00
0000
0000
0000
0000
ENDCHAR
STARTCHAR LtSmlCTrnd
ENCODING 147
SWIDTH 1080 0
DWIDTH 9 0
BBX 9 18 0 -4
BITMAP
0000
0000
0000
0000
0000
0000
3c00
6600
0300
0300
0300
0300
6600
3c00
0000
0000
0000
0000
ENDCHAR
STARTCHAR LtSmlFTrnd
ENCODING 148
SWIDTH 1080 0
DWIDTH 9 0
BBX 9 18 0 -4
BITMAP
0000
0000
0000
0000
0000
0000
0c00
0c00
0c00
0c00
0c00
0c00
7f00
0c00
0c00
6c00
7800
0000
ENDCHAR
STARTCHAR LtSmlHTrnd
ENCODING 149
SWIDTH 1080 0
DWIDTH 9 0
BBX 9 18 0 -4
BITMAP
0000
0000
0000
0000
0000
0000
6300
6300
6300
6300
6300
6300
6700
3b00
0300
0300
0300
0000
ENDCHAR
STARTCHAR LtSmlKTrnd
ENCODING 150
SWIDTH 1080 0
DWIDTH 9 0
BBX 9 18 0 -4
BITMAP
0000
0000
0000
0000
0000
0000
6300
6300
3300
1f00
1b00
3300
6300
4300
0300
0300
0300
0000
ENDCHAR
STARTCHAR LtSmlMTrnd
ENCODING 151
SWIDTH 1080 0
DWIDTH 9 0
BBX 9 18 0 -4
BITMAP
0000
0000
0000
0000
0000
0000
6b00
6b00
6b00
6b00
6b00
6b00
7f00
3500
0000
0000
0000
0000
ENDCHAR
STARTCHAR LtSmlRTrnd
ENCODING 152
SWIDTH 1080 0
DWIDTH 9 0
BBX 9 18 0 -4
BITMAP
0000
0000
0000
0000
0000
0000
0600
0600
0600
0600
0600
4600
6e00
7700
0000
0000
0000
0000
ENDCHAR
STARTCHAR LtSmlTTrnd
ENCODING 153
SWIDTH 1080 0
DWIDTH 9 0
BBX 9 18 0 -4
BITMAP
0000
0000
0000
0000
0000
0000
3800
6c00
0c00
0c00
0c00
0c00
0c00
3f00
0c00
0c00
0000
0000
ENDCHAR
STARTCHAR LtSmlVTrnd
ENCODING 154
SWIDTH 1080 0
DWIDTH 9 0
BBX 9 18 0 -4
BITMAP
0000
0000
0000
0000
0000
0000
0400
0c00
0e00
1600
1300
1300
2180
6180
0000
0000
0000
0000
ENDCHAR
STARTCHAR LtSmlWTrnd
ENCODING 155
SWIDTH 1080 0
DWIDTH 9 0
BBX 9 18 0 -4
BITMAP
0000
0000
0000
0000
0000
0000
3300
3300
3f00
5d80
4980
4980
4180
4180
0000
0000
0000
0000
ENDCHAR
STARTCHAR LtSmlYTrnd
ENCODING 156
SWIDTH 1080 0
DWIDTH 9 0
BBX 9 18 0 -4
BITMAP
0000
0000
0000
0700
0b00
0800
1800
1800
1c00
2c00
2600
2600
6300
6300
0000
0000
0000
0000
ENDCHAR
STARTCHAR LtSmlDelTrnd
ENCODING 157
SWIDTH 1080 0
DWIDTH 9 0
BBX 9 18 0 -4
BITMAP
0000
0000
0000
0000
0000
0000
3e00
6300
6300
6300
6300
6300
3600
1c00
0c00
0600
3c00
0000
ENDCHAR
STARTCHAR LtSmlAScrTrnd
ENCODING 158
SWIDTH 1080 0
DWIDTH 9 0
BBX 9 18 0 -4
BITMAP
0000
0000
0000
0000
0000
0000
ec00
7600
6300
6300
6300
6300
7600
6c00
0000
0000
0000
0000
ENDCHAR
STARTCHAR LtCapAE
ENCODING 159
SWIDTH 1080 0
DWIDTH 9 0
BBX 9 18 0 -4
BITMAP
0000
0000
0000
0f80
0c80
1c80
1c00
2d00
2f00
2d00
7c00
4c80
4c80
cf80
0000
0000
0000
0000
ENDCHAR
STARTCHAR LtCapDZ
ENCODING 160
SWIDTH 1080 0
DWIDTH 9 0
BBX 9 18 0 -4
BITMAP
0000
0000
0000
6780
7580
7980
6900
6b00
6b00
6a00
6a00
7e80
7680
6780
0000
0000
0000
0000
ENDCHAR
STARTCHAR LtCapIJ
ENCODING 161
SWIDTH 1080 0
DWIDTH 9 0
BBX 9 18 0 -4
BITMAP
0000
0000
0000
f780
6300
6300
6300
6300
6300
6300
6300
6b00
6f00
f600
0000
0000
0000
0000
ENDCHAR
STARTCHAR LtCapLJ
ENCODING 162
SWIDTH 1080 0
DWIDTH 9 0
BBX 9 18 0 -4
BITMAP
0000
0000
0000
6380
6180
6180
6180
6180
6180
6180
6180
6580
6f80
7b00
0000
0000
0000
0000
ENDCHAR
STARTCHAR LtCapNJ
ENCODING 163
SWIDTH 1080 0
DWIDTH 9 0
BBX 9 18 0 -4
BITMAP
0000
0000
0000
4b80
4980
6980
6980
7980
7980
7980
5980
5d80
4f80
4b00
0000
0000
0000
0000
ENDCHAR
STARTCHAR LtCapOE
ENCODING 164
SWIDTH 1080 0
DWIDTH 9 0
BBX 9 18 0 -4
BITMAP
0000
0000
0000
3f80
6d80
6c80
6c00
6d00
6f00
6d00
6c00
6c80
6d80
3f80
0000
0000
0000
0000
ENDCHAR
STARTCHAR LtMixDZ
ENCODING 165
SWIDTH 1080 0
DWIDTH 9 0
BBX 9 18 0 -4
BITMAP
0000
0000
0000
6000
7000
7800
6f80
6d80
6900
6b00
6b00
7a00
7680
6780
0000
0000
0000
0000
ENDCHAR
STARTCHAR LtMixLJ
ENCODING 166
SWIDTH 1080 0
DWIDTH 9 0
BBX 9 18 0 -4
BITMAP
0000
0000
0300
6300
6000
6000
6300
6300
6300
6300
6300
6300
6b00
7b00
0300
1b00
0e00
0000
ENDCHAR
STARTCHAR LtMixNJ
ENCODING 167
SWIDTH 1080 0
DWIDTH 9 0
BBX 9 18 0 -4
BITMAP
0000
0000
0180
4580
6400
6400
7580
7580
5d80
5d80
4d80
4d80
4580
4580
0180
0d80
0700
0000
ENDCHAR
STARTCHAR LtSmlAE
ENCODING 168
SWIDTH 1080 0
DWIDTH 9 0
BBX 9 18 0 -4
BITMAP
0000
0000
0000
0000
0000
0000
3700
6d80
0d80
3f80
6c00
6c00
6d80
3700
0000
0000
0000
0000
ENDCHAR
STARTCHAR LtSmlDB
ENCODING 169
SWIDTH 1080 0
DWIDTH 9 0
BBX 9 18 0 -4
BITMAP
0000
0000
0000
0800
0800
0800
3e00
6b00
6b00
6b00
6b00
6b00
6b00
3e00
0000
0000
0000
0000
ENDCHAR
STARTCHAR LtSmlDZ
ENCODING 170
SWIDTH 1080 0
DWIDTH 9 0
BBX 9 18 0 -4
BITMAP
0000
0000
0000
1800
1800
1800
3f80
7d80
5900
5b00
5b00
5a00
7e80
3f80
0000
0000
0000
0000
ENDCHAR
STARTCHAR LtSmlDEzh
ENCODING 171
SWIDTH 1080 0
DWIDTH 9 0
BBX 9 18 0 -4
BITMAP
0000
0000
0000
1800
1800
1800
3f80
7d80
5900
5b00
5a00
5f00
7b80
3980
0180
1980
0f00
0000
ENDCHAR
STARTCHAR LtSmlFF
ENCODING 172
SWIDTH 1080 0
DWIDTH 9 0
BBX 9 18 0 -4
BITMAP
0000
0000
0000
3b80
6680
6600
6600
ff80
6600
6600
6600
6600
6600
6600
0000
0000
0000
0000
ENDCHAR
STARTCHAR LtSmlFI
ENCODING 173
SWIDTH 1080 0
DWIDTH 9 0
BBX 9 18 0 -4
BITMAP
0000
0000
0000
1f00
3300
3000
3300
7f00
3300
3300
3300
3300
3300
3780
0000
0000
0000
0000
ENDCHAR
STARTCHAR LtSmlFFI
ENCODING 174
SWIDTH 1080 0
DWIDTH 9 0
BBX 9 18 0 -4
BITMAP
0000
0000
0000
3780
6d80
6c00
6d80
ff80
6d80
6d80
6d80
6d80
6d80
6d80
0000
0000
0000
0000
ENDCHAR
STARTCHAR LtSmlFL
ENCODING 175
SWIDTH 1080 0
DWIDTH 9 0
BBX 9 18 0 -4
BITMAP
0000
0000
0000
1f00
3300
3300
3300
7b00
3300
3300
3300
3300
3300
3780
0000
0000
0000
0000
ENDCHAR
STARTCHAR LtSmlFFL
ENCODING 176
SWIDTH 1080 0
DWIDTH 9 0
BBX 9 18 0 -4
BITMAP
0000
0000
0000
3780
6d80
6d80
6d80
fd80
6d80
6d80
6d80
6d80
6d80
6d80
0000
0000
0000
0000
ENDCHAR
STARTCHAR LtSmlFEng
ENCODING 177
SWIDTH 1080 0
DWIDTH 9 0
BBX 9 18 0 -4
BITMAP
0000
0000
0000
3800
6000
6000
6a00
ff00
6f00
6d00
6d00
6d00
6d00
6d00
0100
0f00
0600
0000
ENDCHAR
STARTCHAR LtSmlIJ
ENCODING 178
SWIDTH 1080 0
DWIDTH 9 0
BBX 9 18 0 -4
BITMAP
0000
0000
3300
3300
0000
0000
7300
3300
3300
3300
3300
3300
3300
7b00
0300
1b00
0e00
0000
ENDCHAR
STARTCHAR LtSmlLJ
ENCODING 179
SWIDTH 1080 0
DWIDTH 9 0
BBX 9 18 0 -4
BITMAP
0000
0000
0300
7300
3000
3000
3300
3300
3300
3300
3300
3300
3300
7b00
0300
1b00
0e00
0000
ENDCHAR
STARTCHAR LtSmlLS
ENCODING 180
SWIDTH 1080 0
DWIDTH 9 0
BBX 9 18 0 -4
BITMAP
0000
0000
0000
7000
3000
3000
3600
3f00
3800
3c00
3600
3300
3300
7e00
0000
0000
0000
0000
ENDCHAR
STARTCHAR LtSmlLZ
ENCODING 181
SWIDTH 1080 0
DWIDTH 9 0
BBX 9 18 0 -4
BITMAP
0000
0000
0000
7000
3000
3000
3f00
3300
3300
3200
3600
3400
3d00
7f00
0000
0000
0000
0000
ENDCHAR
STARTCHAR LtSmlLEzh
ENCODING 182
SWIDTH 1080 0
DWIDTH 9 0
BBX 9 18 0 -4
BITMAP
0000
0000
0000
7000
3000
3000
3f00
3300
3300
3200
3600
3600
3300
7b00
0300
3300
1e00
0000
ENDCHAR
STARTCHAR LtSmlNJ
ENCODING 183
SWIDTH 1080 0
DWIDTH 9 0
BBX 9 18 0 -4
BITMAP
0000
0000
0180
0180
0000
0000
5980
7d80
6d80
6d80
6d80
6d80
6d80
6d80
0180
0d80
0700
0000
ENDCHAR
STARTCHAR LtSmlOE
ENCODING 184
SWIDTH 1080 0
DWIDTH 9 0
BBX 9 18 0 -4
BITMAP
0000
0000
0000
0000
0000
0000
3f00
6d80
6d80
6f80
6c00
6c00
6d80
3f00
0000
0000
0000
0000
ENDCHAR
STARTCHAR LtSmlQP
ENCODING 185
SWIDTH 1080 0
DWIDTH 9 0
BBX 9 18 0 -4
BITMAP
0000
0000
0000
0000
0000
0000
3e00
6b00
6b00
6b00
6b00
6b00
6b00
3e00
0800
0800
0800
0000
ENDCHAR
STARTCHAR LtSmlST
ENCODING 186
SWIDTH 1080 0
DWIDTH 9 0
BBX 9 18 0 -4
BITMAP
0000
0000
0000
0000
0300
0300
3f80
6300
6300
7300
3b00
1b00
5b00
3180
0000
0000
0000
0000
ENDCHAR
STARTCHAR LtSmlSLongT
ENCODING 187
SWIDTH 1080 0
DWIDTH 9 0
BBX 9 18 0 -4
BITMAP
0000
0000
0000
3c00
6600
6600
6f80
6600
6600
6600
6600
6600
6600
6380
0000
0000
0000
0000
ENDCHAR
STARTCHAR LtSmlTS
ENCODING 188
SWIDTH 1080 0
DWIDTH 9 0
BBX 9 18 0 -4
BITMAP
0000
0000
0000
0000
3000
3000
7b80
3680
3600
3700
3380
3180
3580
1f00
0000
0000
0000
0000
ENDCHAR
STARTCHAR LtSmlTEsh
ENCODING 189
SWIDTH 1080 0
DWIDTH 9 0
BBX 9 18 0 -4
BITMAP
0000
0000
0000
0180
3380
3300
7f00
3300
3300
3300
3300
3300
3700
1b00
0300
0b00
0e00
0000
ENDCHAR
STARTCHAR LtCapBTopbar
ENCODING 190
SWIDTH 1080 0
DWIDTH 9 0
BBX 9 18 0 -4
BITMAP
0000
0000
0000
7e00
6600
6200
6000
6000
7e00
6300
6300
6300
6300
7e00
0000
0000
0000
0000
ENDCHAR
STARTCHAR LtCapDTopbar
ENCODING 191
SWIDTH 1080 0
DWIDTH 9 0
BBX 9 18 0 -4
BITMAP
0000
0000
0000
3f00
3300
2300
0300
0300
3f00
6300
6300
6300
6300
3f00
0000
0000
0000
0000
ENDCHAR
STARTCHAR LtSmlBTopbar
ENCODING 192
SWIDTH 1080 0
DWIDTH 9 0
BBX 9 18 0 -4
BITMAP
0000
0000
0000
7e00
6000
6000
6e00
7300
6300
6300
6300
6300
7300
6e00
0000
0000
0000
0000
ENDCHAR
STARTCHAR LtSmlDTopbar
ENCODING 193
SWIDTH 1080 0
DWIDTH 9 0
BBX 9 18 0 -4
BITMAP
0000
0000
0000
3f00
0300
0300
3b00
6700
6300
6300
6300
6300
6700
3b00
0000
0000
0000
0000
ENDCHAR
STARTCHAR LtCapBHook
ENCODING 194
SWIDTH 1080 0
DWIDTH 9 0
BBX 9 18 0 -4
BITMAP
0000
0000
0000
3f00
7980
5980
5980
1900
1f00
1980
1980
1980
1980
1f00
0000
0000
0000
0000
ENDCHAR
STARTCHAR LtCapCHook
ENCODING 195
SWIDTH 1080 0
DWIDTH 9 0
BBX 9 18 0 -4
BITMAP
0380
0680
0600
1e00
3300
6100
6000
6000
6000
6000
6000
6000
3300
1e00
0000
0000
0000
0000
ENDCHAR
STARTCHAR LtCapDHook
ENCODING 196
SWIDTH 1080 0
DWIDTH 9 0
BBX 9 18 0 -4
BITMAP
0000
0000
0000
3e00
7900
5980
5980
1980
1980
1980
1980
1980
1900
1e00
0000
0000
0000
0000
ENDCHAR
STARTCHAR LtCapGHook
ENCODING 197
SWIDTH 1080 0
DWIDTH 9 0
BBX 9 18 0 -4
BITMAP
0380
0680
0600
1e00
3300
6100
6000
6000
6700
6300
6300
6300
3300
1f00
0000
0000
0000
0000
ENDCHAR
STARTCHAR LtCapHHook
ENCODING 198
SWIDTH 1080 0
DWIDTH 9 0
BBX 9 18 0 -4
BITMAP
0000
0000
0000
3980
7980
5980
5980
1980
1f80
1980
1980
1980
1980
1980
0000
0000
0000
0000
ENDCHAR
STARTCHAR LtCapKHook
ENCODING 199
SWIDTH 1080 0
DWIDTH 9 0
BBX 9 18 0 -4
BITMAP
0000
0000
0000
6200
6700
6d00
6900
7000
7800
6c00
6600
6600
6300
6300
0000
0000
0000
0000
ENDCHAR
STARTCHAR LtCapPHook
ENCODING 200
SWIDTH 1080 0
DWIDTH 9 0
BBX 9 18 0 -4
BITMAP
0000
0000
0000
3f00
7980
5980
5980
1980
1f00
1800
1800
1800
1800
1800
0000
0000
0000
0000
ENDCHAR
STARTCHAR LtCapTHook
ENCODING 201
SWIDTH 1080 0
DWIDTH 9 0
BBX 9 18 0 -4
BITMAP
0000
0000
0000
3f80
6d80
6c80
6c00
2c00
0c00
0c00
0c00
0c00
0c00
0c00
0000
0000
0000
0000
ENDCHAR
STARTCHAR LtCapVHook
ENCODING 202
SWIDTH 1080 0
DWIDTH 9 0
BBX 9 18 0 -4
BITMAP
0000
0000
0000
6600
6600
6300
6300
6300
6300
6300
6300
6300
6600
3c00
0000
0000
0000
0000
ENDCHAR
STARTCHAR LtCapYHook
ENCODING 203
SWIDTH 1080 0
DWIDTH 9 0
BBX 9 18 0 -4
BITMAP
0000
0000
0000
6100
6380
6280
3480
3400
3800
1800
1800
1800
1800
1800
0000
0000
0000
0000
ENDCHAR
STARTCHAR LtSmlBHook
ENCODING 204
SWIDTH 1080 0
DWIDTH 9 0
BBX 9 18 0 -4
BITMAP
0000
0000
0000
3c00
6400
6000
6e00
7300
6300
6300
6300
6300
7300
6e00
0000
0000
0000
0000
ENDCHAR
STARTCHAR LtSmlCHook
ENCODING 205
SWIDTH 1080 0
DWIDTH 9 0
BBX 9 18 0 -4
BITMAP
0000
0000
0000
0380
0680
0600
1e00
3300
6000
6000
6000
6000
3300
1e00
0000
0000
0000
0000
ENDCHAR
STARTCHAR LtSmlDHook
ENCODING 206
SWIDTH 1080 0
DWIDTH 9 0
BBX 9 18 0 -4
BITMAP
0000
0000
0000
0380
0680
0600
3600
6e00
6600
6600
6600
6600
6e00
3600
0000
0000
0000
0000
ENDCHAR
STARTCHAR LtSmlGHook
ENCODING 207
SWIDTH 1080 0
DWIDTH 9 0
BBX 9 18 0 -4
BITMAP
0000
0000
0000
0380
0680
0600
3600
6e00
6600
6600
6600
6600
6e00
3600
0600
6600
3c00
0000
ENDCHAR
STARTCHAR LtSmlHHook
ENCODING 208
SWIDTH 1080 0
DWIDTH 9 0
BBX 9 18 0 -4
BITMAP
0000
0000
0000
3c00
6400
6000
6e00
7300
6300
6300
6300
6300
6300
6300
0000
0000
0000
0000
ENDCHAR
STARTCHAR LtSmlKHook
ENCODING 209
SWIDTH 1080 0
DWIDTH 9 0
BBX 9 18 0 -4
BITMAP
0000
0000
0000
3c00
6400
6000
6300
6200
6400
6c00
7c00
6600
6300
6300
0000
0000
0000
0000
ENDCHAR
STARTCHAR LtSmlPHook
ENCODING 210
SWIDTH 1080 0
DWIDTH 9 0
BBX 9 18 0 -4
BITMAP
0000
0000
0000
0700
0d00
0c00
6e00
7300
6300
6300
6300
6300
7300
6e00
6000
6000
6000
0000
ENDCHAR
STARTCHAR LtSmlQHook
ENCODING 211
SWIDTH 1080 0
DWIDTH 9 0
BBX 9 18 0 -4
BITMAP
0000
0000
0000
0380
0680
0600
3600
6e00
6600
6600
6600
6600
6e00
3600
0600
0600
0600
0000
ENDCHAR
STARTCHAR LtSmlTHook
ENCODING 212
SWIDTH 1080 0
DWIDTH 9 0
BBX 9 18 0 -4
BITMAP
0000
0000
0000
0e00
1a00
1800
7e00
1800
1800
1800
1800
1800
1b00
0e00
0000
0000
0000
0000
ENDCHAR
STARTCHAR LtSmlVHook
ENCODING 213
SWIDTH 1080 0
DWIDTH 9 0
BBX 9 18 0 -4
BITMAP
0000
0000
0000
0000
0000
0000
6600
6600
6300
6300
6300
6300
6600
3c00
0000
0000
0000
0000
ENDCHAR
STARTCHAR LtSmlYHook
ENCODING 214
SWIDTH 1080 0
DWIDTH 9 0
BBX 9 18 0 -4
BITMAP
0000
0000
0000
0000
0000
0000
6300
6780
6480
3480
3400
3800
1800
1800
1000
7000
6000
0000
ENDCHAR
STARTCHAR LtSmlSchwaHook
ENCODING 215
SWIDTH 1080 0
DWIDTH 9 0
BBX 9 18 0 -4
BITMAP
0000
0000
0000
0000
0000
0000
3800
6d00
0700
0780
7e00
6600
6c00
3800
0000
0000
0000
0000
ENDCHAR
STARTCHAR LtSmlGSmcHook
ENCODING 216
SWIDTH 1080 0
DWIDTH 9 0
BBX 9 18 0 -4
BITMAP
0000
0000
0000
0380
0680
0600
1e00
3200
6000
6000
6f00
6300
3300
1d00
0000
0000
0000
0000
ENDCHAR
STARTCHAR LtSmlEpsRevHook
ENCODING 217
SWIDTH 1080 0
DWIDTH 9 0
BBX 9 18 0 -4
BITMAP
0000
0000
0000
0000
0000
0000
3c00
6700
0700
1d80
0600
0600
6600
3c00
0000
0000
0000
0000
ENDCHAR
STARTCHAR LtSmlFTrndHook
ENCODING 218
SWIDTH 1080 0
DWIDTH 9 0
BBX 9 18 0 -4
BITMAP
0000
0000
0000
0780
0d80
0c00
0c00
0c00
0c00
0c00
0c00
0c00
7f00
0c00
0c00
6c00
7800
0000
ENDCHAR
STARTCHAR LtSmlHTrndHook
ENCODING 219
SWIDTH 1080 0
DWIDTH 9 0
BBX 9 18 0 -4
BITMAP
0000
0000
0000
0000
0000
0000
6300
3300
3300
3300
3300
3300
3700
1b00
0300
0300
0300
0000
ENDCHAR
STARTCHAR LtCapFLhook
ENCODING 220
SWIDTH 1080 0
DWIDTH 9 0
BBX 9 18 0 -4
BITMAP
0000
0000
0000
1f80
1980
1880
1800
1a00
1e00
1a00
1800
1800
5800
7000
0000
0000
0000
0000
ENDCHAR
STARTCHAR LtCapNLhookL
ENCODING 221
SWIDTH 1080 0
DWIDTH 9 0
BBX 9 18 0 -4
BITMAP
0000
0000
0000
1880
1880
1c80
1c80
1680
1680
1380
1380
5180
7180
6080
0000
0000
0000
0000
ENDCHAR
STARTCHAR LtCapQHooktail
ENCODING 222
SWIDTH 1080 0
DWIDTH 9 0
BBX 9 18 0 -4
BITMAP
0000
0000
0000
3b00
6700
6300
6300
6300
6300
6300
6300
6300
6700
3b00
0300
0300
0180
0000
ENDCHAR
STARTCHAR LtCapTLhook
ENCODING 223
SWIDTH 1080 0
DWIDTH 9 0
BBX 9 18 0 -4
BITMAP
0000
0000
0000
7f80
6d80
4c80
0c00
0c00
0c00
0c00
0c00
0c00
0d00
0700
0000
0000
0000
0000
ENDCHAR
STARTCHAR LtCapZLhookL
ENCODING 224
SWIDTH 1080 0
DWIDTH 9 0
BBX 9 18 0 -4
BITMAP
0000
0000
0000
7f00
6300
4600
0600
0c00
1800
1800
3000
3000
6000
7e00
0300
0300
0600
0000
ENDCHAR
STARTCHAR LtSmlDLhook
ENCODING 225
SWIDTH 1080 0
DWIDTH 9 0
BBX 9 18 0 -4
BITMAP
0000
0000
0000
0300
0300
0300
3b00
6700
6300
6300
6300
6300
6700
3b00
0300
0300
0180
0000
ENDCHAR
STARTCHAR LtSmlFLhook
ENCODING 226
SWIDTH 1080 0
DWIDTH 9 0
BBX 9 18 0 -4
BITMAP
0000
0000
0000
0780
0d80
0c00
0c00
3f00
0c00
0c00
0c00
0c00
0c00
0c00
0c00
6c00
7800
0000
ENDCHAR
STARTCHAR LtSmlLLhook
ENCODING 227
SWIDTH 1080 0
DWIDTH 9 0
BBX 9 18 0 -4
BITMAP
0000
0000
0000
1c00
0c00
0c00
0c00
0c00
0c00
0c00
0c00
0c00
0c00
0c00
0c00
0d00
0700
0000
ENDCHAR
STARTCHAR LtSmlMLhook
ENCODING 228
SWIDTH 1080 0
DWIDTH 9 0
BBX 9 18 0 -4
BITMAP
0000
0000
0000
0000
0000
0000
5600
7f00
6b00
6b00
6b00
6b00
6b00
6b00
0300
1b00
0e00
0000
ENDCHAR
STARTCHAR LtSmlNLhook
ENCODING 229
SWIDTH 1080 0
DWIDTH 9 0
BBX 9 18 0 -4
BITMAP
0000
0000
0000
0000
0000
0000
6e00
7300
6300
6300
6300
6300
6300
6300
0300
0300
0180
0000
ENDCHAR
STARTCHAR LtSmlNLhookL
ENCODING 230
SWIDTH 1080 0
DWIDTH 9 0
BBX 9 18 0 -4
BITMAP
0000
0000
0000
0000
0000
0000
6e00
7300
6300
6300
6300
6300
6300
6300
6000
6000
c000
0000
ENDCHAR
STARTCHAR LtSmlQHooktail
ENCODING 231
SWIDTH 1080 0
DWIDTH 9 0
BBX 9 18 0 -4
BITMAP
0000
0000
0000
0000
0000
0000
3b00
6700
6300
6300
6300
6300
6700
3b00
0300
0300
0180
0000
ENDCHAR
STARTCHAR LtSmlRLhook
ENCODING 232
SWIDTH 1080 0
DWIDTH 9 0
BBX 9 18 0 -4
BITMAP
0000
0000
0000
0000
0000
0000
7700
3b00
3100
3000
3000
3000
3000
3000
3000
3400
1c00
0000
ENDCHAR
STARTCHAR LtSmlSLhook
ENCODING 233
SWIDTH 1080 0
DWIDTH 9 0
BBX 9 18 0 -4
BITMAP
0000
0000
0000
0000
0000
0000
3e00
6300
7000
3c00
0e00
0300
6300
7e00
6000
6800
3800
0000
ENDCHAR
STARTCHAR LtSmlTLhook
ENCODING 234
SWIDTH 1080 0
DWIDTH 9 0
BBX 9 18 0 -4
BITMAP
0000
0000
0000
0000
1800
1800
7e00
1800
1800
1800
1800
1800
1800
1800
1800
1b00
0e00
0000
ENDCHAR
STARTCHAR LtSmlTLhookL
ENCODING 235
SWIDTH 1080 0
DWIDTH 9 0
BBX 9 18 0 -4
BITMAP
0000
0000
0000
0000
1800
1800
7e00
1800
1800
1800
1800
1800
1b00
0f00
0300
0300
0600
0000
ENDCHAR
STARTCHAR LtSmlZLhook
ENCODING 236
SWIDTH 1080 0
DWIDTH 9 0
BBX 9 18 0 -4
BITMAP
0000
0000
0000
0000
0000
0000
7f00
6700
4600
0c00
1800
3100
7300
7e00
0600
0680
0380
0000
ENDCHAR
STARTCHAR LtSmlZLhookL
ENCODING 237
SWIDTH 1080 0
DWIDTH 9 0
BBX 9 18 0 -4
BITMAP
0000
0000
0000
0000
0000
0000
7f00
6700
4600
0c00
1800
3000
7000
7e00
0300
0300
0600
0000
ENDCHAR
STARTCHAR LtSmlEzhTail
ENCODING 238
SWIDTH 1080 0
DWIDTH 9 0
BBX 9 18 0 -4
BITMAP
0000
0000
0000
0000
0000
0000
7f00
6300
0600
0c00
0e00
0300
0300
3e00
6000
6300
3e00
0000
ENDCHAR
STARTCHAR LtSmlRTrndLhook
ENCODING 239
SWIDTH 1080 0
DWIDTH 9 0
BBX 9 18 0 -4
BITMAP
0000
0000
0000
0000
0000
0000
0600
0600
0600
0600
0600
4600
6e00
7600
0600
0680
0380
0000
ENDCHAR
STARTCHAR LtSmlHHookLhook
ENCODING 240
SWIDTH 1080 0
DWIDTH 9 0
BBX 9 18 0 -4
BITMAP
0000
0000
0000
3c00
6400
6000
6e00
7300
6300
6300
6300
6300
6300
6300
0300
1300
1e00
0000
ENDCHAR
STARTCHAR LtSmlHTrndHookLhook
ENCODING 241
SWIDTH 1080 0
DWIDTH 9 0
BBX 9 18 0 -4
BITMAP
0000
0000
0000
0000
0000
0000
6300
3300
3300
3300
3300
3300
3700
1b00
0300
0300
0180
0000
ENDCHAR
STARTCHAR LtCapNLongleg
ENCODING 242
SWIDTH 1080 0
DWIDTH 9 0
BBX 9 18 0 -4
BITMAP
0000
0000
0000
6e00
7300
6300
6300
6300
6300
6300
6300
6300
6300
6300
0300
0300
0300
0000
ENDCHAR
STARTCHAR LtSmlNLongleg
ENCODING 243
SWIDTH 1080 0
DWIDTH 9 0
BBX 9 18 0 -4
BITMAP
0000
0000
0000
0000
0000
0000
6e00
7300
6300
6300
6300
6300
6300
6300
0300
0300
0300
0000
ENDCHAR
STARTCHAR LtSmlRLongleg
ENCODING 244
SWIDTH 1080 0
DWIDTH 9 0
BBX 9 18 0 -4
BITMAP
0000
0000
0000
0000
0000
0000
7700
3b00
3100
3000
3000
3000
3000
3000
3000
3000
3000
0000
ENDCHAR
STARTCHAR LtSmlMTrndLongleg
ENCODING 245
SWIDTH 1080 0
DWIDTH 9 0
BBX 9 18 0 -4
BITMAP
0000
0000
0000
0000
0000
0000
6b00
6b00
6b00
6b00
6b00
6b00
7f00
2b00
0300
0300
0300
0000
ENDCHAR
STARTCHAR LtSmlRTrndLongleg
ENCODING 246
SWIDTH 1080 0
DWIDTH 9 0
BBX 9 18 0 -4
BITMAP
0000
0000
0000
0600
0600
0600
0600
0600
0600
0600
0600
4600
6e00
7700
0000
0000
0000
0000
ENDCHAR
STARTCHAR LtSmlSSwash
ENCODING 247
SWIDTH 1080 0
DWIDTH 9 0
BBX 9 18 0 -4
BITMAP
0000
0000
0000
0000
0000
0000
3e00
6300
7000
3c00
0e00
0300
6300
3e00
1800
0d80
0700
0000
ENDCHAR
STARTCHAR LtSmlZSwash
ENCODING 248
SWIDTH 1080 0
DWIDTH 9 0
BBX 9 18 0 -4
BITMAP
0000
0000
0000
0000
0000
0000
7f00
6700
4600
0c00
1800
3000
7000
7000
1800
0d80
0700
0000
ENDCHAR
STARTCHAR LtSmlCCurl
ENCODING 249
SWIDTH 1080 0
DWIDTH 9 0
BBX 9 18 0 -4
BITMAP
0000
0000
0000
0000
0000
0000
1e00
3300
6000
6000
6200
6700
3500
1e00
0c00
0800
0000
0000
ENDCHAR
STARTCHAR LtSmlDCurl
ENCODING 250
SWIDTH 1080 0
DWIDTH 9 0
BBX 9 18 0 -4
BITMAP
0000
0000
0000
0c00
0c00
0c00
3c00
6c00
6c00
6c00
6d00
6d80
6e80
3700
0600
0400
0000
0000
ENDCHAR
STARTCHAR LtSmlJCurl
ENCODING 251
SWIDTH 1080 0
DWIDTH 9 0
BBX 9 18 0 -4
BITMAP
0000
0000
0600
0600
0000
0000
1e00
0600
0600
0600
0600
0600
0600
3f00
6600
6600
3c00
0000
ENDCHAR
STARTCHAR LtSmlLCurl
ENCODING 252
SWIDTH 1080 0
DWIDTH 9 0
BBX 9 18 0 -4
BITMAP
0000
0000
0000
3800
1800
1800
1800
1800
1800
1800
1900
1b80
1a80
7f00
0600
0400
0000
0000
ENDCHAR
STARTCHAR LtSmlNCurl
ENCODING 253
SWIDTH 1080 0
DWIDTH 9 0
BBX 9 18 0 -4
BITMAP
0000
0000
0000
0000
0000
0000
5800
6c00
6c00
6c00
6d00
6d80
6e80
6700
0600
0400
0000
0000
ENDCHAR
STARTCHAR LtSmlTCurl
ENCODING 254
SWIDTH 1080 0
DWIDTH 9 0
BBX 9 18 0 -4
BITMAP
0000
0000
0000
0000
1800
1800
7e00
1800
1800
1800
1900
1b80
1a80
0f00
0600
0400
0000
0000
ENDCHAR
STARTCHAR LtSmlZCurl
ENCODING 255
SWIDTH 1080 0
DWIDTH 9 0
BBX 9 18 0 -4
BITMAP
0000
0000
0000
0000
0000
0000
7f00
6700
4600
0c00
1900
3380
7280
7f00
0600
0400
0000
0000
ENDCHAR
STARTCHAR LtSmlEshCurl
ENCODING 256
SWIDTH 1080 0
DWIDTH 9 0
BBX 9 18 0 -4
BITMAP
0000
0000
0000
0780
0d80
0c00
0c00
0c00
0c00
0c00
0c00
0c00
0c00
0c00
3e00
6d00
3900
0000
ENDCHAR
STARTCHAR LtSmlEzhCurl
ENCODING 257
SWIDTH 1080 0
DWIDTH 9 0
BBX 9 18 0 -4
BITMAP
0000
0000
0000
0000
0000
0000
7f00
6300
0600
0600
0c00
0e00
0300
0300
3e00
6c00
3b00
0000
ENDCHAR
STARTCHAR LtSmlDZCurl
ENCODING 258
SWIDTH 1080 0
DWIDTH 9 0
BBX 9 18 0 -4
BITMAP
0000
0000
0000
1800
1800
1800
3f80
7d80
5900
5b00
5a00
5a00
7d80
3f80
0100
0200
0000
0000
ENDCHAR
STARTCHAR LtSmlTCCurl
ENCODING 259
SWIDTH 1080 0
DWIDTH 9 0
BBX 9 18 0 -4
BITMAP
0000
0000
0000
0000
3000
3000
7b80
3680
3600
3600
3600
3600
3780
1b80
0100
0200
0000
0000
ENDCHAR
STARTCHAR LtSmlEshRevLoop
ENCODING 260
SWIDTH 1080 0
DWIDTH 9 0
BBX 9 18 0 -4
BITMAP
0000
0000
0000
3800
6c00
6c00
3c00
0c00
0c00
0c00
0c00
0c00
0c00
0c00
0c00
0d80
0780
0000
ENDCHAR
STARTCHAR LtCapAStroke
ENCODING 261
SWIDTH 1080 0
DWIDTH 9 0
BBX 9 18 0 -4
BITMAP
0000
0000
0100
0900
1a00
1e00
1c00
2c00
2e00
3600
7e00
5300
6300
c300
4000
0000
0000
0000
ENDCHAR
STARTCHAR LtCapBStroke
ENCODING 262
SWIDTH 1080 0
DWIDTH 9 0
BBX 9 18 0 -4
BITMAP
0000
0000
0000
7e00
6300
6300
6300
6200
7e00
6300
fb00
fb00
6300
7e00
0000
0000
0000
0000
ENDCHAR
STARTCHAR LtCapCStroke
ENCODING 263
SWIDTH 1080 0
DWIDTH 9 0
BBX 9 18 0 -4
BITMAP
0000
0000
0100
1f00
3300
6500
6400
6800
6800
7000
7000
6000
3300
5e00
4000
0000
0000
0000
ENDCHAR
STARTCHAR LtCapDStroke
ENCODING 264
SWIDTH 1080 0
DWIDTH 9 0
BBX 9 18 0 -4
BITMAP
0000
0000
0000
7c00
6600
6300
6300
fb00
fb00
6300
6300
6300
6600
7c00
0000
0000
0000
0000
ENDCHAR
STARTCHAR LtCapEStroke
ENCODING 265
SWIDTH 1080 0
DWIDTH 9 0
BBX 9 18 0 -4
BITMAP
0000
0000
0100
7f00
6300
6300
6400
6400
7c00
6c00
7000
7100
6300
7f00
2000
0000
0000
0000
ENDCHAR
STARTCHAR LtCapGStroke
ENCODING 266
SWIDTH 1080 0
DWIDTH 9 0
BBX 9 18 0 -4
BITMAP
0000
0000
0000
1f00
3300
6100
6000
6000
6700
6300
6f80
6300
3300
1f00
0000
0000
0000
0000
ENDCHAR
STARTCHAR LtCapHStroke
ENCODING 267
SWIDTH 1080 0
DWIDTH 9 0
BBX 9 18 0 -4
BITMAP
0000
0000
0000
6300
6300
6300
7f00
6300
7f00
6300
6300
6300
6300
6300
0000
0000
0000
0000
ENDCHAR
STARTCHAR LtCapIStroke
ENCODING 268
SWIDTH 1080 0
DWIDTH 9 0
BBX 9 18 0 -4
BITMAP
0000
0000
0000
3f00
0c00
0c00
0c00
0c00
3f00
0c00
0c00
0c00
0c00
3f00
0000
0000
0000
0000
ENDCHAR
STARTCHAR LtCapJStroke
ENCODING 269
SWIDTH 1080 0
DWIDTH 9 0
BBX 9 18 0 -4
BITMAP
0000
0000
0000
0f00
0600
0600
0600
1f80
1f80
0600
0600
6600
6600
3c00
0000
0000
0000
0000
ENDCHAR
STARTCHAR LtCapLStroke
ENCODING 270
SWIDTH 1080 0
DWIDTH 9 0
BBX 9 18 0 -4
BITMAP
0000
0000
0000
6000
6000
6000
6000
6c00
7800
e000
e000
6100
6300
7f00
0000
0000
0000
0000
ENDCHAR
STARTCHAR LtCapLStrokeH
ENCODING 271
SWIDTH 1080 0
DWIDTH 9 0
BBX 9 18 0 -4
BITMAP
0000
0000
0000
6000
6000
6000
6000
f800
f800
6000
6000
6100
6300
7f00
0000
0000
0000
0000
ENDCHAR
STARTCHAR LtCapOStroke
ENCODING 272
SWIDTH 1080 0
DWIDTH 9 0
BBX 9 18 0 -4
BITMAP
0000
0000
0100
3e00
6300
6700
6700
6b00
6b00
6b00
7300
7300
6300
3e00
4000
0000
0000
0000
ENDCHAR
STARTCHAR LtCapOStrokeH
ENCODING 273
SWIDTH 1080 0
DWIDTH 9 0
BBX 9 18 0 -4
BITMAP
0000
0000
0000
3e00
6300
6300
6300
6300
7f00
6300
6300
6300
6300
3e00
0000
0000
0000
0000
ENDCHAR
STARTCHAR LtCapRStroke
ENCODING 274
SWIDTH 1080 0
DWIDTH 9 0
BBX 9 18 0 -4
BITMAP
0000
0000
0000
7e00
6300
6300
6300
6600
ff00
6c00
6600
6600
6300
6300
0000
0000
0000
0000
ENDCHAR
STARTCHAR LtCapTStroke
ENCODING 275
SWIDTH 1080 0
DWIDTH 9 0
BBX 9 18 0 -4
BITMAP
0000
0000
0000
7f80
6d80
4c80
0c00
0c00
1f00
3e00
0c00
0c00
0c00
0c00
0000
0000
0000
0000
ENDCHAR
STARTCHAR LtCapTStrokeD
ENCODING 276
SWIDTH 1080 0
DWIDTH 9 0
BBX 9 18 0 -4
BITMAP
0000
0000
0080
7f80
6d80
4e80
0e00
0c00
0c00
1c00
1c00
2c00
2c00
4c00
4000
0000
0000
0000
ENDCHAR
STARTCHAR LtCapUStroke
ENCODING 277
SWIDTH 1080 0
DWIDTH 9 0
BBX 9 18 0 -4
BITMAP
0000
0000
0000
6300
6300
6300
6300
7f80
7f80
6300
6300
6300
6300
3e00
0000
0000
0000
0000
ENDCHAR
STARTCHAR LtCapYStroke
ENCODING 278
SWIDTH 1080 0
DWIDTH 9 0
BBX 9 18 0 -4
BITMAP
0000
0000
0000
6180
6100
3100
7f80
1a00
1c00
0c00
0c00
0c00
0c00
0c00
0000
0000
0000
0000
ENDCHAR
STARTCHAR LtCapZStroke
ENCODING 279
SWIDTH 1080 0
DWIDTH 9 0
BBX 9 18 0 -4
BITMAP
0000
0000
0000
7f00
6300
4600
0600
0c00
3e00
1800
3000
3100
6300
7f00
0000
0000
0000
0000
ENDCHAR
STARTCHAR LtSmlAStroke
ENCODING 280
SWIDTH 1080 0
DWIDTH 9 0
BBX 9 18 0 -4
BITMAP
0000
0000
0000
0000
0000
0100
3e00
3300
0700
3f00
6b00
7300
7700
3b00
4000
0000
0000
0000
ENDCHAR
STARTCHAR LtSmlBStroke
ENCODING 281
SWIDTH 1080 0
DWIDTH 9 0
BBX 9 18 0 -4
BITMAP
0000
0000
0000
6000
f800
6000
6e00
7300
6300
6300
6300
6300
7300
6e00
0000
0000
0000
0000
ENDCHAR
STARTCHAR LtSmlCStroke
ENCODING 282
SWIDTH 1080 0
DWIDTH 9 0
BBX 9 18 0 -4
BITMAP
0000
0000
0000
0000
0000
0100
1e00
3700
6400
6c00
6800
7800
3300
1e00
2000
0000
0000
0000
ENDCHAR
STARTCHAR LtSmlDStroke
ENCODING 283
SWIDTH 1080 0
DWIDTH 9 0
BBX 9 18 0 -4
BITMAP
0000
0000
0000
0300
0f80
0300
3b00
6700
6300
6300
6300
6300
6700
3b00
0000
0000
0000
0000
ENDCHAR
STARTCHAR LtSmlEStroke
ENCODING 284
SWIDTH 1080 0
DWIDTH 9 0
BBX 9 18 0 -4
BITMAP
0000
0000
0000
0000
0000
0100
1e00
3300
6700
7f00
6800
7800
3300
1e00
2000
0000
0000
0000
ENDCHAR
STARTCHAR LtSmlGStroke
ENCODING 285
SWIDTH 1080 0
DWIDTH 9 0
BBX 9 18 0 -4
BITMAP
0000
0000
0000
0000
0000
0000
3d00
6700
6600
6600
3c00
6000
3e00
2300
6f80
6300
3e00
0000
ENDCHAR
STARTCHAR LtSmlHStroke
ENCODING 286
SWIDTH 1080 0
DWIDTH 9 0
BBX 9 18 0 -4
BITMAP
0000
0000
0000
6000
f800
6000
6e00
7300
6300
6300
6300
6300
6300
6300
0000
0000
0000
0000
ENDCHAR
STARTCHAR LtSmlIStroke
ENCODING 287
SWIDTH 1080 0
DWIDTH 9 0
BBX 9 18 0 -4
BITMAP
0000
0000
0c00
0c00
0000
0000
1c00
0c00
0c00
3f00
0c00
0c00
0c00
3f00
0000
0000
0000
0000
ENDCHAR
STARTCHAR LtSmlJStroke
ENCODING 288
SWIDTH 1080 0
DWIDTH 9 0
BBX 9 18 0 -4
BITMAP
0000
0000
0600
0600
0000
0000
1e00
0600
0600
3f80
3f80
0600
0600
0600
6600
6600
3c00
0000
ENDCHAR
STARTCHAR LtSmlLStroke
ENCODING 289
SWIDTH 1080 0
DWIDTH 9 0
BBX 9 18 0 -4
BITMAP
0000
0000
0000
1c00
0c00
0c00
0e00
0e00
1c00
1c00
0c00
0c00
0c00
3f00
0000
0000
0000
0000
ENDCHAR
STARTCHAR LtSmlLStrokeH
ENCODING 290
SWIDTH 1080 0
DWIDTH 9 0
BBX 9 18 0 -4
BITMAP
0000
0000
0000
1c00
0c00
0c00
0c00
0c00
3f00
0c00
0c00
0c00
0c00
3f00
0000
0000
0000
0000
ENDCHAR
STARTCHAR LtSmlOStroke
ENCODING 291
SWIDTH 1080 0
DWIDTH 9 0
BBX 9 18 0 -4
BITMAP
0000
0000
0000
0000
0000
0100
3e00
6300
6700
6b00
6b00
7300
6300
3e00
4000
0000
0000
0000
ENDCHAR
STARTCHAR LtSmlOStrokeH
ENCODING 292
SWIDTH 1080 0
DWIDTH 9 0
BBX 9 18 0 -4
BITMAP
0000
0000
0000
0000
0000
0000
3e00
6300
6300
7f00
6300
6300
6300
3e00
0000
0000
0000
0000
ENDCHAR
STARTCHAR LtSmlRStroke
ENCODING 293
SWIDTH 1080 0
DWIDTH 9 0
BBX 9 18 0 -4
BITMAP
0000
0000
0000
0000
0000
0000
7700
3b00
3100
7c00
7c00
3000
3000
3000
0000
0000
0000
0000
ENDCHAR
STARTCHAR LtSmlTStroke
ENCODING 294
SWIDTH 1080 0
DWIDTH 9 0
BBX 9 18 0 -4
BITMAP
0000
0000
0000
0000
1800
1800
7e00
1800
7e00
1800
1800
1800
1b00
0e00
0000
0000
0000
0000
ENDCHAR
STARTCHAR LtSmlTStrokeD
ENCODING 295
SWIDTH 1080 0
DWIDTH 9 0
BBX 9 18 0 -4
BITMAP
0000
0000
0000
0100
1a00
1a00
7e00
1c00
1800
1800
1800
3800
3b00
4e00
4000
0000
0000
0000
ENDCHAR
STARTCHAR LtSmlUStroke
ENCODING 296
SWIDTH 1080 0
DWIDTH 9 0
BBX 9 18 0 -4
BITMAP
0000
0000
0000
0000
0000
0000
6300
6300
6300
7f80
6300
6300
6700
3b00
0000
0000
0000
0000
ENDCHAR
STARTCHAR LtSmlYStroke
ENCODING 297
SWIDTH 1080 0
DWIDTH 9 0
BBX 9 18 0 -4
BITMAP
0000
0000
0000
0000
0000
0000
6300
6300
3200
7f00
1a00
1c00
0c00
0c00
0800
6800
7000
0000
ENDCHAR
STARTCHAR LtSmlZStroke
ENCODING 298
SWIDTH 1080 0
DWIDTH 9 0
BBX 9 18 0 -4
BITMAP
0000
0000
0000
0000
0000
0000
7f00
6600
0c00
3e00
1800
3100
6300
7f00
0000
0000
0000
0000
ENDCHAR
STARTCHAR LtSmlLamStroke
ENCODING 299
SWIDTH 1080 0
DWIDTH 9 0
BBX 9 18 0 -4
BITMAP
0000
0000
0000
6400
3c00
3800
6800
0c00
1c00
1e00
3200
3300
6100
6180
0000
0000
0000
0000
ENDCHAR
STARTCHAR LtSmlTwoStroke
ENCODING 300
SWIDTH 1080 0
DWIDTH 9 0
BBX 9 18 0 -4
BITMAP
0000
0000
0000
3e00
6300
6300
0300
0600
3f00
1800
1000
2000
7f00
7f00
0000
0000
0000
0000
ENDCHAR
STARTCHAR LtSmlGlotStroke
ENCODING 301
SWIDTH 1080 0
DWIDTH 9 0
BBX 9 18 0 -4
BITMAP
0000
0000
0000
3e00
6300
6300
0300
0600
0c00
0c00
3f00
0c00
0c00
0c00
0000
0000
0000
0000
ENDCHAR
STARTCHAR LtSmlAinStroke
ENCODING 302
SWIDTH 1080 0
DWIDTH 9 0
BBX 9 18 0 -4
BITMAP
0000
0000
0000
3e00
6300
6300
6000
3000
1800
1800
7e00
1800
1800
1800
0000
0000
0000
0000
ENDCHAR
STARTCHAR LtSmlPipeStroke2
ENCODING 303
SWIDTH 1080 0
DWIDTH 9 0
BBX 9 18 0 -4
BITMAP
0000
0000
0000
0c00
0c00
0c00
0c00
3f00
0c00
3f00
0c00
0c00
0c00
0c00
0000
0000
0000
0000
ENDCHAR
STARTCHAR LtSmlGlotInvStroke
ENCODING 304
SWIDTH 1080 0
DWIDTH 9 0
BBX 9 18 0 -4
BITMAP
0000
0000
0000
0c00
0c00
0c00
3f00
0c00
0c00
0600
0300
6300
6300
3e00
0000
0000
0000
0000
ENDCHAR
STARTCHAR LtSmlLBelt
ENCODING 305
SWIDTH 1080 0
DWIDTH 9 0
BBX 9 18 0 -4
BITMAP
0000
0000
0000
1c00
0c00
0c00
0c00
3c00
2d00
1e00
0c00
0c00
0c00
3f00
0000
0000
0000
0000
ENDCHAR
STARTCHAR LtSmlLLhookBelt
ENCODING 306
SWIDTH 1080 0
DWIDTH 9 0
BBX 9 18 0 -4
BITMAP
0000
0000
0000
1c00
0c00
0c00
0c00
3c00
2d00
1e00
0c00
0c00
0c00
0c00
0c00
0d00
0700
0000
ENDCHAR
STARTCHAR LtSmlLMtilde
ENCODING 307
SWIDTH 1080 0
DWIDTH 9 0
BBX 9 18 0 -4
BITMAP
0000
0000
0000
1c00
0c00
0c00
0c00
3c80
4f00
0c00
0c00
0c00
0c00
3f00
0000
0000
0000
0000
ENDCHAR
STARTCHAR LtCapOHorn
ENCODING 308
SWIDTH 1080 0
DWIDTH 9 0
BBX 9 18 0 -4
BITMAP
0000
0380
0180
3f00
6300
6300
6300
6300
6300
6300
6300
6300
6300
3e00
0000
0000
0000
0000
ENDCHAR
STARTCHAR LtCapUHorn
ENCODING 309
SWIDTH 1080 0
DWIDTH 9 0
BBX 9 18 0 -4
BITMAP
0000
0380
0180
6300
6300
6300
6300
6300
6300
6300
6300
6300
6300
3e00
0000
0000
0000
0000
ENDCHAR
STARTCHAR LtSmlOHorn
ENCODING 310
SWIDTH 1080 0
DWIDTH 9 0
BBX 9 18 0 -4
BITMAP
0000
0000
0000
0000
0380
0180
3f00
6300
6300
6300
6300
6300
6300
3e00
0000
0000
0000
0000
ENDCHAR
STARTCHAR LtSmlUHorn
ENCODING 311
SWIDTH 1080 0
DWIDTH 9 0
BBX 9 18 0 -4
BITMAP
0000
0000
0000
0000
0380
0180
6300
6300
6300
6300
6300
6300
6700
3b00
0000
0000
0000
0000
ENDCHAR
STARTCHAR LtCapADot
ENCODING 312
SWIDTH 1080 0
DWIDTH 9 0
BBX 9 18 0 -4
BITMAP
1800
1800
0000
0800
1800
1c00
1c00
2c00
2600
2600
7e00
4300
4300
c300
0000
0000
0000
0000
ENDCHAR
STARTCHAR LtCapBDot
ENCODING 313
SWIDTH 1080 0
DWIDTH 9 0
BBX 9 18 0 -4
BITMAP
1800
1800
0000
7e00
6300
6300
6300
6200
7e00
6300
6300
6300
6300
7e00
0000
0000
0000
0000
ENDCHAR
STARTCHAR LtCapCDot
ENCODING 314
SWIDTH 1080 0
DWIDTH 9 0
BBX 9 18 0 -4
BITMAP
0c00
0c00
0000
1f00
3300
6100
6000
6000
6000
6000
6000
6000
3300
1e00
0000
0000
0000
0000
ENDCHAR
STARTCHAR LtCapDDot
ENCODING 315
SWIDTH 1080 0
DWIDTH 9 0
BBX 9 18 0 -4
BITMAP
1800
1800
0000
7c00
6600
6300
6300
6300
6300
6300
6300
6300
6600
7c00
0000
0000
0000
0000
ENDCHAR
STARTCHAR LtCapEDot
ENCODING 316
SWIDTH 1080 0
DWIDTH 9 0
BBX 9 18 0 -4
BITMAP
1800
1800
0000
7f00
6300
6100
6000
6400
7c00
6400
6000
6100
6300
7f00
0000
0000
0000
0000
ENDCHAR
STARTCHAR LtCapFDot
ENCODING 317
SWIDTH 1080 0
DWIDTH 9 0
BBX 9 18 0 -4
BITMAP
0c00
0c00
0000
3f80
3180
3080
3000
3200
3e00
3200
3000
3000
3000
3000
0000
0000
0000
0000
ENDCHAR
STARTCHAR LtCapGDot
ENCODING 318
SWIDTH 1080 0
DWIDTH 9 0
BBX 9 18 0 -4
BITMAP
0c00
0c00
0000
1f00
3300
6100
6000
6000
6700
6300
6300
6300
3300
1f00
0000
0000
0000
0000
ENDCHAR
STARTCHAR LtCapHDot
ENCODING 319
SWIDTH 1080 0
DWIDTH 9 0
BBX 9 18 0 -4
BITMAP
0c00
0c00
0000
6300
6300
6300
6300
6300
7f00
6300
6300
6300
6300
6300
0000
0000
0000
0000
ENDCHAR
STARTCHAR LtCapIDot
ENCODING 320
SWIDTH 1080 0
DWIDTH 9 0
BBX 9 18 0 -4
BITMAP
0c00
0c00
0000
3f00
0c00
0c00
0c00
0c00
0c00
0c00
0c00
0c00
0c00
3f00
0000
0000
0000
0000
ENDCHAR
STARTCHAR LtCapMDot
ENCODING 321
SWIDTH 1080 0
DWIDTH 9 0
BBX 9 18 0 -4
BITMAP
1800
1800
0000
6300
6300
7700
7700
7f00
5b00
5b00
4300
4300
4300
4300
0000
0000
0000
0000
ENDCHAR
STARTCHAR LtCapNDot
ENCODING 322
SWIDTH 1080 0
DWIDTH 9 0
BBX 9 18 0 -4
BITMAP
0c00
0c00
0000
6100
7100
7100
5900
5900
4d00
4d00
4700
4700
4300
4100
0000
0000
0000
0000
ENDCHAR
STARTCHAR LtCapODot
ENCODING 323
SWIDTH 1080 0
DWIDTH 9 0
BBX 9 18 0 -4
BITMAP
0c00
0c00
0000
3e00
6300
6300
6300
6300
6300
6300
6300
6300
6300
3e00
0000
0000
0000
0000
ENDCHAR
STARTCHAR LtCapPDot
ENCODING 324
SWIDTH 1080 0
DWIDTH 9 0
BBX 9 18 0 -4
BITMAP
1800
1800
0000
7e00
6300
6300
6300
6300
7e00
6000
6000
6000
6000
6000
0000
0000
0000
0000
ENDCHAR
STARTCHAR LtCapQDot
ENCODING 325
SWIDTH 1080 0
DWIDTH 9 0
BBX 9 18 0 -4
BITMAP
0c00
0c00
0000
3e00
6300
6300
6300
6300
6300
6300
6300
7b00
6b00
3e00
0600
0380
0000
0000
ENDCHAR
STARTCHAR LtCapRDot
ENCODING 326
SWIDTH 1080 0
DWIDTH 9 0
BBX 9 18 0 -4
BITMAP
1800
1800
0000
7e00
6300
6300
6300
6300
7e00
6c00
6600
6600
6300
6300
0000
0000
0000
0000
ENDCHAR
STARTCHAR LtCapSDot
ENCODING 327
SWIDTH 1080 0
DWIDTH 9 0
BBX 9 18 0 -4
BITMAP
0c00
0c00
0000
3f00
6300
6100
6000
3800
1e00
0600
0300
4300
6300
7e00
0000
0000
0000
0000
ENDCHAR
STARTCHAR LtCapTDot
ENCODING 328
SWIDTH 1080 0
DWIDTH 9 0
BBX 9 18 0 -4
BITMAP
0c00
0c00
0000
7f80
6d80
4c80
0c00
0c00
0c00
0c00
0c00
0c00
0c00
0c00
0000
0000
0000
0000
ENDCHAR
STARTCHAR LtCapWDot
ENCODING 329
SWIDTH 1080 0
DWIDTH 9 0
BBX 9 18 0 -4
BITMAP
0c00
0c00
0000
6080
6080
6080
6480
6480
6e80
7f80
3700
3300
3300
3300
0000
0000
0000
0000
ENDCHAR
STARTCHAR LtCapXDot
ENCODING 330
SWIDTH 1080 0
DWIDTH 9 0
BBX 9 18 0 -4
BITMAP
0c00
0c00
0000
6300
6300
3200
3400
1c00
0800
1c00
1600
2600
6300
6300
0000
0000
0000
0000
ENDCHAR
STARTCHAR LtCapYDot
ENCODING 331
SWIDTH 1080 0
DWIDTH 9 0
BBX 9 18 0 -4
BITMAP
0c00
0c00
0000
6180
6100
3100
3200
1a00
1c00
0c00
0c00
0c00
0c00
0c00
0000
0000
0000
0000
ENDCHAR
STARTCHAR LtCapZDot
ENCODING 332
SWIDTH 1080 0
DWIDTH 9 0
BBX 9 18 0 -4
BITMAP
1800
1800
0000
7f00
6300
4600
0600
0c00
1800
1800
3000
3100
6300
7f00
0000
0000
0000
0000
ENDCHAR
STARTCHAR LtSmlADot
ENCODING 333
SWIDTH 1080 0
DWIDTH 9 0
BBX 9 18 0 -4
BITMAP
0000
0000
0c00
0c00
0000
0000
3e00
3300
0300
3f00
6300
6300
6700
3b00
0000
0000
0000
0000
ENDCHAR
STARTCHAR LtSmlBDot
ENCODING 334
SWIDTH 1080 0
DWIDTH 9 0
BBX 9 18 0 -4
BITMAP
1800
1800
0000
6000
6000
6000
6e00
7300
6300
6300
6300
6300
7300
6e00
0000
0000
0000
0000
ENDCHAR
STARTCHAR LtSmlCDot
ENCODING 335
SWIDTH 1080 0
DWIDTH 9 0
BBX 9 18 0 -4
BITMAP
0000
0000
0c00
0c00
0000
0000
1e00
3300
6000
6000
6000
6000
3300
1e00
0000
0000
0000
0000
ENDCHAR
STARTCHAR LtSmlDDot
ENCODING 336
SWIDTH 1080 0
DWIDTH 9 0
BBX 9 18 0 -4
BITMAP
0c00
0c00
0000
0300
0300
0300
3b00
6700
6300
6300
6300
6300
6700
3b00
0000
0000
0000
0000
ENDCHAR
STARTCHAR LtSmlEDot
ENCODING 337
SWIDTH 1080 0
DWIDTH 9 0
BBX 9 18 0 -4
BITMAP
0000
0000
0c00
0c00
0000
0000
1e00
3300
6300
7f00
6000
6000
3300
1e00
0000
0000
0000
0000
ENDCHAR
STARTCHAR LtSmlFDot
ENCODING 338
SWIDTH 1080 0
DWIDTH 9 0
BBX 9 18 0 -4
BITMAP
0600
0600
0000
0f00
1b00
1800
1800
7f00
1800
1800
1800
1800
1800
1800
0000
0000
0000
0000
ENDCHAR
STARTCHAR LtSmlGDot
ENCODING 339
SWIDTH 1080 0
DWIDTH 9 0
BBX 9 18 0 -4
BITMAP
0000
0000
1800
1800
0000
0000
3d00
6700
6600
6600
3c00
6000
3e00
3f00
6100
6300
3e00
0000
ENDCHAR
STARTCHAR LtSmlHDot
ENCODING 340
SWIDTH 1080 0
DWIDTH 9 0
BBX 9 18 0 -4
BITMAP
0c00
0c00
0000
6000
6000
6000
6e00
7300
6300
6300
6300
6300
6300
6300
0000
0000
0000
0000
ENDCHAR
STARTCHAR LtSmlMDot
ENCODING 341
SWIDTH 1080 0
DWIDTH 9 0
BBX 9 18 0 -4
BITMAP
0000
0000
1800
1800
0000
0000
5600
7f00
6b00
6b00
6b00
6b00
6b00
6b00
0000
0000
0000
0000
ENDCHAR
STARTCHAR LtSmlNDot
ENCODING 342
SWIDTH 1080 0
DWIDTH 9 0
BBX 9 18 0 -4
BITMAP
0000
0000
1800
1800
0000
0000
6e00
7300
6300
6300
6300
6300
6300
6300
0000
0000
0000
0000
ENDCHAR
STARTCHAR LtSmlODot
ENCODING 343
SWIDTH 1080 0
DWIDTH 9 0
BBX 9 18 0 -4
BITMAP
0000
0000
0c00
0c00
0000
0000
3e00
6300
6300
6300
6300
6300
6300
3e00
0000
0000
0000
0000
ENDCHAR
STARTCHAR LtSmlPDot
ENCODING 344
SWIDTH 1080 0
DWIDTH 9 0
BBX 9 18 0 -4
BITMAP
0000
0000
1800
1800
0000
0000
6e00
7300
6300
6300
6300
6300
7300
6e00
6000
6000
6000
0000
ENDCHAR
STARTCHAR LtSmlQDot
ENCODING 345
SWIDTH 1080 0
DWIDTH 9 0
BBX 9 18 0 -4
BITMAP
0000
0000
1800
1800
0000
0000
3b00
6700
6300
6300
6300
6300
6700
3b00
0300
0300
0300
0000
ENDCHAR
STARTCHAR LtSmlRDot
ENCODING 346
SWIDTH 1080 0
DWIDTH 9 0
BBX 9 18 0 -4
BITMAP
0000
0000
0c00
0c00
0000
0000
7700
3b00
3100
3000
3000
3000
3000
3000
0000
0000
0000
0000
ENDCHAR
STARTCHAR LtSmlSDot
ENCODING 347
SWIDTH 1080 0
DWIDTH 9 0
BBX 9 18 0 -4
BITMAP
0000
0000
0c00
0c00
0000
0000
3e00
6300
7000
3c00
0e00
0300
6300
3e00
0000
0000
0000
0000
ENDCHAR
STARTCHAR LtSmlTDot
ENCODING 348
SWIDTH 1080 0
DWIDTH 9 0
BBX 9 18 0 -4
BITMAP
0000
1800
1800
0000
1800
1800
7e00
1800
1800
1800
1800
1800
1b00
0e00
0000
0000
0000
0000
ENDCHAR
STARTCHAR LtSmlWDot
ENCODING 349
SWIDTH 1080 0
DWIDTH 9 0
BBX 9 18 0 -4
BITMAP
0000
0000
0c00
0c00
0000
0000
6080
6080
6480
6480
6e80
3f00
3300
3300
0000
0000
0000
0000
ENDCHAR
STARTCHAR LtSmlXDot
ENCODING 350
SWIDTH 1080 0
DWIDTH 9 0
BBX 9 18 0 -4
BITMAP
0000
0000
0c00
0c00
0000
0000
6300
7300
3400
1800
0c00
1600
6700
6300
0000
0000
0000
0000
ENDCHAR
STARTCHAR LtSmlYDot
ENCODING 351
SWIDTH 1080 0
DWIDTH 9 0
BBX 9 18 0 -4
BITMAP
0000
0000
0c00
0c00
0000
0000
6300
6300
3200
3200
1a00
1c00
0c00
0c00
0800
6800
7000
0000
ENDCHAR
STARTCHAR LtSmlZDot
ENCODING 352
SWIDTH 1080 0
DWIDTH 9 0
BBX 9 18 0 -4
BITMAP
0000
0000
1800
1800
0000
0000
7f00
6700
4600
0c00
1800
3100
7300
7f00
0000
0000
0000
0000
ENDCHAR
STARTCHAR LtSmlSLongDot
ENCODING 353
SWIDTH 1080 0
DWIDTH 9 0
BBX 9 18 0 -4
BITMAP
0600
0600
0000
0780
0d80
1800
1800
1800
1800
1800
1800
1800
1800
1800
0000
0000
0000
0000
ENDCHAR
STARTCHAR LtCapSAcuteDot
ENCODING 354
SWIDTH 1080 0
DWIDTH 9 0
BBX 9 18 0 -4
BITMAP
1800
1800
0700
0c00
3f00
6300
6100
3000
3c00
0e00
0300
4300
6300
7e00
0000
0000
0000
0000
ENDCHAR
STARTCHAR LtSmlSAcuteDot
ENCODING 355
SWIDTH 1080 0
DWIDTH 9 0
BBX 9 18 0 -4
BITMAP
0c00
0c00
0000
0600
0c00
0800
3e00
6300
7000
3c00
0e00
0300
6300
3e00
0000
0000
0000
0000
ENDCHAR
STARTCHAR LtCapSCaronDot
ENCODING 356
SWIDTH 1080 0
DWIDTH 9 0
BBX 9 18 0 -4
BITMAP
0c00
2d00
1200
0c00
3f00
6300
6100
3000
3c00
0e00
0300
4300
6300
7e00
0000
0000
0000
0000
ENDCHAR
STARTCHAR LtSmlSCaronDot
ENCODING 357
SWIDTH 1080 0
DWIDTH 9 0
BBX 9 18 0 -4
BITMAP
0c00
0c00
2100
1e00
0c00
0000
3e00
6300
7000
3c00
0e00
0300
6300
3e00
0000
0000
0000
0000
ENDCHAR
STARTCHAR LtSmlIDotless
ENCODING 358
SWIDTH 1080 0
DWIDTH 9 0
BBX 9 18 0 -4
BITMAP
0000
0000
0000
0000
0000
0000
1c00
0c00
0c00
0c00
0c00
0c00
0c00
3f00
0000
0000
0000
0000
ENDCHAR
STARTCHAR LtSmlJDotless
ENCODING 359
SWIDTH 1080 0
DWIDTH 9 0
BBX 9 18 0 -4
BITMAP
0000
0000
0000
0000
0000
0000
1e00
0600
0600
0600
0600
0600
0600
0600
6600
6600
3c00
0000
ENDCHAR
STARTCHAR LtCapADrss
ENCODING 360
SWIDTH 1080 0
DWIDTH 9 0
BBX 9 18 0 -4
BITMAP
3600
3600
0000
0800
1800
1c00
1c00
2c00
2600
2600
7e00
4300
4300
c300
0000
0000
0000
0000
ENDCHAR
STARTCHAR LtCapEDrss
ENCODING 361
SWIDTH 1080 0
DWIDTH 9 0
BBX 9 18 0 -4
BITMAP
3600
3600
0000
7f00
6300
6100
6000
6400
7c00
6400
6000
6100
6300
7f00
0000
0000
0000
0000
ENDCHAR
STARTCHAR LtCapHDrss
ENCODING 362
SWIDTH 1080 0
DWIDTH 9 0
BBX 9 18 0 -4
BITMAP
3600
3600
0000
6300
6300
6300
6300
6300
7f00
6300
6300
6300
6300
6300
0000
0000
0000
0000
ENDCHAR
STARTCHAR LtCapIDrss
ENCODING 363
SWIDTH 1080 0
DWIDTH 9 0
BBX 9 18 0 -4
BITMAP
3600
3600
0000
3f00
0c00
0c00
0c00
0c00
0c00
0c00
0c00
0c00
0c00
3f00
0000
0000
0000
0000
ENDCHAR
STARTCHAR LtCapNDrss
ENCODING 364
SWIDTH 1080 0
DWIDTH 9 0
BBX 9 18 0 -4
BITMAP
3600
3600
0000
6100
7100
7100
5900
5900
4d00
4d00
4700
4700
4300
4100
0000
0000
0000
0000
ENDCHAR
STARTCHAR LtCapODrss
ENCODING 365
SWIDTH 1080 0
DWIDTH 9 0
BBX 9 18 0 -4
BITMAP
3600
3600
0000
3e00
6300
6300
6300
6300
6300
6300
6300
6300
6300
3e00
0000
0000
0000
0000
ENDCHAR
STARTCHAR LtCapUDrss
ENCODING 366
SWIDTH 1080 0
DWIDTH 9 0
BBX 9 18 0 -4
BITMAP
3600
3600
0000
6300
6300
6300
6300
6300
6300
6300
6300
6300
6300
3e00
0000
0000
0000
0000
ENDCHAR
STARTCHAR LtCapWDrss
ENCODING 367
SWIDTH 1080 0
DWIDTH 9 0
BBX 9 18 0 -4
BITMAP
1b00
1b00
0000
6080
6080
6080
6480
6480
6e80
7f80
3700
3300
3300
3300
0000
0000
0000
0000
ENDCHAR
STARTCHAR LtCapXDrss
ENCODING 368
SWIDTH 1080 0
DWIDTH 9 0
BBX 9 18 0 -4
BITMAP
3600
3600
0000
6300
6300
3200
3400
1c00
0800
1c00
1600
2600
6300
6300
0000
0000
0000
0000
ENDCHAR
STARTCHAR LtCapYDrss
ENCODING 369
SWIDTH 1080 0
DWIDTH 9 0
BBX 9 18 0 -4
BITMAP
3600
3600
0000
6180
6100
3100
3200
1a00
1c00
0c00
0c00
0c00
0c00
0c00
0000
0000
0000
0000
ENDCHAR
STARTCHAR LtSmlADrss
ENCODING 370
SWIDTH 1080 0
DWIDTH 9 0
BBX 9 18 0 -4
BITMAP
0000
0000
0000
3600
3600
0000
3e00
3300
0300
3f00
6300
6300
6700
3b00
0000
0000
0000
0000
ENDCHAR
STARTCHAR LtSmlEDrss
ENCODING 371
SWIDTH 1080 0
DWIDTH 9 0
BBX 9 18 0 -4
BITMAP
0000
0000
0000
3600
3600
0000
1e00
3300
6300
7f00
6000
6000
3300
1e00
0000
0000
0000
0000
ENDCHAR
STARTCHAR LtSmlHDrss
ENCODING 372
SWIDTH 1080 0
DWIDTH 9 0
BBX 9 18 0 -4
BITMAP
3600
3600
0000
6000
6000
6000
6e00
7300
6300
6300
6300
6300
6300
6300
0000
0000
0000
0000
ENDCHAR
STARTCHAR LtSmlIDrss
ENCODING 373
SWIDTH 1080 0
DWIDTH 9 0
BBX 9 18 0 -4
BITMAP
0000
0000
0000
3600
3600
0000
1c00
0c00
0c00
0c00
0c00
0c00
0c00
3f00
0000
0000
0000
0000
ENDCHAR
STARTCHAR LtSmlNDrss
ENCODING 374
SWIDTH 1080 0
DWIDTH 9 0
BBX 9 18 0 -4
BITMAP
0000
0000
0000
3600
3600
0000
6e00
7300
6300
6300
6300
6300
6300
6300
0000
0000
0000
0000
ENDCHAR
STARTCHAR LtSmlODrss
ENCODING 375
SWIDTH 1080 0
DWIDTH 9 0
BBX 9 18 0 -4
BITMAP
0000
0000
0000
3600
3600
0000
3e00
6300
6300
6300
6300
6300
6300
3e00
0000
0000
0000
0000
ENDCHAR
STARTCHAR LtSmlTDrss
ENCODING 376
SWIDTH 1080 0
DWIDTH 9 0
BBX 9 18 0 -4
BITMAP
0000
3600
3600
0000
1800
1800
7e00
1800
1800
1800
1800
1800
1b00
0e00
0000
0000
0000
0000
ENDCHAR
STARTCHAR LtSmlUDrss
ENCODING 377
SWIDTH 1080 0
DWIDTH 9 0
BBX 9 18 0 -4
BITMAP
0000
0000
0000
3600
3600
0000
6300
6300
6300
6300
6300
6300
6700
3b00
0000
0000
0000
0000
ENDCHAR
STARTCHAR LtSmlWDrss
ENCODING 378
SWIDTH 1080 0
DWIDTH 9 0
BBX 9 18 0 -4
BITMAP
0000
0000
0000
1b00
1b00
0000
6080
6080
6480
6480
6e80
3f00
3300
3300
0000
0000
0000
0000
ENDCHAR
STARTCHAR LtSmlXDrss
ENCODING 379
SWIDTH 1080 0
DWIDTH 9 0
BBX 9 18 0 -4
BITMAP
0000
0000
0000
3600
3600
0000
6300
7300
3400
1800
0c00
1600
6700
6300
0000
0000
0000
0000
ENDCHAR
STARTCHAR LtSmlYDrss
ENCODING 380
SWIDTH 1080 0
DWIDTH 9 0
BBX 9 18 0 -4
BITMAP
0000
0000
0000
3600
3600
0000
6300
6300
3200
3200
1a00
1c00
0c00
0c00
0800
6800
7000
0000
ENDCHAR
STARTCHAR LtCapUMacronDrss
ENCODING 381
SWIDTH 1080 0
DWIDTH 9 0
BBX 9 18 0 -4
BITMAP
3600
3600
7f00
0000
6300
6300
6300
6300
6300
6300
6300
6300
6300
3e00
0000
0000
0000
0000
ENDCHAR
STARTCHAR LtSmlUMacronDrss
ENCODING 382
SWIDTH 1080 0
DWIDTH 9 0
BBX 9 18 0 -4
BITMAP
3600
3600
0000
3e00
3e00
0000
6300
6300
6300
6300
6300
6300
6700
3b00
0000
0000
0000
0000
ENDCHAR
STARTCHAR LtCapOTildeDrss
ENCODING 383
SWIDTH 1080 0
DWIDTH 9 0
BBX 9 18 0 -4
BITMAP
3600
3600
1a00
2c00
3e00
6300
6300
6300
6300
6300
6300
6300
6300
3e00
0000
0000
0000
0000
ENDCHAR
STARTCHAR LtSmlOTildeDrss
ENCODING 384
SWIDTH 1080 0
DWIDTH 9 0
BBX 9 18 0 -4
BITMAP
3600
3600
1100
3f00
2600
0000
3e00
6300
6300
6300
6300
6300
6300
3e00
0000
0000
0000
0000
ENDCHAR
STARTCHAR LtCapARing
ENCODING 385
SWIDTH 1080 0
DWIDTH 9 0
BBX 9 18 0 -4
BITMAP
1c00
3600
3600
1c00
0800
1c00
1c00
2c00
2600
2600
7e00
4300
4300
c300
0000
0000
0000
0000
ENDCHAR
STARTCHAR LtCapURing
ENCODING 386
SWIDTH 1080 0
DWIDTH 9 0
BBX 9 18 0 -4
BITMAP
1c00
3600
1c00
0000
6300
6300
6300
6300
6300
6300
6300
6300
6300
3e00
0000
0000
0000
0000
ENDCHAR
STARTCHAR LtSmlARing
ENCODING 387
SWIDTH 1080 0
DWIDTH 9 0
BBX 9 18 0 -4
BITMAP
0000
1c00
3600
3600
1c00
0000
3e00
3300
0300
3f00
6300
6300
6700
3b00
0000
0000
0000
0000
ENDCHAR
STARTCHAR LtSmlURing
ENCODING 388
SWIDTH 1080 0
DWIDTH 9 0
BBX 9 18 0 -4
BITMAP
0000
1c00
3600
3600
1c00
0000
6300
6300
6300
6300
6300
6300
6700
3b00
0000
0000
0000
0000
ENDCHAR
STARTCHAR LtSmlWRing
ENCODING 389
SWIDTH 1080 0
DWIDTH 9 0
BBX 9 18 0 -4
BITMAP
0000
0e00
1b00
1b00
0e00
0000
6080
6080
6480
6480
6e80
3f00
3300
3300
0000
0000
0000
0000
ENDCHAR
STARTCHAR LtSmlYRing
ENCODING 390
SWIDTH 1080 0
DWIDTH 9 0
BBX 9 18 0 -4
BITMAP
0000
1c00
3600
3600
1c00
0000
6300
6300
3200
3200
1a00
1c00
0c00
0c00
0800
6800
7000
0000
ENDCHAR
STARTCHAR LtSmlAHalfringr
ENCODING 391
SWIDTH 1080 0
DWIDTH 9 0
BBX 9 18 0 -4
BITMAP
0000
1800
0c00
0c00
1800
0000
3e00
3300
0300
3f00
6300
6300
6700
3b00
0000
0000
0000
0000
ENDCHAR
STARTCHAR LtCapAMacron
ENCODING 392
SWIDTH 1080 0
DWIDTH 9 0
BBX 9 18 0 -4
BITMAP
3e00
3e00
0000
0800
1800
1c00
1c00
2c00
2600
2600
7e00
4300
4300
c300
0000
0000
0000
0000
ENDCHAR
STARTCHAR LtCapEMacron
ENCODING 393
SWIDTH 1080 0
DWIDTH 9 0
BBX 9 18 0 -4
BITMAP
3e00
3e00
0000
7f00
6300
6100
6000
6400
7c00
6400
6000
6100
6300
7f00
0000
0000
0000
0000
ENDCHAR
STARTCHAR LtCapGMacron
ENCODING 394
SWIDTH 1080 0
DWIDTH 9 0
BBX 9 18 0 -4
BITMAP
3e00
3e00
0000
1f00
3300
6100
6000
6000
6700
6300
6300
6300
3300
1f00
0000
0000
0000
0000
ENDCHAR
STARTCHAR LtCapIMacron
ENCODING 395
SWIDTH 1080 0
DWIDTH 9 0
BBX 9 18 0 -4
BITMAP
3f00
3f00
0000
3f00
0c00
0c00
0c00
0c00
0c00
0c00
0c00
0c00
0c00
3f00
0000
0000
0000
0000
ENDCHAR
STARTCHAR LtCapNMacron
ENCODING 396
SWIDTH 1080 0
DWIDTH 9 0
BBX 9 18 0 -4
BITMAP
3e00
3e00
0000
6100
7100
7100
5900
5900
4d00
4d00
4700
4700
4300
4100
0000
0000
0000
0000
ENDCHAR
STARTCHAR LtCapOMacron
ENCODING 397
SWIDTH 1080 0
DWIDTH 9 0
BBX 9 18 0 -4
BITMAP
3e00
3e00
0000
3e00
6300
6300
6300
6300
6300
6300
6300
6300
6300
3e00
0000
0000
0000
0000
ENDCHAR
STARTCHAR LtCapUMacron
ENCODING 398
SWIDTH 1080 0
DWIDTH 9 0
BBX 9 18 0 -4
BITMAP
3e00
3e00
0000
6300
6300
6300
6300
6300
6300
6300
6300
6300
6300
3e00
0000
0000
0000
0000
ENDCHAR
STARTCHAR LtCapYMacron
ENCODING 399
SWIDTH 1080 0
DWIDTH 9 0
BBX 9 18 0 -4
BITMAP
3f00
3f00
0000
6180
6100
3100
3200
1a00
1c00
0c00
0c00
0c00
0c00
0c00
0000
0000
0000
0000
ENDCHAR
STARTCHAR LtSmlAMacron
ENCODING 400
SWIDTH 1080 0
DWIDTH 9 0
BBX 9 18 0 -4
BITMAP
0000
0000
0000
3e00
3e00
0000
3e00
3300
0300
3f00
6300
6300
6700
3b00
0000
0000
0000
0000
ENDCHAR
STARTCHAR LtSmlEMacron
ENCODING 401
SWIDTH 1080 0
DWIDTH 9 0
BBX 9 18 0 -4
BITMAP
0000
0000
0000
1e00
1e00
0000
1e00
3300
6300
7f00
6000
6000
3300
1e00
0000
0000
0000
0000
ENDCHAR
STARTCHAR LtSmlGMacron
ENCODING 402
SWIDTH 1080 0
DWIDTH 9 0
BBX 9 18 0 -4
BITMAP
0000
0000
0000
3e00
3e00
0000
3d00
6700
6600
6600
3c00
6000
3e00
3f00
6100
6300
3e00
0000
ENDCHAR
STARTCHAR LtSmlIMacron
ENCODING 403
SWIDTH 1080 0
DWIDTH 9 0
BBX 9 18 0 -4
BITMAP
0000
0000
0000
3e00
3e00
0000
1c00
0c00
0c00
0c00
0c00
0c00
0c00
3f00
0000
0000
0000
0000
ENDCHAR
STARTCHAR LtSmlNMacron
ENCODING 404
SWIDTH 1080 0
DWIDTH 9 0
BBX 9 18 0 -4
BITMAP
0000
0000
0000
3e00
3e00
0000
6e00
7300
6300
6300
6300
6300
6300
6300
0000
0000
0000
0000
ENDCHAR
STARTCHAR LtSmlOMacron
ENCODING 405
SWIDTH 1080 0
DWIDTH 9 0
BBX 9 18 0 -4
BITMAP
0000
0000
0000
3e00
3e00
0000
3e00
6300
6300
6300
6300
6300
6300
3e00
0000
0000
0000
0000
ENDCHAR
STARTCHAR LtSmlUMacron
ENCODING 406
SWIDTH 1080 0
DWIDTH 9 0
BBX 9 18 0 -4
BITMAP
0000
0000
0000
3e00
3e00
0000
6300
6300
6300
6300
6300
6300
6700
3b00
0000
0000
0000
0000
ENDCHAR
STARTCHAR LtSmlYMacron
ENCODING 407
SWIDTH 1080 0
DWIDTH 9 0
BBX 9 18 0 -4
BITMAP
0000
0000
0000
3e00
3e00
0000
6300
6300
3200
3200
1a00
1c00
0c00
0c00
0800
6800
7000
0000
ENDCHAR
STARTCHAR LtCapAEMacron
ENCODING 408
SWIDTH 1080 0
DWIDTH 9 0
BBX 9 18 0 -4
BITMAP
1f00
1f00
0000
0f80
0c80
1c80
1c00
2d00
2f00
2d00
7c00
4c80
4c80
cf80
0000
0000
0000
0000
ENDCHAR
STARTCHAR LtSmlAEMacron
ENCODING 409
SWIDTH 1080 0
DWIDTH 9 0
BBX 9 18 0 -4
BITMAP
0000
0000
0000
3e00
3e00
0000
3700
6d80
0d80
3f80
6c00
6c00
6d80
3700
0000
0000
0000
0000
ENDCHAR
STARTCHAR LtCapADotMacron
ENCODING 410
SWIDTH 1080 0
DWIDTH 9 0
BBX 9 18 0 -4
BITMAP
3e00
0800
1c00
0800
0800
1c00
1c00
2c00
2600
2600
7e00
4300
4300
c300
0000
0000
0000
0000
ENDCHAR
STARTCHAR LtCapODotMacron
ENCODING 411
SWIDTH 1080 0
DWIDTH 9 0
BBX 9 18 0 -4
BITMAP
3e00
0800
1c00
0800
3e00
6300
6300
6300
6300
6300
6300
6300
6300
3e00
0000
0000
0000
0000
ENDCHAR
STARTCHAR LtSmlADotMacron
ENCODING 412
SWIDTH 1080 0
DWIDTH 9 0
BBX 9 18 0 -4
BITMAP
3f00
3f00
0000
0c00
0c00
0000
3e00
3300
0300
3f00
6300
6300
6700
3b00
0000
0000
0000
0000
ENDCHAR
STARTCHAR LtSmlODotMacron
ENCODING 413
SWIDTH 1080 0
DWIDTH 9 0
BBX 9 18 0 -4
BITMAP
3f00
3f00
0000
0c00
0c00
0000
3e00
6300
6300
6300
6300
6300
6300
3e00
0000
0000
0000
0000
ENDCHAR
STARTCHAR LtCapADrssMacron
ENCODING 414
SWIDTH 1080 0
DWIDTH 9 0
BBX 9 18 0 -4
BITMAP
7f00
3600
3600
0000
1800
1c00
1c00
2c00
2600
2600
7e00
4300
4300
c300
0000
0000
0000
0000
ENDCHAR
STARTCHAR LtCapODrssMacron
ENCODING 415
SWIDTH 1080 0
DWIDTH 9 0
BBX 9 18 0 -4
BITMAP
7f00
3600
3600
0000
3e00
6300
6300
6300
6300
6300
6300
6300
6300
3e00
0000
0000
0000
0000
ENDCHAR
STARTCHAR LtCapUDrssMacron
ENCODING 416
SWIDTH 1080 0
DWIDTH 9 0
BBX 9 18 0 -4
BITMAP
7f00
3600
3600
0000
6300
6300
6300
6300
6300
6300
6300
6300
6300
3e00
0000
0000
0000
0000
ENDCHAR
STARTCHAR LtSmlADrssMacron
ENCODING 417
SWIDTH 1080 0
DWIDTH 9 0
BBX 9 18 0 -4
BITMAP
3e00
3e00
0000
3600
3600
0000
3e00
3300
0300
3f00
6300
6300
6700
3b00
0000
0000
0000
0000
ENDCHAR
STARTCHAR LtSmlODrssMacron
ENCODING 418
SWIDTH 1080 0
DWIDTH 9 0
BBX 9 18 0 -4
BITMAP
3e00
3e00
0000
3600
3600
0000
3e00
6300
6300
6300
6300
6300
6300
3e00
0000
0000
0000
0000
ENDCHAR
STARTCHAR LtSmlUDrssMacron
ENCODING 419
SWIDTH 1080 0
DWIDTH 9 0
BBX 9 18 0 -4
BITMAP
3e00
3e00
0000
3600
3600
0000
6300
6300
6300
6300
6300
6300
6700
3b00
0000
0000
0000
0000
ENDCHAR
STARTCHAR LtCapOTildeMacron
ENCODING 420
SWIDTH 1080 0
DWIDTH 9 0
BBX 9 18 0 -4
BITMAP
3e00
1200
3e00
2400
3e00
6300
6300
6300
6300
6300
6300
6300
6300
3e00
0000
0000
0000
0000
ENDCHAR
STARTCHAR LtSmlOTildeMacron
ENCODING 421
SWIDTH 1080 0
DWIDTH 9 0
BBX 9 18 0 -4
BITMAP
3e00
3e00
1200
3e00
2400
0000
3e00
6300
6300
6300
6300
6300
6300
3e00
0000
0000
0000
0000
ENDCHAR
STARTCHAR LtCapAAcute
ENCODING 422
SWIDTH 1080 0
DWIDTH 9 0
BBX 9 18 0 -4
BITMAP
0e00
1800
0000
0800
1800
1c00
1c00
2c00
2600
2600
7e00
4300
4300
c300
0000
0000
0000
0000
ENDCHAR
STARTCHAR LtCapCAcute
ENCODING 423
SWIDTH 1080 0
DWIDTH 9 0
BBX 9 18 0 -4
BITMAP
0700
0c00
0000
1f00
3300
6100
6000
6000
6000
6000
6000
6000
3300
1e00
0000
0000
0000
0000
ENDCHAR
STARTCHAR LtCapEAcute
ENCODING 424
SWIDTH 1080 0
DWIDTH 9 0
BBX 9 18 0 -4
BITMAP
0e00
1800
0000
7f00
6300
6100
6000
6400
7c00
6400
6000
6100
6300
7f00
0000
0000
0000
0000
ENDCHAR
STARTCHAR LtCapGAcute
ENCODING 425
SWIDTH 1080 0
DWIDTH 9 0
BBX 9 18 0 -4
BITMAP
0e00
1800
0000
1f00
3300
6100
6000
6000
6700
6300
6300
6300
3300
1f00
0000
0000
0000
0000
ENDCHAR
STARTCHAR LtCapIAcute
ENCODING 426
SWIDTH 1080 0
DWIDTH 9 0
BBX 9 18 0 -4
BITMAP
0700
0c00
0000
3f00
0c00
0c00
0c00
0c00
0c00
0c00
0c00
0c00
0c00
3f00
0000
0000
0000
0000
ENDCHAR
STARTCHAR LtCapKAcute
ENCODING 427
SWIDTH 1080 0
DWIDTH 9 0
BBX 9 18 0 -4
BITMAP
0700
0c00
0000
6300
6200
6600
6400
6800
7c00
7c00
6600
6600
6300
6300
0000
0000
0000
0000
ENDCHAR
STARTCHAR LtCapLAcute
ENCODING 428
SWIDTH 1080 0
DWIDTH 9 0
BBX 9 18 0 -4
BITMAP
0e00
1800
0000
6000
6000
6000
6000
6000
6000
6000
6000
6100
6300
7f00
0000
0000
0000
0000
ENDCHAR
STARTCHAR LtCapMAcute
ENCODING 429
SWIDTH 1080 0
DWIDTH 9 0
BBX 9 18 0 -4
BITMAP
0700
0c00
0000
6300
6300
7700
7700
7f00
5b00
5b00
4300
4300
4300
4300
0000
0000
0000
0000
ENDCHAR
STARTCHAR LtCapNAcute
ENCODING 430
SWIDTH 1080 0
DWIDTH 9 0
BBX 9 18 0 -4
BITMAP
0700
0c00
0000
6100
7100
7100
5900
5900
4d00
4d00
4700
4700
4300
4100
0000
0000
0000
0000
ENDCHAR
STARTCHAR LtCapOAcute
ENCODING 431
SWIDTH 1080 0
DWIDTH 9 0
BBX 9 18 0 -4
BITMAP
0700
0c00
0000
3e00
6300
6300
6300
6300
6300
6300
6300
6300
6300
3e00
0000
0000
0000
0000
ENDCHAR
STARTCHAR LtCapPAcute
ENCODING 432
SWIDTH 1080 0
DWIDTH 9 0
BBX 9 18 0 -4
BITMAP
0e00
1800
0000
7e00
6300
6300
6300
6300
7e00
6000
6000
6000
6000
6000
0000
0000
0000
0000
ENDCHAR
STARTCHAR LtCapRAcute
ENCODING 433
SWIDTH 1080 0
DWIDTH 9 0
BBX 9 18 0 -4
BITMAP
0e00
1800
0000
7e00
6300
6300
6300
6300
7e00
6c00
6600
6600
6300
6300
0000
0000
0000
0000
ENDCHAR
STARTCHAR LtCapSAcute
ENCODING 434
SWIDTH 1080 0
DWIDTH 9 0
BBX 9 18 0 -4
BITMAP
0700
0c00
0000
3f00
6300
6100
6000
3800
1e00
0600
0300
4300
6300
7e00
0000
0000
0000
0000
ENDCHAR
STARTCHAR LtCapUAcute
ENCODING 435
SWIDTH 1080 0
DWIDTH 9 0
BBX 9 18 0 -4
BITMAP
0700
0c00
0000
6300
6300
6300
6300
6300
6300
6300
6300
6300
6300
3e00
0000
0000
0000
0000
ENDCHAR
STARTCHAR LtCapWAcute
ENCODING 436
SWIDTH 1080 0
DWIDTH 9 0
BBX 9 18 0 -4
BITMAP
0700
0c00
0000
6080
6080
6080
6480
6480
6e80
7f80
3700
3300
3300
3300
0000
0000
0000
0000
ENDCHAR
STARTCHAR LtCapYAcute
ENCODING 437
SWIDTH 1080 0
DWIDTH 9 0
BBX 9 18 0 -4
BITMAP
0700
0c00
0000
6180
6100
3100
3200
1a00
1c00
0c00
0c00
0c00
0c00
0c00
0000
0000
0000
0000
ENDCHAR
STARTCHAR LtCapZAcute
ENCODING 438
SWIDTH 1080 0
DWIDTH 9 0
BBX 9 18 0 -4
BITMAP
0700
0c00
0000
7f00
6300
4600
0600
0c00
1800
1800
3000
3100
6300
7f00
0000
0000
0000
0000
ENDCHAR
STARTCHAR LtCapEpsAcute
ENCODING 439
SWIDTH 1080 0
DWIDTH 9 0
BBX 9 18 0 -4
BITMAP
0e00
1800
0000
3e00
6300
6000
6000
2000
3c00
6000
6000
6000
6300
3e00
0000
0000
0000
0000
ENDCHAR
STARTCHAR LtCapERevAcute
ENCODING 440
SWIDTH 1080 0
DWIDTH 9 0
BBX 9 18 0 -4
BITMAP
0e00
1800
0000
7f00
6300
4300
0300
1300
1f00
1300
0300
4300
6300
7f00
0000
0000
0000
0000
ENDCHAR
STARTCHAR LtCapCTrndAcute
ENCODING 441
SWIDTH 1080 0
DWIDTH 9 0
BBX 9 18 0 -4
BITMAP
0e00
1800
0000
3c00
6600
0300
0300
0300
0300
0300
0300
0300
6600
3c00
0000
0000
0000
0000
ENDCHAR
STARTCHAR LtSmlAAcute
ENCODING 442
SWIDTH 1080 0
DWIDTH 9 0
BBX 9 18 0 -4
BITMAP
0000
0000
0600
0c00
0800
0000
3e00
3300
0300
3f00
6300
6300
6700
3b00
0000
0000
0000
0000
ENDCHAR
STARTCHAR LtSmlCAcute
ENCODING 443
SWIDTH 1080 0
DWIDTH 9 0
BBX 9 18 0 -4
BITMAP
0000
0000
0600
0c00
0800
0000
1e00
3300
6000
6000
6000
6000
3300
1e00
0000
0000
0000
0000
ENDCHAR
STARTCHAR LtSmlEAcute
ENCODING 444
SWIDTH 1080 0
DWIDTH 9 0
BBX 9 18 0 -4
BITMAP
0000
0000
0600
0c00
0800
0000
1e00
3300
6300
7f00
6000
6000
3300
1e00
0000
0000
0000
0000
ENDCHAR
STARTCHAR LtSmlGAcute
ENCODING 445
SWIDTH 1080 0
DWIDTH 9 0
BBX 9 18 0 -4
BITMAP
0000
0000
0600
0c00
0800
0000
3d00
6700
6600
6600
3c00
6000
3e00
3f00
6100
6300
3e00
0000
ENDCHAR
STARTCHAR LtSmlIAcute
ENCODING 446
SWIDTH 1080 0
DWIDTH 9 0
BBX 9 18 0 -4
BITMAP
0000
0000
0600
0c00
0800
0000
1c00
0c00
0c00
0c00
0c00
0c00
0c00
3f00
0000
0000
0000
0000
ENDCHAR
STARTCHAR LtSmlKAcute
ENCODING 447
SWIDTH 1080 0
DWIDTH 9 0
BBX 9 18 0 -4
BITMAP
1c00
3000
0000
6000
6000
6000
6300
6200
6400
6c00
7c00
6600
6300
6300
0000
0000
0000
0000
ENDCHAR
STARTCHAR LtSmlLAcute
ENCODING 448
SWIDTH 1080 0
DWIDTH 9 0
BBX 9 18 0 -4
BITMAP
0700
0c00
0000
1c00
0c00
0c00
0c00
0c00
0c00
0c00
0c00
0c00
0c00
3f00
0000
0000
0000
0000
ENDCHAR
STARTCHAR LtSmlMAcute
ENCODING 449
SWIDTH 1080 0
DWIDTH 9 0
BBX 9 18 0 -4
BITMAP
0000
0000
0600
0c00
0800
0000
5600
7f00
6b00
6b00
6b00
6b00
6b00
6b00
0000
0000
0000
0000
ENDCHAR
STARTCHAR LtSmlNAcute
ENCODING 450
SWIDTH 1080 0
DWIDTH 9 0
BBX 9 18 0 -4
BITMAP
0000
0000
0600
0c00
0800
0000
6e00
7300
6300
6300
6300
6300
6300
6300
0000
0000
0000
0000
ENDCHAR
STARTCHAR LtSmlOAcute
ENCODING 451
SWIDTH 1080 0
DWIDTH 9 0
BBX 9 18 0 -4
BITMAP
0000
0000
0600
0c00
0800
0000
3e00
6300
6300
6300
6300
6300
6300
3e00
0000
0000
0000
0000
ENDCHAR
STARTCHAR LtSmlPAcute
ENCODING 452
SWIDTH 1080 0
DWIDTH 9 0
BBX 9 18 0 -4
BITMAP
0000
0000
0600
0c00
0800
0000
6e00
7300
6300
6300
6300
6300
7300
6e00
6000
6000
6000
0000
ENDCHAR
STARTCHAR LtSmlRAcute
ENCODING 453
SWIDTH 1080 0
DWIDTH 9 0
BBX 9 18 0 -4
BITMAP
0000
0000
0600
0c00
0800
0000
7700
3b00
3100
3000
3000
3000
3000
3000
0000
0000
0000
0000
ENDCHAR
STARTCHAR LtSmlSAcute
ENCODING 454
SWIDTH 1080 0
DWIDTH 9 0
BBX 9 18 0 -4
BITMAP
0000
0000
0600
0c00
0800
0000
3e00
6300
7000
3c00
0e00
0300
6300
3e00
0000
0000
0000
0000
ENDCHAR
STARTCHAR LtSmlUAcute
ENCODING 455
SWIDTH 1080 0
DWIDTH 9 0
BBX 9 18 0 -4
BITMAP
0000
0000
0600
0c00
0800
0000
6300
6300
6300
6300
6300
6300
6700
3b00
0000
0000
0000
0000
ENDCHAR
STARTCHAR LtSmlWAcute
ENCODING 456
SWIDTH 1080 0
DWIDTH 9 0
BBX 9 18 0 -4
BITMAP
0000
0000
0300
0600
0400
0000
6080
6080
6480
6480
6e80
3f00
3300
3300
0000
0000
0000
0000
ENDCHAR
STARTCHAR LtSmlYAcute
ENCODING 457
SWIDTH 1080 0
DWIDTH 9 0
BBX 9 18 0 -4
BITMAP
0000
0000
0600
0c00
0800
0000
6300
6300
3200
3200
1a00
1c00
0c00
0c00
0800
6800
7000
0000
ENDCHAR
STARTCHAR LtSmlZAcute
ENCODING 458
SWIDTH 1080 0
DWIDTH 9 0
BBX 9 18 0 -4
BITMAP
0000
0000
0600
0c00
0800
0000
7f00
6700
4600
0c00
1800
3100
7300
7f00
0000
0000
0000
0000
ENDCHAR
STARTCHAR LtSmlEpsAcute
ENCODING 459
SWIDTH 1080 0
DWIDTH 9 0
BBX 9 18 0 -4
BITMAP
0000
0000
0600
0c00
0800
0000
3e00
6300
6000
3800
6000
6000
6300
3e00
0000
0000
0000
0000
ENDCHAR
STARTCHAR LtSmlSchwaAcute
ENCODING 460
SWIDTH 1080 0
DWIDTH 9 0
BBX 9 18 0 -4
BITMAP
0000
0000
0c00
1800
1000
0000
3c00
6600
0300
0300
7f00
6300
6600
3c00
0000
0000
0000
0000
ENDCHAR
STARTCHAR LtSmlCTrndAcute
ENCODING 461
SWIDTH 1080 0
DWIDTH 9 0
BBX 9 18 0 -4
BITMAP
0000
0000
0600
0c00
0800
0000
3c00
6600
0300
0300
0300
0300
6600
3c00
0000
0000
0000
0000
ENDCHAR
STARTCHAR LtCapAEAcute
ENCODING 462
SWIDTH 1080 0
DWIDTH 9 0
BBX 9 18 0 -4
BITMAP
0700
0c00
0000
0f80
0c80
1c80
1c00
2d00
2f00
2d00
7c00
4c80
4c80
cf80
0000
0000
0000
0000
ENDCHAR
STARTCHAR LtSmlAEAcute
ENCODING 463
SWIDTH 1080 0
DWIDTH 9 0
BBX 9 18 0 -4
BITMAP
0000
0000
0600
0c00
0800
0000
3700
6d80
0d80
3f80
6c00
6c00
6d80
3700
0000
0000
0000
0000
ENDCHAR
STARTCHAR LtCapOStrokeAcute
ENCODING 464
SWIDTH 1080 0
DWIDTH 9 0
BBX 9 18 0 -4
BITMAP
0e00
1800
0100
3e00
6300
6700
6700
6b00
6b00
6b00
7300
7300
6300
3e00
4000
0000
0000
0000
ENDCHAR
STARTCHAR LtSmlOStrokeAcute
ENCODING 465
SWIDTH 1080 0
DWIDTH 9 0
BBX 9 18 0 -4
BITMAP
0000
0000
0600
0c00
0800
0100
3e00
6300
6700
6b00
6b00
7300
6300
3e00
4000
0000
0000
0000
ENDCHAR
STARTCHAR LtCapOHornAcute
ENCODING 466
SWIDTH 1080 0
DWIDTH 9 0
BBX 9 18 0 -4
BITMAP
1800
3380
0180
3f00
6300
6300
6300
6300
6300
6300
6300
6300
6300
3e00
0000
0000
0000
0000
ENDCHAR
STARTCHAR LtCapUHornAcute
ENCODING 467
SWIDTH 1080 0
DWIDTH 9 0
BBX 9 18 0 -4
BITMAP
1800
3380
0180
6300
6300
6300
6300
6300
6300
6300
6300
6300
6300
3e00
0000
0000
0000
0000
ENDCHAR
STARTCHAR LtSmlOHornAcute
ENCODING 468
SWIDTH 1080 0
DWIDTH 9 0
BBX 9 18 0 -4
BITMAP
0000
0000
0c00
1800
1380
0180
3f00
6300
6300
6300
6300
6300
6300
3e00
0000
0000
0000
0000
ENDCHAR
STARTCHAR LtSmlUHornAcute
ENCODING 469
SWIDTH 1080 0
DWIDTH 9 0
BBX 9 18 0 -4
BITMAP
0000
0000
0c00
1800
1380
0180
6300
6300
6300
6300
6300
6300
6700
3b00
0000
0000
0000
0000
ENDCHAR
STARTCHAR LtCapIDrssAcute
ENCODING 470
SWIDTH 1080 0
DWIDTH 9 0
BBX 9 18 0 -4
BITMAP
0e00
5900
6300
0000
3f00
0c00
0c00
0c00
0c00
0c00
0c00
0c00
0c00
3f00
0000
0000
0000
0000
ENDCHAR
STARTCHAR LtCapUDrssAcute
ENCODING 471
SWIDTH 1080 0
DWIDTH 9 0
BBX 9 18 0 -4
BITMAP
0e00
5900
6300
0000
6300
6300
6300
6300
6300
6300
6300
6300
6300
3e00
0000
0000
0000
0000
ENDCHAR
STARTCHAR LtSmlIDrssAcute
ENCODING 472
SWIDTH 1080 0
DWIDTH 9 0
BBX 9 18 0 -4
BITMAP
0e00
1800
0000
3600
3600
0000
1c00
0c00
0c00
0c00
0c00
0c00
0c00
3f00
0000
0000
0000
0000
ENDCHAR
STARTCHAR LtSmlUDrssAcute
ENCODING 473
SWIDTH 1080 0
DWIDTH 9 0
BBX 9 18 0 -4
BITMAP
0e00
1800
0000
3600
3600
0000
6300
6300
6300
6300
6300
6300
6700
3b00
0000
0000
0000
0000
ENDCHAR
STARTCHAR LtCapARingAcute
ENCODING 474
SWIDTH 1080 0
DWIDTH 9 0
BBX 9 18 0 -4
BITMAP
0700
0c00
1c00
3600
1c00
0800
1800
1c00
2c00
2600
3e00
6600
4300
c300
0000
0000
0000
0000
ENDCHAR
STARTCHAR LtSmlARingAcute
ENCODING 475
SWIDTH 1080 0
DWIDTH 9 0
BBX 9 18 0 -4
BITMAP
0700
0c00
1c00
3600
1c00
0000
3e00
3300
0300
3f00
6300
6300
6700
3b00
0000
0000
0000
0000
ENDCHAR
STARTCHAR LtCapEMacronAcute
ENCODING 476
SWIDTH 1080 0
DWIDTH 9 0
BBX 9 18 0 -4
BITMAP
0c00
1800
3e00
0000
7f00
6300
6000
6400
7c00
6400
6000
6100
6300
7f00
0000
0000
0000
0000
ENDCHAR
STARTCHAR LtCapOMacronAcute
ENCODING 477
SWIDTH 1080 0
DWIDTH 9 0
BBX 9 18 0 -4
BITMAP
0c00
1800
3e00
0000
3e00
6300
6300
6300
6300
6300
6300
6300
6300
3e00
0000
0000
0000
0000
ENDCHAR
STARTCHAR LtSmlAMacronAcute
ENCODING 478
SWIDTH 1080 0
DWIDTH 9 0
BBX 9 18 0 -4
BITMAP
0e00
1800
0000
3e00
3e00
0000
3e00
3300
0300
3f00
6300
6300
6700
3b00
0000
0000
0000
0000
ENDCHAR
STARTCHAR LtSmlEMacronAcute
ENCODING 479
SWIDTH 1080 0
DWIDTH 9 0
BBX 9 18 0 -4
BITMAP
0e00
1800
0000
3e00
3e00
0000
1e00
3300
6300
7f00
6000
6000
3300
1e00
0000
0000
0000
0000
ENDCHAR
STARTCHAR LtSmlIMacronAcute
ENCODING 480
SWIDTH 1080 0
DWIDTH 9 0
BBX 9 18 0 -4
BITMAP
0e00
1800
0000
3e00
3e00
0000
1c00
0c00
0c00
0c00
0c00
0c00
0c00
3f00
0000
0000
0000
0000
ENDCHAR
STARTCHAR LtSmlOMacronAcute
ENCODING 481
SWIDTH 1080 0
DWIDTH 9 0
BBX 9 18 0 -4
BITMAP
0e00
1800
0000
3e00
3e00
0000
3e00
6300
6300
6300
6300
6300
6300
3e00
0000
0000
0000
0000
ENDCHAR
STARTCHAR LtSmlUMacronAcute
ENCODING 482
SWIDTH 1080 0
DWIDTH 9 0
BBX 9 18 0 -4
BITMAP
0e00
1800
0000
3e00
3e00
0000
6300
6300
6300
6300
6300
6300
6700
3b00
0000
0000
0000
0000
ENDCHAR
STARTCHAR LtCapACircumAcute
ENCODING 483
SWIDTH 1080 0
DWIDTH 9 0
BBX 9 18 0 -4
BITMAP
0180
0300
1a00
3c00
2400
0800
1800
1c00
2c00
2600
3e00
6600
4300
c300
0000
0000
0000
0000
ENDCHAR
STARTCHAR LtCapECircumAcute
ENCODING 484
SWIDTH 1080 0
DWIDTH 9 0
BBX 9 18 0 -4
BITMAP
0180
0300
1a00
3c00
2400
7f00
6300
6000
6400
7c00
6400
6000
6300
7f00
0000
0000
0000
0000
ENDCHAR
STARTCHAR LtCapOCircumAcute
ENCODING 485
SWIDTH 1080 0
DWIDTH 9 0
BBX 9 18 0 -4
BITMAP
0180
0300
1a00
3c00
2400
3e00
6300
6300
6300
6300
6300
6300
6300
3e00
0000
0000
0000
0000
ENDCHAR
STARTCHAR LtSmlACircumAcute
ENCODING 486
SWIDTH 1080 0
DWIDTH 9 0
BBX 9 18 0 -4
BITMAP
0180
0300
1a00
3c00
2400
0000
3e00
3300
0300
3f00
6300
6300
6700
3b00
0000
0000
0000
0000
ENDCHAR
STARTCHAR LtSmlECircumAcute
ENCODING 487
SWIDTH 1080 0
DWIDTH 9 0
BBX 9 18 0 -4
BITMAP
0180
0300
1a00
3c00
2400
0000
1e00
3300
6300
7f00
6000
6000
3300
1e00
0000
0000
0000
0000
ENDCHAR
STARTCHAR LtSmlOCircumAcute
ENCODING 488
SWIDTH 1080 0
DWIDTH 9 0
BBX 9 18 0 -4
BITMAP
0180
0300
1a00
3c00
2400
0000
3e00
6300
6300
6300
6300
6300
6300
3e00
0000
0000
0000
0000
ENDCHAR
STARTCHAR LtCapABreveAcute
ENCODING 489
SWIDTH 1080 0
DWIDTH 9 0
BBX 9 18 0 -4
BITMAP
0600
0c00
0800
6300
3e00
0800
1800
1c00
2c00
2600
3e00
6600
4300
c300
0000
0000
0000
0000
ENDCHAR
STARTCHAR LtSmlABreveAcute
ENCODING 490
SWIDTH 1080 0
DWIDTH 9 0
BBX 9 18 0 -4
BITMAP
0600
0c00
0800
6300
3e00
0000
3e00
3300
0300
3f00
6300
6300
6700
3b00
0000
0000
0000
0000
ENDCHAR
STARTCHAR LtCapOTildeAcute
ENCODING 491
SWIDTH 1080 0
DWIDTH 9 0
BBX 9 18 0 -4
BITMAP
0c00
1900
2e00
0000
3e00
6300
6300
6300
6300
6300
6300
6300
6300
3e00
0000
0000
0000
0000
ENDCHAR
STARTCHAR LtCapUTildeAcute
ENCODING 492
SWIDTH 1080 0
DWIDTH 9 0
BBX 9 18 0 -4
BITMAP
0c00
1900
2e00
0000
6300
6300
6300
6300
6300
6300
6300
6300
6300
3e00
0000
0000
0000
0000
ENDCHAR
STARTCHAR LtSmlOTildeAcute
ENCODING 493
SWIDTH 1080 0
DWIDTH 9 0
BBX 9 18 0 -4
BITMAP
0c00
1800
1200
3e00
2400
0000
3e00
6300
6300
6300
6300
6300
6300
3e00
0000
0000
0000
0000
ENDCHAR
STARTCHAR LtSmlUTildeAcute
ENCODING 494
SWIDTH 1080 0
DWIDTH 9 0
BBX 9 18 0 -4
BITMAP
0c00
1800
1200
3e00
2400
0000
6300
6300
6300
6300
6300
6300
6700
3b00
0000
0000
0000
0000
ENDCHAR
STARTCHAR LtCapOAcute2
ENCODING 495
SWIDTH 1080 0
DWIDTH 9 0
BBX 9 18 0 -4
BITMAP
1b00
3600
2400
0000
3e00
6300
6300
6300
6300
6300
6300
6300
6300
3e00
0000
0000
0000
0000
ENDCHAR
STARTCHAR LtCapUAcute2
ENCODING 496
SWIDTH 1080 0
DWIDTH 9 0
BBX 9 18 0 -4
BITMAP
1b00
3600
2400
0000
6300
6300
6300
6300
6300
6300
6300
6300
6300
3e00
0000
0000
0000
0000
ENDCHAR
STARTCHAR LtSmlOAcute2
ENCODING 497
SWIDTH 1080 0
DWIDTH 9 0
BBX 9 18 0 -4
BITMAP
0000
0000
1b00
3600
2400
0000
3e00
6300
6300
6300
6300
6300
6300
3e00
0000
0000
0000
0000
ENDCHAR
STARTCHAR LtSmlUAcute2
ENCODING 498
SWIDTH 1080 0
DWIDTH 9 0
BBX 9 18 0 -4
BITMAP
0000
0000
1b00
3600
2400
0000
6300
6300
6300
6300
6300
6300
6700
3b00
0000
0000
0000
0000
ENDCHAR
STARTCHAR LtCapAGrave
ENCODING 499
SWIDTH 1080 0
DWIDTH 9 0
BBX 9 18 0 -4
BITMAP
7000
1800
0000
0800
1800
1c00
1c00
2c00
2600
2600
7e00
4300
4300
c300
0000
0000
0000
0000
ENDCHAR
STARTCHAR LtCapEGrave
ENCODING 500
SWIDTH 1080 0
DWIDTH 9 0
BBX 9 18 0 -4
BITMAP
3800
0c00
0000
7f00
6300
6100
6000
6400
7c00
6400
6000
6100
6300
7f00
0000
0000
0000
0000
ENDCHAR
STARTCHAR LtCapIGrave
ENCODING 501
SWIDTH 1080 0
DWIDTH 9 0
BBX 9 18 0 -4
BITMAP
3800
0c00
0000
3f00
0c00
0c00
0c00
0c00
0c00
0c00
0c00
0c00
0c00
3f00
0000
0000
0000
0000
ENDCHAR
STARTCHAR LtCapNGrave
ENCODING 502
SWIDTH 1080 0
DWIDTH 9 0
BBX 9 18 0 -4
BITMAP
3800
0c00
0000
6100
7100
7100
5900
5900
4d00
4d00
4700
4700
4300
4100
0000
0000
0000
0000
ENDCHAR
STARTCHAR LtCapOGrave
ENCODING 503
SWIDTH 1080 0
DWIDTH 9 0
BBX 9 18 0 -4
BITMAP
3800
0c00
0000
3e00
6300
6300
6300
6300
6300
6300
6300
6300
6300
3e00
0000
0000
0000
0000
ENDCHAR
STARTCHAR LtCapUGrave
ENCODING 504
SWIDTH 1080 0
DWIDTH 9 0
BBX 9 18 0 -4
BITMAP
3800
0c00
0000
6300
6300
6300
6300
6300
6300
6300
6300
6300
6300
3e00
0000
0000
0000
0000
ENDCHAR
STARTCHAR LtCapWGrave
ENCODING 505
SWIDTH 1080 0
DWIDTH 9 0
BBX 9 18 0 -4
BITMAP
3800
0c00
0000
6080
6080
6080
6480
6480
6e80
7f80
3700
3300
3300
3300
0000
0000
0000
0000
ENDCHAR
STARTCHAR LtCapYGrave
ENCODING 506
SWIDTH 1080 0
DWIDTH 9 0
BBX 9 18 0 -4
BITMAP
3800
0c00
0000
6180
6100
3100
3200
1a00
1c00
0c00
0c00
0c00
0c00
0c00
0000
0000
0000
0000
ENDCHAR
STARTCHAR LtCapEpsGrave
ENCODING 507
SWIDTH 1080 0
DWIDTH 9 0
BBX 9 18 0 -4
BITMAP
3800
0c00
0000
3e00
6300
6000
6000
2000
3c00
6000
6000
6000
6300
3e00
0000
0000
0000
0000
ENDCHAR
STARTCHAR LtCapCTrndGrave
ENCODING 508
SWIDTH 1080 0
DWIDTH 9 0
BBX 9 18 0 -4
BITMAP
3800
0c00
0000
3c00
6600
0300
0300
0300
0300
0300
0300
0300
6600
3c00
0000
0000
0000
0000
ENDCHAR
STARTCHAR LtSmlAGrave
ENCODING 509
SWIDTH 1080 0
DWIDTH 9 0
BBX 9 18 0 -4
BITMAP
0000
0000
1800
0c00
0400
0000
3e00
3300
0300
3f00
6300
6300
6700
3b00
0000
0000
0000
0000
ENDCHAR
STARTCHAR LtSmlEGrave
ENCODING 510
SWIDTH 1080 0
DWIDTH 9 0
BBX 9 18 0 -4
BITMAP
0000
0000
1800
0c00
0400
0000
1e00
3300
6300
7f00
6000
6000
3300
1e00
0000
0000
0000
0000
ENDCHAR
STARTCHAR LtSmlIGrave
ENCODING 511
SWIDTH 1080 0
DWIDTH 9 0
BBX 9 18 0 -4
BITMAP
0000
0000
1800
0c00
0400
0000
1c00
0c00
0c00
0c00
0c00
0c00
0c00
3f00
0000
0000
0000
0000
ENDCHAR
STARTCHAR LtSmlNGrave
ENCODING 512
SWIDTH 1080 0
DWIDTH 9 0
BBX 9 18 0 -4
BITMAP
0000
0000
3000
1800
0800
0000
6e00
7300
6300
6300
6300
6300
6300
6300
0000
0000
0000
0000
ENDCHAR
STARTCHAR LtSmlOGrave
ENCODING 513
SWIDTH 1080 0
DWIDTH 9 0
BBX 9 18 0 -4
BITMAP
0000
0000
3000
1800
0800
0000
3e00
6300
6300
6300
6300
6300
6300
3e00
0000
0000
0000
0000
ENDCHAR
STARTCHAR LtSmlUGrave
ENCODING 514
SWIDTH 1080 0
DWIDTH 9 0
BBX 9 18 0 -4
BITMAP
0000
0000
3000
1800
0800
0000
6300
6300
6300
6300
6300
6300
6700
3b00
0000
0000
0000
0000
ENDCHAR
STARTCHAR LtSmlWGrave
ENCODING 515
SWIDTH 1080 0
DWIDTH 9 0
BBX 9 18 0 -4
BITMAP
0000
0000
1800
0c00
0400
0000
6080
6080
6480
6480
6e80
3f00
3300
3300
0000
0000
0000
0000
ENDCHAR
STARTCHAR LtSmlYGrave
ENCODING 516
SWIDTH 1080 0
DWIDTH 9 0
BBX 9 18 0 -4
BITMAP
0000
0000
3000
1800
0800
0000
6300
6300
3200
3200
1a00
1c00
0c00
0c00
0800
6800
7000
0000
ENDCHAR
STARTCHAR LtSmlEpsGrave
ENCODING 517
SWIDTH 1080 0
DWIDTH 9 0
BBX 9 18 0 -4
BITMAP
0000
0000
3000
1800
0800
0000
3e00
6300
6000
3800
6000
6000
6300
3e00
0000
0000
0000
0000
ENDCHAR
STARTCHAR LtSmlCTrndGrave
ENCODING 518
SWIDTH 1080 0
DWIDTH 9 0
BBX 9 18 0 -4
BITMAP
0000
0000
3000
1800
0800
0000
3c00
6600
0300
0300
0300
0300
6600
3c00
0000
0000
0000
0000
ENDCHAR
STARTCHAR LtCapOHornGrave
ENCODING 519
SWIDTH 1080 0
DWIDTH 9 0
BBX 9 18 0 -4
BITMAP
7000
1b80
0180
3f00
6300
6300
6300
6300
6300
6300
6300
6300
6300
3e00
0000
0000
0000
0000
ENDCHAR
STARTCHAR LtCapUHornGrave
ENCODING 520
SWIDTH 1080 0
DWIDTH 9 0
BBX 9 18 0 -4
BITMAP
7000
1b80
0180
6300
6300
6300
6300
6300
6300
6300
6300
6300
6300
3e00
0000
0000
0000
0000
ENDCHAR
STARTCHAR LtSmlOHornGrave
ENCODING 521
SWIDTH 1080 0
DWIDTH 9 0
BBX 9 18 0 -4
BITMAP
0000
0000
3000
1800
0b80
0180
3f00
6300
6300
6300
6300
6300
6300
3e00
0000
0000
0000
0000
ENDCHAR
STARTCHAR LtSmlUHornGrave
ENCODING 522
SWIDTH 1080 0
DWIDTH 9 0
BBX 9 18 0 -4
BITMAP
0000
0000
3000
1800
0b80
0180
6300
6300
6300
6300
6300
6300
6700
3b00
0000
0000
0000
0000
ENDCHAR
STARTCHAR LtCapUDrssGrave
ENCODING 523
SWIDTH 1080 0
DWIDTH 9 0
BBX 9 18 0 -4
BITMAP
3800
4d00
6300
0000
6300
6300
6300
6300
6300
6300
6300
6300
6300
3e00
0000
0000
0000
0000
ENDCHAR
STARTCHAR LtSmlUDrssGrave
ENCODING 524
SWIDTH 1080 0
DWIDTH 9 0
BBX 9 18 0 -4
BITMAP
3800
0c00
0000
3600
3600
0000
6300
6300
6300
6300
6300
6300
6700
3b00
0000
0000
0000
0000
ENDCHAR
STARTCHAR LtCapEMacronGrave
ENCODING 525
SWIDTH 1080 0
DWIDTH 9 0
BBX 9 18 0 -4
BITMAP
1800
0c00
3e00
0000
7f00
6300
6000
6400
7c00
6400
6000
6100
6300
7f00
0000
0000
0000
0000
ENDCHAR
STARTCHAR LtCapOMacronGrave
ENCODING 526
SWIDTH 1080 0
DWIDTH 9 0
BBX 9 18 0 -4
BITMAP
1800
0c00
3e00
0000
3e00
6300
6300
6300
6300
6300
6300
6300
6300
3e00
0000
0000
0000
0000
ENDCHAR
STARTCHAR LtSmlAMacronGrave
ENCODING 527
SWIDTH 1080 0
DWIDTH 9 0
BBX 9 18 0 -4
BITMAP
3800
0c00
0000
3e00
3e00
0000
3e00
3300
0300
3f00
6300
6300
6700
3b00
0000
0000
0000
0000
ENDCHAR
STARTCHAR LtSmlEMacronGrave
ENCODING 528
SWIDTH 1080 0
DWIDTH 9 0
BBX 9 18 0 -4
BITMAP
3800
0c00
0000
3e00
3e00
0000
1e00
3300
6300
7f00
6000
6000
3300
1e00
0000
0000
0000
0000
ENDCHAR
STARTCHAR LtSmlIMacronGrave
ENCODING 529
SWIDTH 1080 0
DWIDTH 9 0
BBX 9 18 0 -4
BITMAP
3800
0c00
0000
3e00
3e00
0000
1c00
0c00
0c00
0c00
0c00
0c00
0c00
3f00
0000
0000
0000
0000
ENDCHAR
STARTCHAR LtSmlOMacronGrave
ENCODING 530
SWIDTH 1080 0
DWIDTH 9 0
BBX 9 18 0 -4
BITMAP
3800
0c00
0000
3e00
3e00
0000
3e00
6300
6300
6300
6300
6300
6300
3e00
0000
0000
0000
0000
ENDCHAR
STARTCHAR LtSmlUMacronGrave
ENCODING 531
SWIDTH 1080 0
DWIDTH 9 0
BBX 9 18 0 -4
BITMAP
3800
0c00
0000
3e00
3e00
0000
6300
6300
6300
6300
6300
6300
6700
3b00
0000
0000
0000
0000
ENDCHAR
STARTCHAR LtCapACircumGrave
ENCODING 532
SWIDTH 1080 0
DWIDTH 9 0
BBX 9 18 0 -4
BITMAP
c000
6000
2c00
1e00
1200
0800
1800
1c00
2c00
2600
3e00
6600
4300
c300
0000
0000
0000
0000
ENDCHAR
STARTCHAR LtCapECircumGrave
ENCODING 533
SWIDTH 1080 0
DWIDTH 9 0
BBX 9 18 0 -4
BITMAP
c000
6000
2c00
1e00
1200
7f00
6300
6000
6400
7c00
6400
6000
6300
7f00
0000
0000
0000
0000
ENDCHAR
STARTCHAR LtCapOCircumGrave
ENCODING 534
SWIDTH 1080 0
DWIDTH 9 0
BBX 9 18 0 -4
BITMAP
c000
6000
2c00
1e00
1200
3e00
6300
6300
6300
6300
6300
6300
6300
3e00
0000
0000
0000
0000
ENDCHAR
STARTCHAR LtSmlACircumGrave
ENCODING 535
SWIDTH 1080 0
DWIDTH 9 0
BBX 9 18 0 -4
BITMAP
c000
6000
2c00
1e00
1200
0000
3e00
3300
0300
3f00
6300
6300
6700
3b00
0000
0000
0000
0000
ENDCHAR
STARTCHAR LtSmlECircumGrave
ENCODING 536
SWIDTH 1080 0
DWIDTH 9 0
BBX 9 18 0 -4
BITMAP
c000
6000
2c00
1e00
1200
0000
1e00
3300
6300
7f00
6000
6000
3300
1e00
0000
0000
0000
0000
ENDCHAR
STARTCHAR LtSmlOCircumGrave
ENCODING 537
SWIDTH 1080 0
DWIDTH 9 0
BBX 9 18 0 -4
BITMAP
c000
6000
2c00
1e00
1200
0000
3e00
6300
6300
6300
6300
6300
6300
3e00
0000
0000
0000
0000
ENDCHAR
STARTCHAR LtCapABreveGrave
ENCODING 538
SWIDTH 1080 0
DWIDTH 9 0
BBX 9 18 0 -4
BITMAP
3000
1800
0800
6300
3e00
0800
1800
1c00
2c00
2600
3e00
6600
4300
c300
0000
0000
0000
0000
ENDCHAR
STARTCHAR LtSmlABreveGrave
ENCODING 539
SWIDTH 1080 0
DWIDTH 9 0
BBX 9 18 0 -4
BITMAP
3000
1800
0800
6300
3e00
0000
3e00
3300
0300
3f00
6300
6300
6700
3b00
0000
0000
0000
0000
ENDCHAR
STARTCHAR LtCapAGrave2
ENCODING 540
SWIDTH 1080 0
DWIDTH 9 0
BBX 9 18 0 -4
BITMAP
6c00
3600
1200
0000
1800
1c00
1c00
2c00
2600
2600
7e00
4300
4300
c300
0000
0000
0000
0000
ENDCHAR
STARTCHAR LtCapEGrave2
ENCODING 541
SWIDTH 1080 0
DWIDTH 9 0
BBX 9 18 0 -4
BITMAP
6c00
3600
1200
0000
7f00
6300
6000
6400
7c00
6400
6000
6100
6300
7f00
0000
0000
0000
0000
ENDCHAR
STARTCHAR LtCapIGrave2
ENCODING 542
SWIDTH 1080 0
DWIDTH 9 0
BBX 9 18 0 -4
BITMAP
6c00
3600
1200
0000
3f00
0c00
0c00
0c00
0c00
0c00
0c00
0c00
0c00
3f00
0000
0000
0000
0000
ENDCHAR
STARTCHAR LtCapOGrave2
ENCODING 543
SWIDTH 1080 0
DWIDTH 9 0
BBX 9 18 0 -4
BITMAP
6c00
3600
1200
0000
3e00
6300
6300
6300
6300
6300
6300
6300
6300
3e00
0000
0000
0000
0000
ENDCHAR
STARTCHAR LtCapRGrave2
ENCODING 544
SWIDTH 1080 0
DWIDTH 9 0
BBX 9 18 0 -4
BITMAP
6c00
3600
1200
0000
7e00
6300
6300
6300
7e00
6c00
6600
6600
6300
6300
0000
0000
0000
0000
ENDCHAR
STARTCHAR LtCapUGrave2
ENCODING 545
SWIDTH 1080 0
DWIDTH 9 0
BBX 9 18 0 -4
BITMAP
6c00
3600
1200
0000
6300
6300
6300
6300
6300
6300
6300
6300
6300
3e00
0000
0000
0000
0000
ENDCHAR
STARTCHAR LtSmlAGrave2
ENCODING 546
SWIDTH 1080 0
DWIDTH 9 0
BBX 9 18 0 -4
BITMAP
0000
0000
6c00
3600
1200
0000
3e00
3300
0300
3f00
6300
6300
6700
3b00
0000
0000
0000
0000
ENDCHAR
STARTCHAR LtSmlEGrave2
ENCODING 547
SWIDTH 1080 0
DWIDTH 9 0
BBX 9 18 0 -4
BITMAP
0000
0000
6c00
3600
1200
0000
1e00
3300
6300
7f00
6000
6000
3300
1e00
0000
0000
0000
0000
ENDCHAR
STARTCHAR LtSmlIGrave2
ENCODING 548
SWIDTH 1080 0
DWIDTH 9 0
BBX 9 18 0 -4
BITMAP
0000
0000
6c00
3600
1200
0000
1c00
0c00
0c00
0c00
0c00
0c00
0c00
3f00
0000
0000
0000
0000
ENDCHAR
STARTCHAR LtSmlOGrave2
ENCODING 549
SWIDTH 1080 0
DWIDTH 9 0
BBX 9 18 0 -4
BITMAP
0000
0000
6c00
3600
1200
0000
3e00
6300
6300
6300
6300
6300
6300
3e00
0000
0000
0000
0000
ENDCHAR
STARTCHAR LtSmlRGrave2
ENCODING 550
SWIDTH 1080 0
DWIDTH 9 0
BBX 9 18 0 -4
BITMAP
0000
0000
6c00
3600
1200
0000
7700
3b00
3100
3000
3000
3000
3000
3000
0000
0000
0000
0000
ENDCHAR
STARTCHAR LtSmlUGrave2
ENCODING 551
SWIDTH 1080 0
DWIDTH 9 0
BBX 9 18 0 -4
BITMAP
0000
0000
6c00
3600
1200
0000
6300
6300
6300
6300
6300
6300
6700
3b00
0000
0000
0000
0000
ENDCHAR
STARTCHAR LtCapACircum
ENCODING 552
SWIDTH 1080 0
DWIDTH 9 0
BBX 9 18 0 -4
BITMAP
1800
3c00
2400
0000
1800
1c00
1c00
2c00
2600
2600
7e00
4300
4300
c300
0000
0000
0000
0000
ENDCHAR
STARTCHAR LtCapCCircum
ENCODING 553
SWIDTH 1080 0
DWIDTH 9 0
BBX 9 18 0 -4
BITMAP
0c00
1e00
1200
0000
1f00
3300
6100
6000
6000
6000
6000
6000
3300
1e00
0000
0000
0000
0000
ENDCHAR
STARTCHAR LtCapECircum
ENCODING 554
SWIDTH 1080 0
DWIDTH 9 0
BBX 9 18 0 -4
BITMAP
0800
1c00
3600
0000
7f00
6300
6000
6400
7c00
6400
6000
6100
6300
7f00
0000
0000
0000
0000
ENDCHAR
STARTCHAR LtCapGCircum
ENCODING 555
SWIDTH 1080 0
DWIDTH 9 0
BBX 9 18 0 -4
BITMAP
0c00
1e00
1200
0000
1f00
3300
6100
6000
6000
6700
6300
6300
3300
1f00
0000
0000
0000
0000
ENDCHAR
STARTCHAR LtCapHCircum
ENCODING 556
SWIDTH 1080 0
DWIDTH 9 0
BBX 9 18 0 -4
BITMAP
0800
1c00
3600
0000
6300
6300
6300
6300
7f00
6300
6300
6300
6300
6300
0000
0000
0000
0000
ENDCHAR
STARTCHAR LtCapICircum
ENCODING 557
SWIDTH 1080 0
DWIDTH 9 0
BBX 9 18 0 -4
BITMAP
0c00
1e00
1200
0000
3f00
0c00
0c00
0c00
0c00
0c00
0c00
0c00
0c00
3f00
0000
0000
0000
0000
ENDCHAR
STARTCHAR LtCapJCircum
ENCODING 558
SWIDTH 1080 0
DWIDTH 9 0
BBX 9 18 0 -4
BITMAP
0600
0f00
0900
0000
0f00
0600
0600
0600
0600
0600
0600
6600
6600
3c00
0000
0000
0000
0000
ENDCHAR
STARTCHAR LtCapNCircum
ENCODING 559
SWIDTH 1080 0
DWIDTH 9 0
BBX 9 18 0 -4
BITMAP
0800
1c00
3600
0000
6100
7100
7100
5900
5900
4d00
4d00
4700
4700
4300
0000
0000
0000
0000
ENDCHAR
STARTCHAR LtCapOCircum
ENCODING 560
SWIDTH 1080 0
DWIDTH 9 0
BBX 9 18 0 -4
BITMAP
0800
1c00
3600
0000
3e00
6300
6300
6300
6300
6300
6300
6300
6300
3e00
0000
0000
0000
0000
ENDCHAR
STARTCHAR LtCapSCircum
ENCODING 561
SWIDTH 1080 0
DWIDTH 9 0
BBX 9 18 0 -4
BITMAP
0800
1c00
3600
0000
3f00
6300
6100
3000
3c00
0e00
0300
4300
6300
7e00
0000
0000
0000
0000
ENDCHAR
STARTCHAR LtCapUCircum
ENCODING 562
SWIDTH 1080 0
DWIDTH 9 0
BBX 9 18 0 -4
BITMAP
0800
1c00
3600
0000
6300
6300
6300
6300
6300
6300
6300
6300
6300
3e00
0000
0000
0000
0000
ENDCHAR
STARTCHAR LtCapWCircum
ENCODING 563
SWIDTH 1080 0
DWIDTH 9 0
BBX 9 18 0 -4
BITMAP
0c00
1e00
1200
4080
6080
6080
6480
6480
6e80
7f80
3700
3300
3300
3300
0000
0000
0000
0000
ENDCHAR
STARTCHAR LtCapYCircum
ENCODING 564
SWIDTH 1080 0
DWIDTH 9 0
BBX 9 18 0 -4
BITMAP
0c00
1e00
1200
4080
6100
3100
3200
1a00
1c00
0c00
0c00
0c00
0c00
0c00
0000
0000
0000
0000
ENDCHAR
STARTCHAR LtCapZCircum
ENCODING 565
SWIDTH 1080 0
DWIDTH 9 0
BBX 9 18 0 -4
BITMAP
0800
1c00
3600
0000
7f00
6300
4600
0c00
0c00
1800
1800
3100
6300
7f00
0000
0000
0000
0000
ENDCHAR
STARTCHAR LtCapEpsCircum
ENCODING 566
SWIDTH 1080 0
DWIDTH 9 0
BBX 9 18 0 -4
BITMAP
0800
1c00
3600
0000
3e00
6300
6000
2000
3c00
6000
6000
6000
6300
3e00
0000
0000
0000
0000
ENDCHAR
STARTCHAR LtCapCTrndCircum
ENCODING 567
SWIDTH 1080 0
DWIDTH 9 0
BBX 9 18 0 -4
BITMAP
0800
1c00
3600
0000
3c00
6600
0300
0300
0300
0300
0300
0300
6600
3c00
0000
0000
0000
0000
ENDCHAR
STARTCHAR LtSmlACircum
ENCODING 568
SWIDTH 1080 0
DWIDTH 9 0
BBX 9 18 0 -4
BITMAP
0000
0000
0c00
1e00
1200
0000
3e00
3300
0300
3f00
6300
6300
6700
3b00
0000
0000
0000
0000
ENDCHAR
STARTCHAR LtSmlCCircum
ENCODING 569
SWIDTH 1080 0
DWIDTH 9 0
BBX 9 18 0 -4
BITMAP
0000
0000
0c00
1e00
1200
0000
1e00
3300
6000
6000
6000
6000
3300
1e00
0000
0000
0000
0000
ENDCHAR
STARTCHAR LtSmlECircum
ENCODING 570
SWIDTH 1080 0
DWIDTH 9 0
BBX 9 18 0 -4
BITMAP
0000
0000
0c00
1e00
1200
0000
1e00
3300
6300
7f00
6000
6000
3300
1e00
0000
0000
0000
0000
ENDCHAR
STARTCHAR LtSmlGCircum
ENCODING 571
SWIDTH 1080 0
DWIDTH 9 0
BBX 9 18 0 -4
BITMAP
0000
0000
0800
1c00
3600
0000
3d00
6700
6600
6600
3c00
6000
3e00
3f00
6100
6300
3e00
0000
ENDCHAR
STARTCHAR LtSmlHCircum
ENCODING 572
SWIDTH 1080 0
DWIDTH 9 0
BBX 9 18 0 -4
BITMAP
0c00
1e00
1200
4000
6000
6000
6e00
7300
6300
6300
6300
6300
6300
6300
0000
0000
0000
0000
ENDCHAR
STARTCHAR LtSmlICircum
ENCODING 573
SWIDTH 1080 0
DWIDTH 9 0
BBX 9 18 0 -4
BITMAP
0000
0000
0c00
1e00
1200
0000
1c00
0c00
0c00
0c00
0c00
0c00
0c00
3f00
0000
0000
0000
0000
ENDCHAR
STARTCHAR LtSmlJCircum
ENCODING 574
SWIDTH 1080 0
DWIDTH 9 0
BBX 9 18 0 -4
BITMAP
0000
0000
0600
0f00
0900
0000
1e00
0600
0600
0600
0600
0600
0600
0600
6600
6600
3c00
0000
ENDCHAR
STARTCHAR LtSmlNCircum
ENCODING 575
SWIDTH 1080 0
DWIDTH 9 0
BBX 9 18 0 -4
BITMAP
0000
0000
0800
1c00
3600
0000
6e00
7300
6300
6300
6300
6300
6300
6300
0000
0000
0000
0000
ENDCHAR
STARTCHAR LtSmlOCircum
ENCODING 576
SWIDTH 1080 0
DWIDTH 9 0
BBX 9 18 0 -4
BITMAP
0000
0000
0800
1c00
3600
0000
3e00
6300
6300
6300
6300
6300
6300
3e00
0000
0000
0000
0000
ENDCHAR
STARTCHAR LtSmlSCircum
ENCODING 577
SWIDTH 1080 0
DWIDTH 9 0
BBX 9 18 0 -4
BITMAP
0000
0000
0800
1c00
3600
0000
3e00
6300
7000
3c00
0e00
0300
6300
3e00
0000
0000
0000
0000
ENDCHAR
STARTCHAR LtSmlUCircum
ENCODING 578
SWIDTH 1080 0
DWIDTH 9 0
BBX 9 18 0 -4
BITMAP
0000
0000
0800
1c00
3600
0000
6300
6300
6300
6300
6300
6300
6700
3b00
0000
0000
0000
0000
ENDCHAR
STARTCHAR LtSmlWCircum
ENCODING 579
SWIDTH 1080 0
DWIDTH 9 0
BBX 9 18 0 -4
BITMAP
0000
0000
0c00
1e00
1200
0000
6080
6080
6480
6480
6e80
3f00
3300
3300
0000
0000
0000
0000
ENDCHAR
STARTCHAR LtSmlYCircum
ENCODING 580
SWIDTH 1080 0
DWIDTH 9 0
BBX 9 18 0 -4
BITMAP
0000
0000
0800
1c00
3600
0000
6300
6300
3200
3200
1a00
1c00
0c00
0c00
0800
6800
7000
0000
ENDCHAR
STARTCHAR LtSmlZCircum
ENCODING 581
SWIDTH 1080 0
DWIDTH 9 0
BBX 9 18 0 -4
BITMAP
0000
0000
0800
1c00
3600
0000
7f00
6700
4600
0c00
1800
3100
7300
7f00
0000
0000
0000
0000
ENDCHAR
STARTCHAR LtSmlEpsCircum
ENCODING 582
SWIDTH 1080 0
DWIDTH 9 0
BBX 9 18 0 -4
BITMAP
0000
0000
0800
1c00
3600
0000
3e00
6300
6000
3800
6000
6000
6300
3e00
0000
0000
0000
0000
ENDCHAR
STARTCHAR LtSmlCTrndCircum
ENCODING 583
SWIDTH 1080 0
DWIDTH 9 0
BBX 9 18 0 -4
BITMAP
0000
0000
1800
3c00
2400
0000
3c00
6600
0300
0300
0300
0300
6600
3c00
0000
0000
0000
0000
ENDCHAR
STARTCHAR LtCapACaron
ENCODING 584
SWIDTH 1080 0
DWIDTH 9 0
BBX 9 18 0 -4
BITMAP
3600
1c00
0800
0000
1800
1c00
1c00
2c00
2600
2600
7e00
4300
4300
c300
0000
0000
0000
0000
ENDCHAR
STARTCHAR LtCapCCaron
ENCODING 585
SWIDTH 1080 0
DWIDTH 9 0
BBX 9 18 0 -4
BITMAP
1200
1e00
0c00
0000
1f00
3300
6100
6000
6000
6000
6000
6000
3300
1e00
0000
0000
0000
0000
ENDCHAR
STARTCHAR LtCapDCaron
ENCODING 586
SWIDTH 1080 0
DWIDTH 9 0
BBX 9 18 0 -4
BITMAP
2400
3c00
1800
0000
7c00
6600
6300
6300
6300
6300
6300
6300
6600
7c00
0000
0000
0000
0000
ENDCHAR
STARTCHAR LtCapECaron
ENCODING 587
SWIDTH 1080 0
DWIDTH 9 0
BBX 9 18 0 -4
BITMAP
3600
1c00
0800
0000
7f00
6300
6000
6400
7c00
6400
6000
6100
6300
7f00
0000
0000
0000
0000
ENDCHAR
STARTCHAR LtCapGCaron
ENCODING 588
SWIDTH 1080 0
DWIDTH 9 0
BBX 9 18 0 -4
BITMAP
1200
1e00
0c00
0000
1f00
3300
6100
6000
6000
6700
6300
6300
3300
1f00
0000
0000
0000
0000
ENDCHAR
STARTCHAR LtCapHCaron
ENCODING 589
SWIDTH 1080 0
DWIDTH 9 0
BBX 9 18 0 -4
BITMAP
3600
1c00
0800
0000
6300
6300
6300
6300
7f00
6300
6300
6300
6300
6300
0000
0000
0000
0000
ENDCHAR
STARTCHAR LtCapICaron
ENCODING 590
SWIDTH 1080 0
DWIDTH 9 0
BBX 9 18 0 -4
BITMAP
1200
1e00
0c00
0000
3f00
0c00
0c00
0c00
0c00
0c00
0c00
0c00
0c00
3f00
0000
0000
0000
0000
ENDCHAR
STARTCHAR LtCapJCaron
ENCODING 591
SWIDTH 1080 0
DWIDTH 9 0
BBX 9 18 0 -4
BITMAP
0900
0f00
0600
0000
0f00
0600
0600
0600
0600
0600
0600
6600
6600
3c00
0000
0000
0000
0000
ENDCHAR
STARTCHAR LtCapKCaron
ENCODING 592
SWIDTH 1080 0
DWIDTH 9 0
BBX 9 18 0 -4
BITMAP
2400
3c00
1800
0000
6300
6200
6600
6800
7c00
7c00
6600
6600
6300
6300
0000
0000
0000
0000
ENDCHAR
STARTCHAR LtCapLCaron
ENCODING 593
SWIDTH 1080 0
DWIDTH 9 0
BBX 9 18 0 -4
BITMAP
0000
0000
0300
6300
6100
6200
6000
6000
6000
6000
6000
6100
6300
7f00
0000
0000
0000
0000
ENDCHAR
STARTCHAR LtCapNCaron
ENCODING 594
SWIDTH 1080 0
DWIDTH 9 0
BBX 9 18 0 -4
BITMAP
3600
1c00
0800
6100
7100
7100
5900
5900
4d00
4d00
4700
4700
4300
4100
0000
0000
0000
0000
ENDCHAR
STARTCHAR LtCapOCaron
ENCODING 595
SWIDTH 1080 0
DWIDTH 9 0
BBX 9 18 0 -4
BITMAP
1200
1e00
0c00
0000
3e00
6300
6300
6300
6300
6300
6300
6300
6300
3e00
0000
0000
0000
0000
ENDCHAR
STARTCHAR LtCapRCaron
ENCODING 596
SWIDTH 1080 0
DWIDTH 9 0
BBX 9 18 0 -4
BITMAP
3600
1c00
0800
0000
7e00
6300
6300
6300
7e00
6c00
6600
6600
6300
6300
0000
0000
0000
0000
ENDCHAR
STARTCHAR LtCapSCaron
ENCODING 597
SWIDTH 1080 0
DWIDTH 9 0
BBX 9 18 0 -4
BITMAP
1200
1e00
0c00
0000
3f00
6300
6100
3000
3c00
0e00
0300
4300
6300
7e00
0000
0000
0000
0000
ENDCHAR
STARTCHAR LtCapTCaron
ENCODING 598
SWIDTH 1080 0
DWIDTH 9 0
BBX 9 18 0 -4
BITMAP
1200
1e00
0c00
0000
7f80
6d80
4c80
0c00
0c00
0c00
0c00
0c00
0c00
0c00
0000
0000
0000
0000
ENDCHAR
STARTCHAR LtCapUCaron
ENCODING 599
SWIDTH 1080 0
DWIDTH 9 0
BBX 9 18 0 -4
BITMAP
3600
1c00
0800
0000
6300
6300
6300
6300
6300
6300
6300
6300
6300
3e00
0000
0000
0000
0000
ENDCHAR
STARTCHAR LtCapZCaron
ENCODING 600
SWIDTH 1080 0
DWIDTH 9 0
BBX 9 18 0 -4
BITMAP
3600
1c00
0800
0000
7f00
6300
4600
0c00
0c00
1800
1800
3100
6300
7f00
0000
0000
0000
0000
ENDCHAR
STARTCHAR LtCapEpsCaron
ENCODING 601
SWIDTH 1080 0
DWIDTH 9 0
BBX 9 18 0 -4
BITMAP
3600
1c00
0800
0000
3e00
6300
6000
2000
3c00
6000
6000
6000
6300
3e00
0000
0000
0000
0000
ENDCHAR
STARTCHAR LtCapEzhCaron
ENCODING 602
SWIDTH 1080 0
DWIDTH 9 0
BBX 9 18 0 -4
BITMAP
2400
3c00
1800
0000
7f00
6300
4600
0400
0e00
0300
0300
0300
6600
3c00
0000
0000
0000
0000
ENDCHAR
STARTCHAR LtCapCTrndCaron
ENCODING 603
SWIDTH 1080 0
DWIDTH 9 0
BBX 9 18 0 -4
BITMAP
3600
1c00
0800
0000
3c00
6600
0300
0300
0300
0300
0300
0300
6600
3c00
0000
0000
0000
0000
ENDCHAR
STARTCHAR LtSmlACaron
ENCODING 604
SWIDTH 1080 0
DWIDTH 9 0
BBX 9 18 0 -4
BITMAP
0000
0000
1200
1e00
0c00
0000
3e00
3300
0300
3f00
6300
6300
6700
3b00
0000
0000
0000
0000
ENDCHAR
STARTCHAR LtSmlCCaron
ENCODING 605
SWIDTH 1080 0
DWIDTH 9 0
BBX 9 18 0 -4
BITMAP
0000
0000
1200
1e00
0c00
0000
1e00
3300
6000
6000
6000
6000
3300
1e00
0000
0000
0000
0000
ENDCHAR
STARTCHAR LtSmlDCaron
ENCODING 606
SWIDTH 1080 0
DWIDTH 9 0
BBX 9 18 0 -4
BITMAP
0000
0000
0180
0780
0680
0700
3600
6e00
6600
6600
6600
6600
6e00
3600
0000
0000
0000
0000
ENDCHAR
STARTCHAR LtSmlECaron
ENCODING 607
SWIDTH 1080 0
DWIDTH 9 0
BBX 9 18 0 -4
BITMAP
0000
0000
1200
1e00
0c00
0000
1e00
3300
6300
7f00
6000
6000
3300
1e00
0000
0000
0000
0000
ENDCHAR
STARTCHAR LtSmlGCaron
ENCODING 608
SWIDTH 1080 0
DWIDTH 9 0
BBX 9 18 0 -4
BITMAP
0000
0000
3600
1c00
0800
0000
3d00
6700
6600
6600
3c00
6000
3e00
3f00
6100
6300
3e00
0000
ENDCHAR
STARTCHAR LtSmlHCaron
ENCODING 609
SWIDTH 1080 0
DWIDTH 9 0
BBX 9 18 0 -4
BITMAP
1200
1e00
0c00
6000
6000
6000
6e00
7300
6300
6300
6300
6300
6300
6300
0000
0000
0000
0000
ENDCHAR
STARTCHAR LtSmlICaron
ENCODING 610
SWIDTH 1080 0
DWIDTH 9 0
BBX 9 18 0 -4
BITMAP
0000
0000
1200
1e00
0c00
0000
1c00
0c00
0c00
0c00
0c00
0c00
0c00
3f00
0000
0000
0000
0000
ENDCHAR
STARTCHAR LtSmlJCaron
ENCODING 611
SWIDTH 1080 0
DWIDTH 9 0
BBX 9 18 0 -4
BITMAP
0000
0000
0900
0f00
0600
0000
1e00
0600
0600
0600
0600
0600
0600
0600
6600
6600
3c00
0000
ENDCHAR
STARTCHAR LtSmlKCaron
ENCODING 612
SWIDTH 1080 0
DWIDTH 9 0
BBX 9 18 0 -4
BITMAP
2400
3c00
1800
4000
6000
6000
6300
6200
6400
6c00
7c00
6600
6300
6300
0000
0000
0000
0000
ENDCHAR
STARTCHAR LtSmlLCaron
ENCODING 613
SWIDTH 1080 0
DWIDTH 9 0
BBX 9 18 0 -4
BITMAP
0000
0000
0300
3b00
1900
1a00
1800
1800
1800
1800
1800
1800
1800
7e00
0000
0000
0000
0000
ENDCHAR
STARTCHAR LtSmlNCaron
ENCODING 614
SWIDTH 1080 0
DWIDTH 9 0
BBX 9 18 0 -4
BITMAP
0000
0000
3600
1c00
0800
0000
6e00
7300
6300
6300
6300
6300
6300
6300
0000
0000
0000
0000
ENDCHAR
STARTCHAR LtSmlOCaron
ENCODING 615
SWIDTH 1080 0
DWIDTH 9 0
BBX 9 18 0 -4
BITMAP
0000
0000
3600
1c00
0800
0000
3e00
6300
6300
6300
6300
6300
6300
3e00
0000
0000
0000
0000
ENDCHAR
STARTCHAR LtSmlRCaron
ENCODING 616
SWIDTH 1080 0
DWIDTH 9 0
BBX 9 18 0 -4
BITMAP
0000
0000
1200
1e00
0c00
0000
7700
3b00
3100
3000
3000
3000
3000
3000
0000
0000
0000
0000
ENDCHAR
STARTCHAR LtSmlSCaron
ENCODING 617
SWIDTH 1080 0
DWIDTH 9 0
BBX 9 18 0 -4
BITMAP
0000
0000
3600
1c00
0800
0000
3e00
6300
7000
3c00
0e00
0300
6300
3e00
0000
0000
0000
0000
ENDCHAR
STARTCHAR LtSmlTCaron
ENCODING 618
SWIDTH 1080 0
DWIDTH 9 0
BBX 9 18 0 -4
BITMAP
0000
0000
0180
0180
1880
1900
7e00
1800
1800
1800
1800
1800
1b00
0e00
0000
0000
0000
0000
ENDCHAR
STARTCHAR LtSmlUCaron
ENCODING 619
SWIDTH 1080 0
DWIDTH 9 0
BBX 9 18 0 -4
BITMAP
0000
0000
3600
1c00
0800
0000
6300
6300
6300
6300
6300
6300
6700
3b00
0000
0000
0000
0000
ENDCHAR
STARTCHAR LtSmlZCaron
ENCODING 620
SWIDTH 1080 0
DWIDTH 9 0
BBX 9 18 0 -4
BITMAP
0000
0000
3600
1c00
0800
0000
7f00
6700
4600
0c00
1800
3100
7300
7f00
0000
0000
0000
0000
ENDCHAR
STARTCHAR LtSmlEpsCaron
ENCODING 621
SWIDTH 1080 0
DWIDTH 9 0
BBX 9 18 0 -4
BITMAP
0000
0000
3600
1c00
0800
0000
3e00
6300
6000
3800
6000
6000
6300
3e00
0000
0000
0000
0000
ENDCHAR
STARTCHAR LtSmlEzhCaron
ENCODING 622
SWIDTH 1080 0
DWIDTH 9 0
BBX 9 18 0 -4
BITMAP
0000
0000
3600
1c00
0800
0000
7f00
6300
4600
0600
0c00
0e00
0300
0300
0300
6200
3c00
0000
ENDCHAR
STARTCHAR LtSmlCTrndCaron
ENCODING 623
SWIDTH 1080 0
DWIDTH 9 0
BBX 9 18 0 -4
BITMAP
0000
0000
3600
1c00
0800
0000
3c00
6600
0300
0300
0300
0300
6600
3c00
0000
0000
0000
0000
ENDCHAR
STARTCHAR LtCapDZCaron
ENCODING 624
SWIDTH 1080 0
DWIDTH 9 0
BBX 9 18 0 -4
BITMAP
0280
0380
0100
6780
7580
7980
6900
6b00
6b00
6a00
6a00
7e80
7680
6780
0000
0000
0000
0000
ENDCHAR
STARTCHAR LtMixDZCaron
ENCODING 625
SWIDTH 1080 0
DWIDTH 9 0
BBX 9 18 0 -4
BITMAP
0000
0000
0280
6380
7100
7800
6f80
6d80
6900
6b00
6b00
7a00
7680
6780
0000
0000
0000
0000
ENDCHAR
STARTCHAR LtSmlDZCaron
ENCODING 626
SWIDTH 1080 0
DWIDTH 9 0
BBX 9 18 0 -4
BITMAP
0000
0000
0280
1b80
1900
1800
3f80
7d80
5900
5b00
5b00
5a00
7e80
3f80
0000
0000
0000
0000
ENDCHAR
STARTCHAR LtCapUDrssCaron
ENCODING 627
SWIDTH 1080 0
DWIDTH 9 0
BBX 9 18 0 -4
BITMAP
1400
5d00
6b00
0000
6300
6300
6300
6300
6300
6300
6300
6300
6300
3e00
0000
0000
0000
0000
ENDCHAR
STARTCHAR LtSmlUDrssCaron
ENCODING 628
SWIDTH 1080 0
DWIDTH 9 0
BBX 9 18 0 -4
BITMAP
1400
1c00
0800
3600
3600
0000
6300
6300
6300
6300
6300
6300
6700
3b00
0000
0000
0000
0000
ENDCHAR
STARTCHAR LtCapABreve
ENCODING 629
SWIDTH 1080 0
DWIDTH 9 0
BBX 9 18 0 -4
BITMAP
2200
3600
1c00
0000
1800
1c00
1c00
2c00
2600
2600
7e00
4300
4300
c300
0000
0000
0000
0000
ENDCHAR
STARTCHAR LtCapEBreve
ENCODING 630
SWIDTH 1080 0
DWIDTH 9 0
BBX 9 18 0 -4
BITMAP
2200
3600
1c00
0000
7f00
6300
6000
6400
7c00
6400
6000
6100
6300
7f00
0000
0000
0000
0000
ENDCHAR
STARTCHAR LtCapGBreve
ENCODING 631
SWIDTH 1080 0
DWIDTH 9 0
BBX 9 18 0 -4
BITMAP
2200
3600
1c00
0000
1f00
3300
6100
6000
6000
6700
6300
6300
3300
1f00
0000
0000
0000
0000
ENDCHAR
STARTCHAR LtCapIBreve
ENCODING 632
SWIDTH 1080 0
DWIDTH 9 0
BBX 9 18 0 -4
BITMAP
1100
1b00
0e00
0000
3f00
0c00
0c00
0c00
0c00
0c00
0c00
0c00
0c00
3f00
0000
0000
0000
0000
ENDCHAR
STARTCHAR LtCapOBreve
ENCODING 633
SWIDTH 1080 0
DWIDTH 9 0
BBX 9 18 0 -4
BITMAP
2200
3600
1c00
0000
3e00
6300
6300
6300
6300
6300
6300
6300
6300
3e00
0000
0000
0000
0000
ENDCHAR
STARTCHAR LtCapUBreve
ENCODING 634
SWIDTH 1080 0
DWIDTH 9 0
BBX 9 18 0 -4
BITMAP
2200
3600
1c00
0000
6300
6300
6300
6300
6300
6300
6300
6300
6300
3e00
0000
0000
0000
0000
ENDCHAR
STARTCHAR LtCapYBreve
ENCODING 635
SWIDTH 1080 0
DWIDTH 9 0
BBX 9 18 0 -4
BITMAP
2200
3600
1c00
4180
6100
3100
3200
1a00
1c00
0c00
0c00
0c00
0c00
0c00
0000
0000
0000
0000
ENDCHAR
STARTCHAR LtSmlABreve
ENCODING 636
SWIDTH 1080 0
DWIDTH 9 0
BBX 9 18 0 -4
BITMAP
0000
0000
2200
3600
1c00
0000
3e00
3300
0300
3f00
6300
6300
6700
3b00
0000
0000
0000
0000
ENDCHAR
STARTCHAR LtSmlEBreve
ENCODING 637
SWIDTH 1080 0
DWIDTH 9 0
BBX 9 18 0 -4
BITMAP
0000
0000
1100
1b00
0e00
0000
1e00
3300
6300
7f00
6000
6000
3300
1e00
0000
0000
0000
0000
ENDCHAR
STARTCHAR LtSmlGBreve
ENCODING 638
SWIDTH 1080 0
DWIDTH 9 0
BBX 9 18 0 -4
BITMAP
0000
0000
2200
3600
1c00
0000
3d00
6700
6600
6600
3c00
6000
3e00
3f00
6100
6300
3e00
0000
ENDCHAR
STARTCHAR LtSmlIBreve
ENCODING 639
SWIDTH 1080 0
DWIDTH 9 0
BBX 9 18 0 -4
BITMAP
0000
0000
2200
3600
1c00
0000
1c00
0c00
0c00
0c00
0c00
0c00
0c00
3f00
0000
0000
0000
0000
ENDCHAR
STARTCHAR LtSmlMBreve
ENCODING 640
SWIDTH 1080 0
DWIDTH 9 0
BBX 9 18 0 -4
BITMAP
0000
0000
2200
3600
1c00
0000
5600
7f00
6b00
6b00
6b00
6b00
6b00
6b00
0000
0000
0000
0000
ENDCHAR
STARTCHAR LtSmlNBreve
ENCODING 641
SWIDTH 1080 0
DWIDTH 9 0
BBX 9 18 0 -4
BITMAP
0000
0000
2200
3600
1c00
0000
6e00
7300
6300
6300
6300
6300
6300
6300
0000
0000
0000
0000
ENDCHAR
STARTCHAR LtSmlOBreve
ENCODING 642
SWIDTH 1080 0
DWIDTH 9 0
BBX 9 18 0 -4
BITMAP
0000
0000
2200
3600
1c00
0000
3e00
6300
6300
6300
6300
6300
6300
3e00
0000
0000
0000
0000
ENDCHAR
STARTCHAR LtSmlRBreve
ENCODING 643
SWIDTH 1080 0
DWIDTH 9 0
BBX 9 18 0 -4
BITMAP
0000
0000
2200
3600
1c00
0000
7700
3b00
3100
3000
3000
3000
3000
3000
0000
0000
0000
0000
ENDCHAR
STARTCHAR LtSmlUBreve
ENCODING 644
SWIDTH 1080 0
DWIDTH 9 0
BBX 9 18 0 -4
BITMAP
0000
0000
2200
3600
1c00
0000
6300
6300
6300
6300
6300
6300
6700
3b00
0000
0000
0000
0000
ENDCHAR
STARTCHAR LtSmlYBreve
ENCODING 645
SWIDTH 1080 0
DWIDTH 9 0
BBX 9 18 0 -4
BITMAP
0000
0000
2200
3600
1c00
0000
6300
6300
3200
3200
1a00
1c00
0c00
0c00
0800
6800
7000
0000
ENDCHAR
STARTCHAR LtSmlAMacronBreve
ENCODING 646
SWIDTH 1080 0
DWIDTH 9 0
BBX 9 18 0 -4
BITMAP
3600
1c00
0000
3e00
3e00
0000
3e00
3300
0300
3f00
6300
6300
6700
3b00
0000
0000
0000
0000
ENDCHAR
STARTCHAR LtSmlIMacronBreve
ENCODING 647
SWIDTH 1080 0
DWIDTH 9 0
BBX 9 18 0 -4
BITMAP
3600
1c00
0000
3e00
3e00
0000
1c00
0c00
0c00
0c00
0c00
0c00
0c00
3f00
0000
0000
0000
0000
ENDCHAR
STARTCHAR LtSmlUMacronBreve
ENCODING 648
SWIDTH 1080 0
DWIDTH 9 0
BBX 9 18 0 -4
BITMAP
3600
1c00
0000
3e00
3e00
0000
6300
6300
6300
6300
6300
6300
6700
3b00
0000
0000
0000
0000
ENDCHAR
STARTCHAR LtCapAInvbreve
ENCODING 649
SWIDTH 1080 0
DWIDTH 9 0
BBX 9 18 0 -4
BITMAP
1c00
3600
2200
0000
1800
1c00
1c00
2c00
2600
2600
7e00
4300
4300
c300
0000
0000
0000
0000
ENDCHAR
STARTCHAR LtCapEInvbreve
ENCODING 650
SWIDTH 1080 0
DWIDTH 9 0
BBX 9 18 0 -4
BITMAP
1c00
3600
2200
0000
7f00
6300
6000
6400
7c00
6400
6000
6100
6300
7f00
0000
0000
0000
0000
ENDCHAR
STARTCHAR LtCapIInvbreve
ENCODING 651
SWIDTH 1080 0
DWIDTH 9 0
BBX 9 18 0 -4
BITMAP
0e00
1b00
1100
0000
3f00
0c00
0c00
0c00
0c00
0c00
0c00
0c00
0c00
3f00
0000
0000
0000
0000
ENDCHAR
STARTCHAR LtCapOInvbreve
ENCODING 652
SWIDTH 1080 0
DWIDTH 9 0
BBX 9 18 0 -4
BITMAP
1c00
3600
2200
0000
3e00
6300
6300
6300
6300
6300
6300
6300
6300
3e00
0000
0000
0000
0000
ENDCHAR
STARTCHAR LtCapRInvbreve
ENCODING 653
SWIDTH 1080 0
DWIDTH 9 0
BBX 9 18 0 -4
BITMAP
1c00
3600
2200
0000
7e00
6300
6300
6300
7e00
6c00
6600
6600
6300
6300
0000
0000
0000
0000
ENDCHAR
STARTCHAR LtCapUInvbreve
ENCODING 654
SWIDTH 1080 0
DWIDTH 9 0
BBX 9 18 0 -4
BITMAP
1c00
3600
2200
0000
6300
6300
6300
6300
6300
6300
6300
6300
6300
3e00
0000
0000
0000
0000
ENDCHAR
STARTCHAR LtSmlAInvbreve
ENCODING 655
SWIDTH 1080 0
DWIDTH 9 0
BBX 9 18 0 -4
BITMAP
0000
0000
1c00
3600
2200
0000
3e00
3300
0300
3f00
6300
6300
6700
3b00
0000
0000
0000
0000
ENDCHAR
STARTCHAR LtSmlEInvbreve
ENCODING 656
SWIDTH 1080 0
DWIDTH 9 0
BBX 9 18 0 -4
BITMAP
0000
0000
1c00
3600
2200
0000
1e00
3300
6300
7f00
6000
6000
3300
1e00
0000
0000
0000
0000
ENDCHAR
STARTCHAR LtSmlIInvbreve
ENCODING 657
SWIDTH 1080 0
DWIDTH 9 0
BBX 9 18 0 -4
BITMAP
0000
0000
1c00
3600
2200
0000
1c00
0c00
0c00
0c00
0c00
0c00
0c00
3f00
0000
0000
0000
0000
ENDCHAR
STARTCHAR LtSmlOInvbreve
ENCODING 658
SWIDTH 1080 0
DWIDTH 9 0
BBX 9 18 0 -4
BITMAP
0000
0000
1c00
3600
2200
0000
3e00
6300
6300
6300
6300
6300
6300
3e00
0000
0000
0000
0000
ENDCHAR
STARTCHAR LtSmlRInvbreve
ENCODING 659
SWIDTH 1080 0
DWIDTH 9 0
BBX 9 18 0 -4
BITMAP
0000
0000
1c00
3600
2200
0000
7700
3b00
3100
3000
3000
3000
3000
3000
0000
0000
0000
0000
ENDCHAR
STARTCHAR LtSmlUInvbreve
ENCODING 660
SWIDTH 1080 0
DWIDTH 9 0
BBX 9 18 0 -4
BITMAP
0000
0000
1c00
3600
2200
0000
6300
6300
6300
6300
6300
6300
6700
3b00
0000
0000
0000
0000
ENDCHAR
STARTCHAR LtSmlMCandra
ENCODING 661
SWIDTH 1080 0
DWIDTH 9 0
BBX 9 18 0 -4
BITMAP
0c00
0c00
2100
3300
1e00
0000
5600
7f00
6b00
6b00
6b00
6b00
6b00
6b00
0000
0000
0000
0000
ENDCHAR
STARTCHAR LtCapATilde
ENCODING 662
SWIDTH 1080 0
DWIDTH 9 0
BBX 9 18 0 -4
BITMAP
1b00
2e00
0000
0800
1800
1c00
1c00
2c00
2600
2600
7e00
4300
4300
c300
0000
0000
0000
0000
ENDCHAR
STARTCHAR LtCapETilde
ENCODING 663
SWIDTH 1080 0
DWIDTH 9 0
BBX 9 18 0 -4
BITMAP
1b00
2e00
0000
7f00
6300
6100
6000
6400
7c00
6400
6000
6100
6300
7f00
0000
0000
0000
0000
ENDCHAR
STARTCHAR LtCapGTilde
ENCODING 664
SWIDTH 1080 0
DWIDTH 9 0
BBX 9 18 0 -4
BITMAP
1b00
2e00
0000
1f00
3300
6100
6000
6000
6700
6300
6300
6300
3300
1f00
0000
0000
0000
0000
ENDCHAR
STARTCHAR LtCapITilde
ENCODING 665
SWIDTH 1080 0
DWIDTH 9 0
BBX 9 18 0 -4
BITMAP
1b00
2e00
0000
3f00
0c00
0c00
0c00
0c00
0c00
0c00
0c00
0c00
0c00
3f00
0000
0000
0000
0000
ENDCHAR
STARTCHAR LtCapLTilde
ENCODING 666
SWIDTH 1080 0
DWIDTH 9 0
BBX 9 18 0 -4
BITMAP
3600
5c00
0000
6000
6000
6000
6000
6000
6000
6000
6000
6100
6300
7f00
0000
0000
0000
0000
ENDCHAR
STARTCHAR LtCapNTilde
ENCODING 667
SWIDTH 1080 0
DWIDTH 9 0
BBX 9 18 0 -4
BITMAP
1b00
2e00
0000
6100
7100
7100
5900
5900
4d00
4d00
4700
4700
4300
4100
0000
0000
0000
0000
ENDCHAR
STARTCHAR LtCapOTilde
ENCODING 668
SWIDTH 1080 0
DWIDTH 9 0
BBX 9 18 0 -4
BITMAP
1b00
2e00
0000
3e00
6300
6300
6300
6300
6300
6300
6300
6300
6300
3e00
0000
0000
0000
0000
ENDCHAR
STARTCHAR LtCapUTilde
ENCODING 669
SWIDTH 1080 0
DWIDTH 9 0
BBX 9 18 0 -4
BITMAP
1b00
2e00
0000
6300
6300
6300
6300
6300
6300
6300
6300
6300
6300
3e00
0000
0000
0000
0000
ENDCHAR
STARTCHAR LtCapVTilde
ENCODING 670
SWIDTH 1080 0
DWIDTH 9 0
BBX 9 18 0 -4
BITMAP
1b00
2e00
0000
6180
6100
6100
3300
3200
3200
1a00
1c00
1c00
0c00
0800
0000
0000
0000
0000
ENDCHAR
STARTCHAR LtCapYTilde
ENCODING 671
SWIDTH 1080 0
DWIDTH 9 0
BBX 9 18 0 -4
BITMAP
1b00
2e00
0000
6180
6100
3100
3200
1a00
1c00
0c00
0c00
0c00
0c00
0c00
0000
0000
0000
0000
ENDCHAR
STARTCHAR LtCapEpsTilde
ENCODING 672
SWIDTH 1080 0
DWIDTH 9 0
BBX 9 18 0 -4
BITMAP
1b00
2e00
0000
3e00
6300
6000
6000
2000
3c00
6000
6000
6000
6300
3e00
0000
0000
0000
0000
ENDCHAR
STARTCHAR LtCapCTrndTilde
ENCODING 673
SWIDTH 1080 0
DWIDTH 9 0
BBX 9 18 0 -4
BITMAP
3600
5c00
0000
3c00
6600
0300
0300
0300
0300
0300
0300
0300
6600
3c00
0000
0000
0000
0000
ENDCHAR
STARTCHAR LtSmlATilde
ENCODING 674
SWIDTH 1080 0
DWIDTH 9 0
BBX 9 18 0 -4
BITMAP
0000
0000
1200
3e00
2400
0000
3e00
3300
0300
3f00
6300
6300
6700
3b00
0000
0000
0000
0000
ENDCHAR
STARTCHAR LtSmlETilde
ENCODING 675
SWIDTH 1080 0
DWIDTH 9 0
BBX 9 18 0 -4
BITMAP
0000
0000
0900
1f00
1200
0000
1e00
3300
6300
7f00
6000
6000
3300
1e00
0000
0000
0000
0000
ENDCHAR
STARTCHAR LtSmlGTilde
ENCODING 676
SWIDTH 1080 0
DWIDTH 9 0
BBX 9 18 0 -4
BITMAP
0000
0000
1200
3e00
2400
0000
3d00
6700
6600
6600
3c00
6000
3e00
3f00
6100
6300
3e00
0000
ENDCHAR
STARTCHAR LtSmlITilde
ENCODING 677
SWIDTH 1080 0
DWIDTH 9 0
BBX 9 18 0 -4
BITMAP
0000
0000
1200
3e00
2400
0000
1c00
0c00
0c00
0c00
0c00
0c00
0c00
3f00
0000
0000
0000
0000
ENDCHAR
STARTCHAR LtSmlLTilde
ENCODING 678
SWIDTH 1080 0
DWIDTH 9 0
BBX 9 18 0 -4
BITMAP
1b00
2e00
0000
1c00
0c00
0c00
0c00
0c00
0c00
0c00
0c00
0c00
0c00
3f00
0000
0000
0000
0000
ENDCHAR
STARTCHAR LtSmlNTilde
ENCODING 679
SWIDTH 1080 0
DWIDTH 9 0
BBX 9 18 0 -4
BITMAP
0000
0000
1200
3e00
2400
0000
6e00
7300
6300
6300
6300
6300
6300
6300
0000
0000
0000
0000
ENDCHAR
STARTCHAR LtSmlOTilde
ENCODING 680
SWIDTH 1080 0
DWIDTH 9 0
BBX 9 18 0 -4
BITMAP
0000
0000
1200
3e00
2400
0000
3e00
6300
6300
6300
6300
6300
6300
3e00
0000
0000
0000
0000
ENDCHAR
STARTCHAR LtSmlUTilde
ENCODING 681
SWIDTH 1080 0
DWIDTH 9 0
BBX 9 18 0 -4
BITMAP
0000
0000
1200
3e00
2400
0000
6300
6300
6300
6300
6300
6300
6700
3b00
0000
0000
0000
0000
ENDCHAR
STARTCHAR LtSmlVTilde
ENCODING 682
SWIDTH 1080 0
DWIDTH 9 0
BBX 9 18 0 -4
BITMAP
0000
0000
1200
3e00
2400
0000
6180
6100
3200
3200
1a00
1c00
0c00
0800
0000
0000
0000
0000
ENDCHAR
STARTCHAR LtSmlYTilde
ENCODING 683
SWIDTH 1080 0
DWIDTH 9 0
BBX 9 18 0 -4
BITMAP
0000
0000
1200
3e00
2400
0000
6300
6300
3200
3200
1a00
1c00
0c00
0c00
0800
6800
7000
0000
ENDCHAR
STARTCHAR LtSmlEpsTilde
ENCODING 684
SWIDTH 1080 0
DWIDTH 9 0
BBX 9 18 0 -4
BITMAP
0000
0000
1200
3e00
2400
0000
3e00
6300
6000
3800
6000
6000
6300
3e00
0000
0000
0000
0000
ENDCHAR
STARTCHAR LtSmlAScrTilde
ENCODING 685
SWIDTH 1080 0
DWIDTH 9 0
BBX 9 18 0 -4
BITMAP
0000
0000
0900
1f00
1200
0000
1b00
3700
6300
6300
6300
6300
3700
1b80
0000
0000
0000
0000
ENDCHAR
STARTCHAR LtSmlANonscrTilde
ENCODING 686
SWIDTH 1080 0
DWIDTH 9 0
BBX 9 18 0 -4
BITMAP
0000
0000
1200
3e00
2400
0000
3e00
3300
0300
3f00
6300
6300
6700
3b00
0000
0000
0000
0000
ENDCHAR
STARTCHAR LtSmlATrndTilde
ENCODING 687
SWIDTH 1080 0
DWIDTH 9 0
BBX 9 18 0 -4
BITMAP
0000
0000
1200
3e00
2400
0000
ee00
7300
6300
6300
7e00
6000
6300
3e00
0000
0000
0000
0000
ENDCHAR
STARTCHAR LtSmlCTrndTilde
ENCODING 688
SWIDTH 1080 0
DWIDTH 9 0
BBX 9 18 0 -4
BITMAP
0000
0000
1200
3e00
2400
0000
3c00
6600
0300
0300
0300
0300
6600
3c00
0000
0000
0000
0000
ENDCHAR
STARTCHAR LtSmlAScrTrndTilde
ENCODING 689
SWIDTH 1080 0
DWIDTH 9 0
BBX 9 18 0 -4
BITMAP
0000
0000
1200
3e00
2400
0000
ec00
7600
6300
6300
6300
6300
7600
6c00
0000
0000
0000
0000
ENDCHAR
STARTCHAR LtSmlOETilde
ENCODING 690
SWIDTH 1080 0
DWIDTH 9 0
BBX 9 18 0 -4
BITMAP
0000
0000
0900
1f00
1200
0000
3f00
6d80
6d80
6f80
6c00
6c00
6d80
3f00
0000
0000
0000
0000
ENDCHAR
STARTCHAR LtCapOHornTilde
ENCODING 691
SWIDTH 1080 0
DWIDTH 9 0
BBX 9 18 0 -4
BITMAP
3400
5b80
0180
3f00
6300
6300
6300
6300
6300
6300
6300
6300
6300
3e00
0000
0000
0000
0000
ENDCHAR
STARTCHAR LtCapUHornTilde
ENCODING 692
SWIDTH 1080 0
DWIDTH 9 0
BBX 9 18 0 -4
BITMAP
1a00
2d80
0180
6300
6300
6300
6300
6300
6300
6300
6300
6300
6300
3e00
0000
0000
0000
0000
ENDCHAR
STARTCHAR LtSmlOHornTilde
ENCODING 693
SWIDTH 1080 0
DWIDTH 9 0
BBX 9 18 0 -4
BITMAP
0000
1200
3e00
2400
0380
0180
3f00
6300
6300
6300
6300
6300
6300
3e00
0000
0000
0000
0000
ENDCHAR
STARTCHAR LtSmlUHornTilde
ENCODING 694
SWIDTH 1080 0
DWIDTH 9 0
BBX 9 18 0 -4
BITMAP
0000
1200
3e00
2400
0380
0180
6300
6300
6300
6300
6300
6300
6700
3b00
0000
0000
0000
0000
ENDCHAR
STARTCHAR LtSmlAMacronTilde
ENCODING 695
SWIDTH 1080 0
DWIDTH 9 0
BBX 9 18 0 -4
BITMAP
1200
3e00
2400
3e00
3e00
0000
3e00
3300
0300
3f00
6300
6300
6700
3b00
0000
0000
0000
0000
ENDCHAR
STARTCHAR LtSmlEMacronTilde
ENCODING 696
SWIDTH 1080 0
DWIDTH 9 0
BBX 9 18 0 -4
BITMAP
0900
1f00
1200
1f00
1f00
0000
1e00
3300
6300
7f00
6000
6000
3300
1e00
0000
0000
0000
0000
ENDCHAR
STARTCHAR LtSmlIMacronTilde
ENCODING 697
SWIDTH 1080 0
DWIDTH 9 0
BBX 9 18 0 -4
BITMAP
1200
3e00
2400
3e00
3e00
0000
1c00
0c00
0c00
0c00
0c00
0c00
0c00
3f00
0000
0000
0000
0000
ENDCHAR
STARTCHAR LtSmlOMacronTilde
ENCODING 698
SWIDTH 1080 0
DWIDTH 9 0
BBX 9 18 0 -4
BITMAP
1200
3e00
2400
3e00
3e00
0000
3e00
6300
6300
6300
6300
6300
6300
3e00
0000
0000
0000
0000
ENDCHAR
STARTCHAR LtSmlUMacronTilde
ENCODING 699
SWIDTH 1080 0
DWIDTH 9 0
BBX 9 18 0 -4
BITMAP
1200
3e00
2400
3e00
3e00
0000
6300
6300
6300
6300
6300
6300
6700
3b00
0000
0000
0000
0000
ENDCHAR
STARTCHAR LtCapACircumTilde
ENCODING 700
SWIDTH 1080 0
DWIDTH 9 0
BBX 9 18 0 -4
BITMAP
1b00
2e00
0800
1c00
3600
0800
1800
1c00
2c00
2600
3e00
6600
4300
c300
0000
0000
0000
0000
ENDCHAR
STARTCHAR LtCapECircumTilde
ENCODING 701
SWIDTH 1080 0
DWIDTH 9 0
BBX 9 18 0 -4
BITMAP
1b00
2e00
0800
1c00
3600
7f00
6300
6000
6400
7c00
6400
6000
6300
7f00
0000
0000
0000
0000
ENDCHAR
STARTCHAR LtCapOCircumTilde
ENCODING 702
SWIDTH 1080 0
DWIDTH 9 0
BBX 9 18 0 -4
BITMAP
1b00
2e00
0800
1c00
3600
3e00
6300
6300
6300
6300
6300
6300
6300
3e00
0000
0000
0000
0000
ENDCHAR
STARTCHAR LtSmlACircumTilde
ENCODING 703
SWIDTH 1080 0
DWIDTH 9 0
BBX 9 18 0 -4
BITMAP
1b00
2e00
0800
1c00
3600
0000
3e00
3300
0300
3f00
6300
6300
6700
3b00
0000
0000
0000
0000
ENDCHAR
STARTCHAR LtSmlECircumTilde
ENCODING 704
SWIDTH 1080 0
DWIDTH 9 0
BBX 9 18 0 -4
BITMAP
1b00
2e00
0800
1c00
3600
0000
1e00
3300
6300
7f00
6000
6000
3300
1e00
0000
0000
0000
0000
ENDCHAR
STARTCHAR LtSmlOCircumTilde
ENCODING 705
SWIDTH 1080 0
DWIDTH 9 0
BBX 9 18 0 -4
BITMAP
1b00
2e00
0800
1c00
3600
0000
3e00
6300
6300
6300
6300
6300
6300
3e00
0000
0000
0000
0000
ENDCHAR
STARTCHAR LtCapABreveTilde
ENCODING 706
SWIDTH 1080 0
DWIDTH 9 0
BBX 9 18 0 -4
BITMAP
1b00
2e00
0000
6300
3e00
0800
1800
1c00
2c00
2600
3e00
6600
4300
c300
0000
0000
0000
0000
ENDCHAR
STARTCHAR LtSmlABreveTilde
ENCODING 707
SWIDTH 1080 0
DWIDTH 9 0
BBX 9 18 0 -4
BITMAP
1b00
2e00
0000
6300
3e00
0000
3e00
3300
0300
3f00
6300
6300
6700
3b00
0000
0000
0000
0000
ENDCHAR
STARTCHAR LtCapAVhook
ENCODING 708
SWIDTH 1080 0
DWIDTH 9 0
BBX 9 18 0 -4
BITMAP
1c00
0600
0c00
0800
1800
1c00
1c00
2c00
2600
2600
7e00
4300
4300
c300
0000
0000
0000
0000
ENDCHAR
STARTCHAR LtCapEVhook
ENCODING 709
SWIDTH 1080 0
DWIDTH 9 0
BBX 9 18 0 -4
BITMAP
3800
0c00
0800
7f00
6300
6100
6000
6400
7c00
6400
6000
6100
6300
7f00
0000
0000
0000
0000
ENDCHAR
STARTCHAR LtCapIVhook
ENCODING 710
SWIDTH 1080 0
DWIDTH 9 0
BBX 9 18 0 -4
BITMAP
1c00
0600
0400
3f00
0c00
0c00
0c00
0c00
0c00
0c00
0c00
0c00
0c00
3f00
0000
0000
0000
0000
ENDCHAR
STARTCHAR LtCapOVhook
ENCODING 711
SWIDTH 1080 0
DWIDTH 9 0
BBX 9 18 0 -4
BITMAP
3800
0c00
0800
3e00
6300
6300
6300
6300
6300
6300
6300
6300
6300
3e00
0000
0000
0000
0000
ENDCHAR
STARTCHAR LtCapUVhook
ENCODING 712
SWIDTH 1080 0
DWIDTH 9 0
BBX 9 18 0 -4
BITMAP
3800
0c00
1800
4300
6300
6300
6300
6300
6300
6300
6300
6300
6300
3e00
0000
0000
0000
0000
ENDCHAR
STARTCHAR LtCapYVhook
ENCODING 713
SWIDTH 1080 0
DWIDTH 9 0
BBX 9 18 0 -4
BITMAP
1c00
0600
0c00
6180
6100
3100
3200
1a00
1c00
0c00
0c00
0c00
0c00
0c00
0000
0000
0000
0000
ENDCHAR
STARTCHAR LtSmlAVhook
ENCODING 714
SWIDTH 1080 0
DWIDTH 9 0
BBX 9 18 0 -4
BITMAP
0000
0000
1c00
0600
0c00
0000
3e00
3300
0300
3f00
6300
6300
6700
3b00
0000
0000
0000
0000
ENDCHAR
STARTCHAR LtSmlEVhook
ENCODING 715
SWIDTH 1080 0
DWIDTH 9 0
BBX 9 18 0 -4
BITMAP
0000
0000
1c00
0600
0c00
0000
1e00
3300
6300
7f00
6000
6000
3300
1e00
0000
0000
0000
0000
ENDCHAR
STARTCHAR LtSmlIVhook
ENCODING 716
SWIDTH 1080 0
DWIDTH 9 0
BBX 9 18 0 -4
BITMAP
0000
0000
1c00
0600
0c00
0000
1c00
0c00
0c00
0c00
0c00
0c00
0c00
3f00
0000
0000
0000
0000
ENDCHAR
STARTCHAR LtSmlOVhook
ENCODING 717
SWIDTH 1080 0
DWIDTH 9 0
BBX 9 18 0 -4
BITMAP
0000
0000
3800
0c00
1800
0000
3e00
6300
6300
6300
6300
6300
6300
3e00
0000
0000
0000
0000
ENDCHAR
STARTCHAR LtSmlUVhook
ENCODING 718
SWIDTH 1080 0
DWIDTH 9 0
BBX 9 18 0 -4
BITMAP
0000
0000
1c00
0600
0c00
0000
6300
6300
6300
6300
6300
6300
6700
3b00
0000
0000
0000
0000
ENDCHAR
STARTCHAR LtSmlYVhook
ENCODING 719
SWIDTH 1080 0
DWIDTH 9 0
BBX 9 18 0 -4
BITMAP
0000
0000
1c00
0600
0c00
0000
6300
6300
3200
3200
1a00
1c00
0c00
0c00
0800
6800
7000
0000
ENDCHAR
STARTCHAR LtCapOHornVhook
ENCODING 720
SWIDTH 1080 0
DWIDTH 9 0
BBX 9 18 0 -4
BITMAP
7000
1b80
1180
3f00
6300
6300
6300
6300
6300
6300
6300
6300
6300
3e00
0000
0000
0000
0000
ENDCHAR
STARTCHAR LtCapUHornVhook
ENCODING 721
SWIDTH 1080 0
DWIDTH 9 0
BBX 9 18 0 -4
BITMAP
3800
0d80
1980
4300
6300
6300
6300
6300
6300
6300
6300
6300
6300
3e00
0000
0000
0000
0000
ENDCHAR
STARTCHAR LtSmlOHornVhook
ENCODING 722
SWIDTH 1080 0
DWIDTH 9 0
BBX 9 18 0 -4
BITMAP
0000
0000
3800
0c00
1b80
0180
3f00
6300
6300
6300
6300
6300
6300
3e00
0000
0000
0000
0000
ENDCHAR
STARTCHAR LtSmlUHornVhook
ENCODING 723
SWIDTH 1080 0
DWIDTH 9 0
BBX 9 18 0 -4
BITMAP
0000
0000
3800
0c00
1b80
0180
6300
6300
6300
6300
6300
6300
6700
3b00
0000
0000
0000
0000
ENDCHAR
STARTCHAR LtCapACircumVhook
ENCODING 724
SWIDTH 1080 0
DWIDTH 9 0
BBX 9 18 0 -4
BITMAP
0e00
0300
1a00
3c00
2400
0800
1800
1c00
2c00
2600
3e00
6600
4300
c300
0000
0000
0000
0000
ENDCHAR
STARTCHAR LtCapECircumVhook
ENCODING 725
SWIDTH 1080 0
DWIDTH 9 0
BBX 9 18 0 -4
BITMAP
0e00
0300
1a00
3c00
2400
7f00
6300
6000
6400
7c00
6400
6000
6300
7f00
0000
0000
0000
0000
ENDCHAR
STARTCHAR LtCapOCircumVhook
ENCODING 726
SWIDTH 1080 0
DWIDTH 9 0
BBX 9 18 0 -4
BITMAP
0e00
0300
1a00
3c00
2400
3e00
6300
6300
6300
6300
6300
6300
6300
3e00
0000
0000
0000
0000
ENDCHAR
STARTCHAR LtSmlACircumVhook
ENCODING 727
SWIDTH 1080 0
DWIDTH 9 0
BBX 9 18 0 -4
BITMAP
0700
0180
0d00
1e00
1200
0000
3e00
3300
0300
3f00
6300
6300
6700
3b00
0000
0000
0000
0000
ENDCHAR
STARTCHAR LtSmlECircumVhook
ENCODING 728
SWIDTH 1080 0
DWIDTH 9 0
BBX 9 18 0 -4
BITMAP
0700
0180
0d00
1e00
1200
0000
1e00
3300
6300
7f00
6000
6000
3300
1e00
0000
0000
0000
0000
ENDCHAR
STARTCHAR LtSmlOCircumVhook
ENCODING 729
SWIDTH 1080 0
DWIDTH 9 0
BBX 9 18 0 -4
BITMAP
0e00
0300
1a00
3c00
2400
0000
3e00
6300
6300
6300
6300
6300
6300
3e00
0000
0000
0000
0000
ENDCHAR
STARTCHAR LtCapABreveVhook
ENCODING 730
SWIDTH 1080 0
DWIDTH 9 0
BBX 9 18 0 -4
BITMAP
3800
0c00
1800
6300
3e00
0800
1800
1c00
2c00
2600
3e00
6600
4300
c300
0000
0000
0000
0000
ENDCHAR
STARTCHAR LtSmlABreveVhook
ENCODING 731
SWIDTH 1080 0
DWIDTH 9 0
BBX 9 18 0 -4
BITMAP
3800
0c00
1800
6300
3e00
0000
3e00
3300
0300
3f00
6300
6300
6700
3b00
0000
0000
0000
0000
ENDCHAR
STARTCHAR LtSmlNApostr
ENCODING 732
SWIDTH 1080 0
DWIDTH 9 0
BBX 9 18 0 -4
BITMAP
0000
0000
c000
c000
4000
8000
6e00
7300
6300
6300
6300
6300
6300
6300
0000
0000
0000
0000
ENDCHAR
STARTCHAR LtCapLMdot
ENCODING 733
SWIDTH 1080 0
DWIDTH 9 0
BBX 9 18 0 -4
BITMAP
0000
0000
0000
6000
6000
6000
6000
6300
6300
6000
6000
6100
6300
7f00
0000
0000
0000
0000
ENDCHAR
STARTCHAR LtSmlLMdot
ENCODING 734
SWIDTH 1080 0
DWIDTH 9 0
BBX 9 18 0 -4
BITMAP
0000
0000
0000
3800
1800
1800
1800
1980
1980
1800
1800
1800
1800
7e00
0000
0000
0000
0000
ENDCHAR
STARTCHAR LtCapALdot
ENCODING 735
SWIDTH 1080 0
DWIDTH 9 0
BBX 9 18 0 -4
BITMAP
0000
0000
0000
0800
1800
1c00
1c00
2c00
2600
2600
7e00
4300
4300
c300
0000
1800
1800
0000
ENDCHAR
STARTCHAR LtCapBLdot
ENCODING 736
SWIDTH 1080 0
DWIDTH 9 0
BBX 9 18 0 -4
BITMAP
0000
0000
0000
7e00
6300
6300
6300
6200
7e00
6300
6300
6300
6300
7e00
0000
1800
1800
0000
ENDCHAR
STARTCHAR LtCapCLdot
ENCODING 737
SWIDTH 1080 0
DWIDTH 9 0
BBX 9 18 0 -4
BITMAP
0000
0000
0000
1f00
3300
6100
6000
6000
6000
6000
6000
6000
3300
1e00
0000
0c00
0c00
0000
ENDCHAR
STARTCHAR LtCapDLdot
ENCODING 738
SWIDTH 1080 0
DWIDTH 9 0
BBX 9 18 0 -4
BITMAP
0000
0000
0000
7c00
6600
6300
6300
6300
6300
6300
6300
6300
6600
7c00
0000
1800
1800
0000
ENDCHAR
STARTCHAR LtCapELdot
ENCODING 739
SWIDTH 1080 0
DWIDTH 9 0
BBX 9 18 0 -4
BITMAP
0000
0000
0000
7f00
6300
6100
6000
6400
7c00
6400
6000
6100
6300
7f00
0000
1800
1800
0000
ENDCHAR
STARTCHAR LtCapHLdot
ENCODING 740
SWIDTH 1080 0
DWIDTH 9 0
BBX 9 18 0 -4
BITMAP
0000
0000
0000
6300
6300
6300
6300
6300
7f00
6300
6300
6300
6300
6300
0000
1800
1800
0000
ENDCHAR
STARTCHAR LtCapILdot
ENCODING 741
SWIDTH 1080 0
DWIDTH 9 0
BBX 9 18 0 -4
BITMAP
0000
0000
0000
3f00
0c00
0c00
0c00
0c00
0c00
0c00
0c00
0c00
0c00
3f00
0000
0c00
0c00
0000
ENDCHAR
STARTCHAR LtCapKLdot
ENCODING 742
SWIDTH 1080 0
DWIDTH 9 0
BBX 9 18 0 -4
BITMAP
0000
0000
0000
6300
6200
6600
6400
6800
7c00
7c00
6600
6600
6300
6300
0000
1800
1800
0000
ENDCHAR
STARTCHAR LtCapLLdot
ENCODING 743
SWIDTH 1080 0
DWIDTH 9 0
BBX 9 18 0 -4
BITMAP
0000
0000
0000
6000
6000
6000
6000
6000
6000
6000
6000
6100
6300
7f00
0000
1800
1800
0000
ENDCHAR
STARTCHAR LtCapMLdot
ENCODING 744
SWIDTH 1080 0
DWIDTH 9 0
BBX 9 18 0 -4
BITMAP
0000
0000
0000
6300
6300
7700
7700
7f00
5b00
5b00
4300
4300
4300
4300
0000
1800
1800
0000
ENDCHAR
STARTCHAR LtCapNLdot
ENCODING 745
SWIDTH 1080 0
DWIDTH 9 0
BBX 9 18 0 -4
BITMAP
0000
0000
0000
6100
7100
7100
5900
5900
4d00
4d00
4700
4700
4300
4100
0000
1800
1800
0000
ENDCHAR
STARTCHAR LtCapOLdot
ENCODING 746
SWIDTH 1080 0
DWIDTH 9 0
BBX 9 18 0 -4
BITMAP
0000
0000
0000
3e00
6300
6300
6300
6300
6300
6300
6300
6300
6300
3e00
0000
1800
1800
0000
ENDCHAR
STARTCHAR LtCapPLdot
ENCODING 747
SWIDTH 1080 0
DWIDTH 9 0
BBX 9 18 0 -4
BITMAP
0000
0000
0000
7e00
6300
6300
6300
6300
7e00
6000
6000
6000
6000
6000
0000
6000
6000
0000
ENDCHAR
STARTCHAR LtCapQLdot
ENCODING 748
SWIDTH 1080 0
DWIDTH 9 0
BBX 9 18 0 -4
BITMAP
0000
0000
0000
3e00
6300
6300
6300
6300
6300
6300
6300
7b00
6b00
3e00
0600
1b80
1800
0000
ENDCHAR
STARTCHAR LtCapRLdot
ENCODING 749
SWIDTH 1080 0
DWIDTH 9 0
BBX 9 18 0 -4
BITMAP
0000
0000
0000
7e00
6300
6300
6300
6300
7e00
6c00
6600
6600
6300
6300
0000
1800
1800
0000
ENDCHAR
STARTCHAR LtCapSLdot
ENCODING 750
SWIDTH 1080 0
DWIDTH 9 0
BBX 9 18 0 -4
BITMAP
0000
0000
0000
3f00
6300
6100
6000
3800
1e00
0600
0300
4300
6300
7e00
0000
1800
1800
0000
ENDCHAR
STARTCHAR LtCapTLdot
ENCODING 751
SWIDTH 1080 0
DWIDTH 9 0
BBX 9 18 0 -4
BITMAP
0000
0000
0000
7f80
6d80
4c80
0c00
0c00
0c00
0c00
0c00
0c00
0c00
0c00
0000
0c00
0c00
0000
ENDCHAR
STARTCHAR LtCapULdot
ENCODING 752
SWIDTH 1080 0
DWIDTH 9 0
BBX 9 18 0 -4
BITMAP
0000
0000
0000
6300
6300
6300
6300
6300
6300
6300
6300
6300
6300
3e00
0000
1800
1800
0000
ENDCHAR
STARTCHAR LtCapVLdot
ENCODING 753
SWIDTH 1080 0
DWIDTH 9 0
BBX 9 18 0 -4
BITMAP
0000
0000
0000
6180
6100
6100
3300
3200
3200
1a00
1c00
1c00
0c00
0800
0000
0c00
0c00
0000
ENDCHAR
STARTCHAR LtCapWLdot
ENCODING 754
SWIDTH 1080 0
DWIDTH 9 0
BBX 9 18 0 -4
BITMAP
0000
0000
0000
6080
6080
6080
6480
6480
6e80
7f80
3700
3300
3300
3300
0000
0c00
0c00
0000
ENDCHAR
STARTCHAR LtCapYLdot
ENCODING 755
SWIDTH 1080 0
DWIDTH 9 0
BBX 9 18 0 -4
BITMAP
0000
0000
0000
6180
6100
3100
3200
1a00
1c00
0c00
0c00
0c00
0c00
0c00
0000
0c00
0c00
0000
ENDCHAR
STARTCHAR LtCapZLdot
ENCODING 756
SWIDTH 1080 0
DWIDTH 9 0
BBX 9 18 0 -4
BITMAP
0000
0000
0000
7f00
6300
4600
0600
0c00
1800
1800
3000
3100
6300
7f00
0000
1800
1800
0000
ENDCHAR
STARTCHAR LtSmlALdot
ENCODING 757
SWIDTH 1080 0
DWIDTH 9 0
BBX 9 18 0 -4
BITMAP
0000
0000
0000
0000
0000
0000
3e00
3300
0300
3f00
6300
6300
6700
3b00
0000
1800
1800
0000
ENDCHAR
STARTCHAR LtSmlBLdot
ENCODING 758
SWIDTH 1080 0
DWIDTH 9 0
BBX 9 18 0 -4
BITMAP
0000
0000
0000
6000
6000
6000
6e00
7300
6300
6300
6300
6300
7300
6e00
0000
1800
1800
0000
ENDCHAR
STARTCHAR LtSmlCLdot
ENCODING 759
SWIDTH 1080 0
DWIDTH 9 0
BBX 9 18 0 -4
BITMAP
0000
0000
0000
0000
0000
0000
1e00
3300
6000
6000
6000
6000
3300
1e00
0000
0c00
0c00
0000
ENDCHAR
STARTCHAR LtSmlDLdot
ENCODING 760
SWIDTH 1080 0
DWIDTH 9 0
BBX 9 18 0 -4
BITMAP
0000
0000
0000
0300
0300
0300
3b00
6700
6300
6300
6300
6300
6700
3b00
0000
1800
1800
0000
ENDCHAR
STARTCHAR LtSmlELdot
ENCODING 761
SWIDTH 1080 0
DWIDTH 9 0
BBX 9 18 0 -4
BITMAP
0000
0000
0000
0000
0000
0000
1e00
3300
6300
7f00
6000
6000
3300
1e00
0000
0c00
0c00
0000
ENDCHAR
STARTCHAR LtSmlHLdot
ENCODING 762
SWIDTH 1080 0
DWIDTH 9 0
BBX 9 18 0 -4
BITMAP
0000
0000
0000
6000
6000
6000
6e00
7300
6300
6300
6300
6300
6300
6300
0000
1800
1800
0000
ENDCHAR
STARTCHAR LtSmlILdot
ENCODING 763
SWIDTH 1080 0
DWIDTH 9 0
BBX 9 18 0 -4
BITMAP
0000
0000
0c00
0c00
0000
0000
1c00
0c00
0c00
0c00
0c00
0c00
0c00
3f00
0000
0c00
0c00
0000
ENDCHAR
STARTCHAR LtSmlKLdot
ENCODING 764
SWIDTH 1080 0
DWIDTH 9 0
BBX 9 18 0 -4
BITMAP
0000
0000
0000
6000
6000
6000
6300
6200
6400
6c00
7c00
6600
6300
6300
0000
1800
1800
0000
ENDCHAR
STARTCHAR LtSmlLLdot
ENCODING 765
SWIDTH 1080 0
DWIDTH 9 0
BBX 9 18 0 -4
BITMAP
0000
0000
0000
1c00
0c00
0c00
0c00
0c00
0c00
0c00
0c00
0c00
0c00
3f00
0000
0c00
0c00
0000
ENDCHAR
STARTCHAR LtSmlMLdot
ENCODING 766
SWIDTH 1080 0
DWIDTH 9 0
BBX 9 18 0 -4
BITMAP
0000
0000
0000
0000
0000
0000
5600
7f00
6b00
6b00
6b00
6b00
6b00
6b00
0000
1800
1800
0000
ENDCHAR
STARTCHAR LtSmlNLdot
ENCODING 767
SWIDTH 1080 0
DWIDTH 9 0
BBX 9 18 0 -4
BITMAP
0000
0000
0000
0000
0000
0000
6e00
7300
6300
6300
6300
6300
6300
6300
0000
1800
1800
0000
ENDCHAR
STARTCHAR LtSmlOLdot
ENCODING 768
SWIDTH 1080 0
DWIDTH 9 0
BBX 9 18 0 -4
BITMAP
0000
0000
0000
0000
0000
0000
3e00
6300
6300
6300
6300
6300
6300
3e00
0000
1800
1800
0000
ENDCHAR
STARTCHAR LtSmlPLdot
ENCODING 769
SWIDTH 1080 0
DWIDTH 9 0
BBX 9 18 0 -4
BITMAP
0000
0000
0000
0000
0000
0000
6e00
7300
6300
6300
6300
6300
7300
6e00
6000
6c00
6c00
0000
ENDCHAR
STARTCHAR LtSmlQLdot
ENCODING 770
SWIDTH 1080 0
DWIDTH 9 0
BBX 9 18 0 -4
BITMAP
0000
0000
0000
0000
0000
0000
3b00
6700
6300
6300
6300
6300
6700
3b00
0300
1b00
1b00
0000
ENDCHAR
STARTCHAR LtSmlRLdot
ENCODING 771
SWIDTH 1080 0
DWIDTH 9 0
BBX 9 18 0 -4
BITMAP
0000
0000
0000
0000
0000
0000
7700
3b00
3100
3000
3000
3000
3000
3000
0000
3000
3000
0000
ENDCHAR
STARTCHAR LtSmlSLdot
ENCODING 772
SWIDTH 1080 0
DWIDTH 9 0
BBX 9 18 0 -4
BITMAP
0000
0000
0000
0000
0000
0000
3e00
6300
7000
3c00
0e00
0300
6300
3e00
0000
1800
1800
0000
ENDCHAR
STARTCHAR LtSmlTLdot
ENCODING 773
SWIDTH 1080 0
DWIDTH 9 0
BBX 9 18 0 -4
BITMAP
0000
0000
0000
0000
1800
1800
7e00
1800
1800
1800
1800
1800
1b00
0e00
0000
0c00
0c00
0000
ENDCHAR
STARTCHAR LtSmlULdot
ENCODING 774
SWIDTH 1080 0
DWIDTH 9 0
BBX 9 18 0 -4
BITMAP
0000
0000
0000
0000
0000
0000
6300
6300
6300
6300
6300
6300
6700
3b00
0000
1800
1800
0000
ENDCHAR
STARTCHAR LtSmlVLdot
ENCODING 775
SWIDTH 1080 0
DWIDTH 9 0
BBX 9 18 0 -4
BITMAP
0000
0000
0000
0000
0000
0000
6180
6100
3200
3200
1a00
1c00
0c00
0800
0000
0c00
0c00
0000
ENDCHAR
STARTCHAR LtSmlWLdot
ENCODING 776
SWIDTH 1080 0
DWIDTH 9 0
BBX 9 18 0 -4
BITMAP
0000
0000
0000
0000
0000
0000
6080
6080
6480
6480
6e80
3f00
3300
3300
0000
0c00
0c00
0000
ENDCHAR
STARTCHAR LtSmlYLdot
ENCODING 777
SWIDTH 1080 0
DWIDTH 9 0
BBX 9 18 0 -4
BITMAP
0000
0000
0000
0000
0000
0000
6300
6300
3200
3200
1a00
1c00
0c00
0c00
0800
6b00
7300
0000
ENDCHAR
STARTCHAR LtSmlZLdot
ENCODING 778
SWIDTH 1080 0
DWIDTH 9 0
BBX 9 18 0 -4
BITMAP
0000
0000
0000
0000
0000
0000
7f00
6700
4600
0c00
1800
3100
7300
7f00
0000
1800
1800
0000
ENDCHAR
STARTCHAR LtCapOHornLdot
ENCODING 779
SWIDTH 1080 0
DWIDTH 9 0
BBX 9 18 0 -4
BITMAP
0000
0380
0180
3f00
6300
6300
6300
6300
6300
6300
6300
6300
6300
3e00
0000
1800
1800
0000
ENDCHAR
STARTCHAR LtCapUHornLdot
ENCODING 780
SWIDTH 1080 0
DWIDTH 9 0
BBX 9 18 0 -4
BITMAP
0000
0380
0180
6300
6300
6300
6300
6300
6300
6300
6300
6300
6300
3e00
0000
1800
1800
0000
ENDCHAR
STARTCHAR LtSmlOHornLdot
ENCODING 781
SWIDTH 1080 0
DWIDTH 9 0
BBX 9 18 0 -4
BITMAP
0000
0000
0000
0000
0380
0180
3f00
6300
6300
6300
6300
6300
6300
3e00
0000
1800
1800
0000
ENDCHAR
STARTCHAR LtSmlUHornLdot
ENCODING 782
SWIDTH 1080 0
DWIDTH 9 0
BBX 9 18 0 -4
BITMAP
0000
0000
0000
0000
0380
0180
6300
6300
6300
6300
6300
6300
6700
3b00
0000
1800
1800
0000
ENDCHAR
STARTCHAR LtCapSDotLdot
ENCODING 783
SWIDTH 1080 0
DWIDTH 9 0
BBX 9 18 0 -4
BITMAP
0c00
0c00
0000
3f00
6300
6100
6000
3800
1e00
0600
0300
4300
6300
7e00
0000
1800
1800
0000
ENDCHAR
STARTCHAR LtSmlSDotLdot
ENCODING 784
SWIDTH 1080 0
DWIDTH 9 0
BBX 9 18 0 -4
BITMAP
0000
0000
0c00
0c00
0000
0000
3e00
6300
7000
3c00
0e00
0300
6300
3e00
0000
0c00
0c00
0000
ENDCHAR
STARTCHAR LtCapLMacronLdot
ENCODING 785
SWIDTH 1080 0
DWIDTH 9 0
BBX 9 18 0 -4
BITMAP
3e00
3e00
0000
6000
6000
6000
6000
6000
6000
6000
6000
6100
6300
7f00
0000
1800
1800
0000
ENDCHAR
STARTCHAR LtCapRMacronLdot
ENCODING 786
SWIDTH 1080 0
DWIDTH 9 0
BBX 9 18 0 -4
BITMAP
3e00
3e00
0000
7e00
6300
6300
6300
6300
7e00
6c00
6600
6600
6300
6300
0000
1800
1800
0000
ENDCHAR
STARTCHAR LtSmlLMacronLdot
ENCODING 787
SWIDTH 1080 0
DWIDTH 9 0
BBX 9 18 0 -4
BITMAP
3e00
3e00
0000
1c00
0c00
0c00
0c00
0c00
0c00
0c00
0c00
0c00
0c00
3f00
0000
0c00
0c00
0000
ENDCHAR
STARTCHAR LtSmlRMacronLdot
ENCODING 788
SWIDTH 1080 0
DWIDTH 9 0
BBX 9 18 0 -4
BITMAP
0000
0000
0000
3e00
3e00
0000
7700
3b00
3100
3000
3000
3000
3000
3000
0000
3000
3000
0000
ENDCHAR
STARTCHAR LtCapEAcuteLdot
ENCODING 789
SWIDTH 1080 0
DWIDTH 9 0
BBX 9 18 0 -4
BITMAP
0e00
1800
0000
7f00
6300
6100
6000
6400
7c00
6400
6000
6100
6300
7f00
0000
1800
1800
0000
ENDCHAR
STARTCHAR LtCapOAcuteLdot
ENCODING 790
SWIDTH 1080 0
DWIDTH 9 0
BBX 9 18 0 -4
BITMAP
0700
0c00
0000
3e00
6300
6300
6300
6300
6300
6300
6300
6300
6300
3e00
0000
1800
1800
0000
ENDCHAR
STARTCHAR LtCapRAcuteLdot
ENCODING 791
SWIDTH 1080 0
DWIDTH 9 0
BBX 9 18 0 -4
BITMAP
0e00
1800
0000
7e00
6300
6300
6300
6300
7e00
6c00
6600
6600
6300
6300
0000
1800
1800
0000
ENDCHAR
STARTCHAR LtSmlEAcuteLdot
ENCODING 792
SWIDTH 1080 0
DWIDTH 9 0
BBX 9 18 0 -4
BITMAP
0000
0000
0600
0c00
0800
0000
1e00
3300
6300
7f00
6000
6000
3300
1e00
0000
0c00
0c00
0000
ENDCHAR
STARTCHAR LtSmlOAcuteLdot
ENCODING 793
SWIDTH 1080 0
DWIDTH 9 0
BBX 9 18 0 -4
BITMAP
0000
0000
0600
0c00
0800
0000
3e00
6300
6300
6300
6300
6300
6300
3e00
0000
1800
1800
0000
ENDCHAR
STARTCHAR LtSmlRAcuteLdot
ENCODING 794
SWIDTH 1080 0
DWIDTH 9 0
BBX 9 18 0 -4
BITMAP
0000
0000
0600
0c00
0800
0000
7700
3b00
3100
3000
3000
3000
3000
3000
0000
3000
3000
0000
ENDCHAR
STARTCHAR LtSmlRMacronAcuteLdot
ENCODING 795
SWIDTH 1080 0
DWIDTH 9 0
BBX 9 18 0 -4
BITMAP
0e00
1800
0000
3e00
3e00
0000
7700
3b00
3100
3000
3000
3000
3000
3000
0000
3000
3000
0000
ENDCHAR
STARTCHAR LtCapEGraveLdot
ENCODING 796
SWIDTH 1080 0
DWIDTH 9 0
BBX 9 18 0 -4
BITMAP
3800
0c00
0000
7f00
6300
6100
6000
6400
7c00
6400
6000
6100
6300
7f00
0000
1800
1800
0000
ENDCHAR
STARTCHAR LtCapOGraveLdot
ENCODING 797
SWIDTH 1080 0
DWIDTH 9 0
BBX 9 18 0 -4
BITMAP
3800
0c00
0000
3e00
6300
6300
6300
6300
6300
6300
6300
6300
6300
3e00
0000
1800
1800
0000
ENDCHAR
STARTCHAR LtCapRGraveLdot
ENCODING 798
SWIDTH 1080 0
DWIDTH 9 0
BBX 9 18 0 -4
BITMAP
3800
0c00
0000
7e00
6300
6300
6300
6300
7e00
6c00
6600
6600
6300
6300
0000
1800
1800
0000
ENDCHAR
STARTCHAR LtSmlEGraveLdot
ENCODING 799
SWIDTH 1080 0
DWIDTH 9 0
BBX 9 18 0 -4
BITMAP
0000
0000
1800
0c00
0400
0000
1e00
3300
6300
7f00
6000
6000
3300
1e00
0000
0c00
0c00
0000
ENDCHAR
STARTCHAR LtSmlOGraveLdot
ENCODING 800
SWIDTH 1080 0
DWIDTH 9 0
BBX 9 18 0 -4
BITMAP
0000
0000
3000
1800
0800
0000
3e00
6300
6300
6300
6300
6300
6300
3e00
0000
1800
1800
0000
ENDCHAR
STARTCHAR LtSmlRGraveLdot
ENCODING 801
SWIDTH 1080 0
DWIDTH 9 0
BBX 9 18 0 -4
BITMAP
0000
0000
3000
1800
0800
0000
7700
3b00
3100
3000
3000
3000
3000
3000
0000
3000
3000
0000
ENDCHAR
STARTCHAR LtCapACircumLdot
ENCODING 802
SWIDTH 1080 0
DWIDTH 9 0
BBX 9 18 0 -4
BITMAP
1800
3c00
2400
0000
1800
1c00
1c00
2c00
2600
2600
7e00
4300
4300
c300
0000
1800
1800
0000
ENDCHAR
STARTCHAR LtCapECircumLdot
ENCODING 803
SWIDTH 1080 0
DWIDTH 9 0
BBX 9 18 0 -4
BITMAP
0800
1c00
3600
0000
7f00
6300
6000
6400
7c00
6400
6000
6100
6300
7f00
0000
1800
1800
0000
ENDCHAR
STARTCHAR LtCapOCircumLdot
ENCODING 804
SWIDTH 1080 0
DWIDTH 9 0
BBX 9 18 0 -4
BITMAP
0800
1c00
3600
0000
3e00
6300
6300
6300
6300
6300
6300
6300
6300
3e00
0000
1800
1800
0000
ENDCHAR
STARTCHAR LtSmlACircumLdot
ENCODING 805
SWIDTH 1080 0
DWIDTH 9 0
BBX 9 18 0 -4
BITMAP
0000
0000
0c00
1e00
1200
0000
3e00
3300
0300
3f00
6300
6300
6700
3b00
0000
1800
1800
0000
ENDCHAR
STARTCHAR LtSmlECircumLdot
ENCODING 806
SWIDTH 1080 0
DWIDTH 9 0
BBX 9 18 0 -4
BITMAP
0000
0000
0c00
1e00
1200
0000
1e00
3300
6300
7f00
6000
6000
3300
1e00
0000
0c00
0c00
0000
ENDCHAR
STARTCHAR LtSmlOCircumLdot
ENCODING 807
SWIDTH 1080 0
DWIDTH 9 0
BBX 9 18 0 -4
BITMAP
0000
0000
0800
1c00
3600
0000
3e00
6300
6300
6300
6300
6300
6300
3e00
0000
1800
1800
0000
ENDCHAR
STARTCHAR LtCapCCaronLdot
ENCODING 808
SWIDTH 1080 0
DWIDTH 9 0
BBX 9 18 0 -4
BITMAP
1200
1e00
0c00
0000
1f00
3300
6100
6000
6000
6000
6000
6000
3300
1e00
0000
0c00
0c00
0000
ENDCHAR
STARTCHAR LtSmlCCaronLdot
ENCODING 809
SWIDTH 1080 0
DWIDTH 9 0
BBX 9 18 0 -4
BITMAP
0000
0000
1200
1e00
0c00
0000
1e00
3300
6000
6000
6000
6000
3300
1e00
0000
0c00
0c00
0000
ENDCHAR
STARTCHAR LtCapABreveLdot
ENCODING 810
SWIDTH 1080 0
DWIDTH 9 0
BBX 9 18 0 -4
BITMAP
2200
3600
1c00
0000
1800
1c00
1c00
2c00
2600
2600
7e00
4300
4300
c300
0000
1800
1800
0000
ENDCHAR
STARTCHAR LtSmlABreveLdot
ENCODING 811
SWIDTH 1080 0
DWIDTH 9 0
BBX 9 18 0 -4
BITMAP
0000
0000
2200
3600
1c00
0000
3e00
3300
0300
3f00
6300
6300
6700
3b00
0000
1800
1800
0000
ENDCHAR
STARTCHAR LtSmlLLvline
ENCODING 812
SWIDTH 1080 0
DWIDTH 9 0
BBX 9 18 0 -4
BITMAP
0000
0000
0000
1c00
0c00
0c00
0c00
0c00
0c00
0c00
0c00
0c00
0c00
3f00
0c00
0c00
0c00
0000
ENDCHAR
STARTCHAR LtSmlMLvline
ENCODING 813
SWIDTH 1080 0
DWIDTH 9 0
BBX 9 18 0 -4
BITMAP
0000
0000
0000
0000
0000
0000
5600
7f00
6b00
6b00
6b00
6b00
6b00
6b00
1800
1800
1800
0000
ENDCHAR
STARTCHAR LtSmlNLvline
ENCODING 814
SWIDTH 1080 0
DWIDTH 9 0
BBX 9 18 0 -4
BITMAP
0000
0000
0000
0000
0000
0000
6e00
7300
6300
6300
6300
6300
6300
6300
1800
1800
1800
0000
ENDCHAR
STARTCHAR LtSmlRLvline
ENCODING 815
SWIDTH 1080 0
DWIDTH 9 0
BBX 9 18 0 -4
BITMAP
0000
0000
0000
0000
0000
0000
7700
3b00
3100
3000
3000
3000
3000
3000
1800
1800
1800
0000
ENDCHAR
STARTCHAR LtSmlEngLvline
ENCODING 816
SWIDTH 1080 0
DWIDTH 9 0
BBX 9 18 0 -4
BITMAP
0000
0000
0000
0000
0000
0000
6e00
7300
6300
6300
6300
6300
6300
6300
1b00
1b00
1a00
0000
ENDCHAR
STARTCHAR LtCapALring
ENCODING 817
SWIDTH 1080 0
DWIDTH 9 0
BBX 9 18 0 -4
BITMAP
0000
0000
0000
0800
1800
1c00
1c00
2c00
2600
2600
7e00
4300
4300
c300
1c00
3600
1c00
0000
ENDCHAR
STARTCHAR LtCapRLring
ENCODING 818
SWIDTH 1080 0
DWIDTH 9 0
BBX 9 18 0 -4
BITMAP
0000
0000
0000
7e00
6300
6300
6300
6300
7e00
6c00
6600
6600
6300
6300
1c00
3600
1c00
0000
ENDCHAR
STARTCHAR LtSmlALring
ENCODING 819
SWIDTH 1080 0
DWIDTH 9 0
BBX 9 18 0 -4
BITMAP
0000
0000
0000
0000
0000
0000
3e00
3300
0300
3f00
6300
6300
6700
3b00
1c00
3600
1c00
0000
ENDCHAR
STARTCHAR LtSmlLLring
ENCODING 820
SWIDTH 1080 0
DWIDTH 9 0
BBX 9 18 0 -4
BITMAP
0000
0000
0000
1c00
0c00
0c00
0c00
0c00
0c00
0c00
0c00
0c00
0c00
3f00
1c00
3600
1c00
0000
ENDCHAR
STARTCHAR LtSmlRLring
ENCODING 821
SWIDTH 1080 0
DWIDTH 9 0
BBX 9 18 0 -4
BITMAP
0000
0000
0000
0000
0000
0000
7700
3b00
3100
3000
3000
3000
3000
3000
3800
6c00
3800
0000
ENDCHAR
STARTCHAR LtSmlLMacronLring
ENCODING 822
SWIDTH 1080 0
DWIDTH 9 0
BBX 9 18 0 -4
BITMAP
3e00
3e00
0000
1c00
0c00
0c00
0c00
0c00
0c00
0c00
0c00
0c00
0c00
3f00
1c00
3600
1c00
0000
ENDCHAR
STARTCHAR LtSmlRMacronLring
ENCODING 823
SWIDTH 1080 0
DWIDTH 9 0
BBX 9 18 0 -4
BITMAP
0000
0000
0000
3e00
3e00
0000
7700
3b00
3100
3000
3000
3000
3000
3000
3800
6c00
3800
0000
ENDCHAR
STARTCHAR LtSmlRAcuteLring
ENCODING 824
SWIDTH 1080 0
DWIDTH 9 0
BBX 9 18 0 -4
BITMAP
0000
0000
0600
0c00
0800
0000
7700
3b00
3100
3000
3000
3000
3000
3000
3800
6c00
3800
0000
ENDCHAR
STARTCHAR LtSmlRMacronAcuteLring
ENCODING 825
SWIDTH 1080 0
DWIDTH 9 0
BBX 9 18 0 -4
BITMAP
0e00
1800
0000
3e00
3e00
0000
7700
3b00
3100
3000
3000
3000
3000
3000
3800
6c00
3800
0000
ENDCHAR
STARTCHAR LtSmlRGraveLring
ENCODING 826
SWIDTH 1080 0
DWIDTH 9 0
BBX 9 18 0 -4
BITMAP
0000
0000
3000
1800
0800
0000
7700
3b00
3100
3000
3000
3000
3000
3000
3800
6c00
3800
0000
ENDCHAR
STARTCHAR LtCapULdrss
ENCODING 827
SWIDTH 1080 0
DWIDTH 9 0
BBX 9 18 0 -4
BITMAP
0000
0000
0000
6300
6300
6300
6300
6300
6300
6300
6300
6300
6300
3e00
0000
3600
3600
0000
ENDCHAR
STARTCHAR LtSmlULdrss
ENCODING 828
SWIDTH 1080 0
DWIDTH 9 0
BBX 9 18 0 -4
BITMAP
0000
0000
0000
0000
0000
0000
6300
6300
6300
6300
6300
6300
6700
3b00
0000
3600
3600
0000
ENDCHAR
STARTCHAR LtCapBLmacron
ENCODING 829
SWIDTH 1080 0
DWIDTH 9 0
BBX 9 18 0 -4
BITMAP
0000
0000
0000
7e00
6300
6300
6300
6200
7e00
6300
6300
6300
6300
7e00
0000
3e00
3e00
0000
ENDCHAR
STARTCHAR LtCapDLmacron
ENCODING 830
SWIDTH 1080 0
DWIDTH 9 0
BBX 9 18 0 -4
BITMAP
0000
0000
0000
7c00
6600
6300
6300
6300
6300
6300
6300
6300
6600
7c00
0000
3c00
3c00
0000
ENDCHAR
STARTCHAR LtCapELmacron
ENCODING 831
SWIDTH 1080 0
DWIDTH 9 0
BBX 9 18 0 -4
BITMAP
0000
0000
0000
7f00
6300
6100
6000
6400
7c00
6400
6000
6100
6300
7f00
0000
3e00
3e00
0000
ENDCHAR
STARTCHAR LtCapHLmacron
ENCODING 832
SWIDTH 1080 0
DWIDTH 9 0
BBX 9 18 0 -4
BITMAP
0000
0000
0000
6300
6300
6300
6300
6300
7f00
6300
6300
6300
6300
6300
0000
3e00
3e00
0000
ENDCHAR
STARTCHAR LtCapKLmacron
ENCODING 833
SWIDTH 1080 0
DWIDTH 9 0
BBX 9 18 0 -4
BITMAP
0000
0000
0000
6300
6200
6600
6400
6800
7c00
7c00
6600
6600
6300
6300
0000
3e00
3e00
0000
ENDCHAR
STARTCHAR LtCapLLmacron
ENCODING 834
SWIDTH 1080 0
DWIDTH 9 0
BBX 9 18 0 -4
BITMAP
0000
0000
0000
6000
6000
6000
6000
6000
6000
6000
6000
6100
6300
7f00
0000
3e00
3e00
0000
ENDCHAR
STARTCHAR LtCapNLmacron
ENCODING 835
SWIDTH 1080 0
DWIDTH 9 0
BBX 9 18 0 -4
BITMAP
0000
0000
0000
6100
7100
7100
5900
5900
4d00
4d00
4700
4700
4300
4100
0000
3e00
3e00
0000
ENDCHAR
STARTCHAR LtCapOLmacron
ENCODING 836
SWIDTH 1080 0
DWIDTH 9 0
BBX 9 18 0 -4
BITMAP
0000
0000
0000
3e00
6300
6300
6300
6300
6300
6300
6300
6300
6300
3e00
0000
3e00
3e00
0000
ENDCHAR
STARTCHAR LtCapRLmacron
ENCODING 837
SWIDTH 1080 0
DWIDTH 9 0
BBX 9 18 0 -4
BITMAP
0000
0000
0000
7e00
6300
6300
6300
6300
7e00
6c00
6600
6600
6300
6300
0000
3e00
3e00
0000
ENDCHAR
STARTCHAR LtCapTLmacron
ENCODING 838
SWIDTH 1080 0
DWIDTH 9 0
BBX 9 18 0 -4
BITMAP
0000
0000
0000
7f80
6d80
4c80
0c00
0c00
0c00
0c00
0c00
0c00
0c00
0c00
0000
3e00
3e00
0000
ENDCHAR
STARTCHAR LtCapZLmacron
ENCODING 839
SWIDTH 1080 0
DWIDTH 9 0
BBX 9 18 0 -4
BITMAP
0000
0000
0000
7f00
6300
4600
0600
0c00
1800
1800
3000
3100
6300
7f00
0000
3e00
3e00
0000
ENDCHAR
STARTCHAR LtSmlBLmacron
ENCODING 840
SWIDTH 1080 0
DWIDTH 9 0
BBX 9 18 0 -4
BITMAP
0000
0000
0000
6000
6000
6000
6e00
7300
6300
6300
6300
6300
7300
6e00
0000
3e00
3e00
0000
ENDCHAR
STARTCHAR LtSmlDLmacron
ENCODING 841
SWIDTH 1080 0
DWIDTH 9 0
BBX 9 18 0 -4
BITMAP
0000
0000
0000
0300
0300
0300
3b00
6700
6300
6300
6300
6300
6700
3b00
0000
3e00
3e00
0000
ENDCHAR
STARTCHAR LtSmlELmacron
ENCODING 842
SWIDTH 1080 0
DWIDTH 9 0
BBX 9 18 0 -4
BITMAP
0000
0000
0000
0000
0000
0000
1e00
3300
6300
7f00
6000
6000
3300
1e00
0000
3e00
3e00
0000
ENDCHAR
STARTCHAR LtSmlHLmacron
ENCODING 843
SWIDTH 1080 0
DWIDTH 9 0
BBX 9 18 0 -4
BITMAP
0000
0000
0000
6000
6000
6000
6e00
7300
6300
6300
6300
6300
6300
6300
0000
3e00
3e00
0000
ENDCHAR
STARTCHAR LtSmlKLmacron
ENCODING 844
SWIDTH 1080 0
DWIDTH 9 0
BBX 9 18 0 -4
BITMAP
0000
0000
0000
6000
6000
6000
6300
6200
6400
6c00
7c00
6600
6300
6300
0000
3e00
3e00
0000
ENDCHAR
STARTCHAR LtSmlLLmacron
ENCODING 845
SWIDTH 1080 0
DWIDTH 9 0
BBX 9 18 0 -4
BITMAP
0000
0000
0000
1c00
0c00
0c00
0c00
0c00
0c00
0c00
0c00
0c00
0c00
3f00
0000
1e00
1e00
0000
ENDCHAR
STARTCHAR LtSmlNLmacron
ENCODING 846
SWIDTH 1080 0
DWIDTH 9 0
BBX 9 18 0 -4
BITMAP
0000
0000
0000
0000
0000
0000
6e00
7300
6300
6300
6300
6300
6300
6300
0000
3e00
3e00
0000
ENDCHAR
STARTCHAR LtSmlOLmacron
ENCODING 847
SWIDTH 1080 0
DWIDTH 9 0
BBX 9 18 0 -4
BITMAP
0000
0000
0000
0000
0000
0000
3e00
6300
6300
6300
6300
6300
6300
3e00
0000
3e00
3e00
0000
ENDCHAR
STARTCHAR LtSmlRLmacron
ENCODING 848
SWIDTH 1080 0
DWIDTH 9 0
BBX 9 18 0 -4
BITMAP
0000
0000
0000
0000
0000
0000
7700
3b00
3100
3000
3000
3000
3000
3000
0000
3c00
3c00
0000
ENDCHAR
STARTCHAR LtSmlTLmacron
ENCODING 849
SWIDTH 1080 0
DWIDTH 9 0
BBX 9 18 0 -4
BITMAP
0000
0000
0000
0000
1800
1800
7e00
1800
1800
1800
1800
1800
1b00
0e00
0000
1e00
1e00
0000
ENDCHAR
STARTCHAR LtSmlZLmacron
ENCODING 850
SWIDTH 1080 0
DWIDTH 9 0
BBX 9 18 0 -4
BITMAP
0000
0000
0000
0000
0000
0000
7f00
6700
4600
0c00
1800
3100
7300
7f00
0000
3e00
3e00
0000
ENDCHAR
STARTCHAR LtCapGHLmacron
ENCODING 851
SWIDTH 1080 0
DWIDTH 9 0
BBX 9 18 0 -4
BITMAP
0000
0000
0000
3a80
6a80
4280
4280
4380
5b80
5a80
4a80
4a80
7a80
3a80
0000
3e00
3e00
0000
ENDCHAR
STARTCHAR LtCapKHLmacron
ENCODING 852
SWIDTH 1080 0
DWIDTH 9 0
BBX 9 18 0 -4
BITMAP
0000
0000
0000
6a80
6a80
6a80
6a80
7380
7380
7a80
6a80
6a80
6a80
6a80
0000
3e00
3e00
0000
ENDCHAR
STARTCHAR LtMixGHLmacron
ENCODING 853
SWIDTH 1080 0
DWIDTH 9 0
BBX 9 18 0 -4
BITMAP
0000
0000
0000
3a00
6a00
4200
4300
4380
5b80
5a80
4a80
4a80
7a80
3a80
0000
3e00
3e00
0000
ENDCHAR
STARTCHAR LtMixKHLmacron
ENCODING 854
SWIDTH 1080 0
DWIDTH 9 0
BBX 9 18 0 -4
BITMAP
0000
0000
0000
6a00
6a00
6a00
6b00
7380
7380
7a80
6a80
6a80
6a80
6a80
0000
3e00
3e00
0000
ENDCHAR
STARTCHAR LtSmlGHLmacron
ENCODING 855
SWIDTH 1080 0
DWIDTH 9 0
BBX 9 18 0 -4
BITMAP
0000
0000
0000
0200
0200
0200
3b00
6b80
6b80
6a80
3280
6280
3a80
3e80
6400
7f00
3f00
0000
ENDCHAR
STARTCHAR LtSmlKHLmacron
ENCODING 856
SWIDTH 1080 0
DWIDTH 9 0
BBX 9 18 0 -4
BITMAP
0000
0000
0000
6200
6200
6200
6b00
6b80
6b80
7280
7a80
6a80
6a80
6a80
0000
3e00
3e00
0000
ENDCHAR
STARTCHAR LtCapDLcircum
ENCODING 857
SWIDTH 1080 0
DWIDTH 9 0
BBX 9 18 0 -4
BITMAP
0000
0000
0000
7c00
6600
6300
6300
6300
6300
6300
6300
6300
6600
7c00
1000
3800
6c00
0000
ENDCHAR
STARTCHAR LtCapELcircum
ENCODING 858
SWIDTH 1080 0
DWIDTH 9 0
BBX 9 18 0 -4
BITMAP
0000
0000
0000
7f00
6300
6100
6000
6400
7c00
6400
6000
6100
6300
7f00
0800
1c00
3600
0000
ENDCHAR
STARTCHAR LtCapLLcircum
ENCODING 859
SWIDTH 1080 0
DWIDTH 9 0
BBX 9 18 0 -4
BITMAP
0000
0000
0000
6000
6000
6000
6000
6000
6000
6000
6000
6100
6300
7f00
0800
1c00
3600
0000
ENDCHAR
STARTCHAR LtCapNLcircum
ENCODING 860
SWIDTH 1080 0
DWIDTH 9 0
BBX 9 18 0 -4
BITMAP
0000
0000
0000
6100
7100
7100
5900
5900
4d00
4d00
4700
4700
4300
4100
0800
1c00
3600
0000
ENDCHAR
STARTCHAR LtCapTLcircum
ENCODING 861
SWIDTH 1080 0
DWIDTH 9 0
BBX 9 18 0 -4
BITMAP
0000
0000
0000
7f80
6d80
4c80
0c00
0c00
0c00
0c00
0c00
0c00
0c00
0c00
0800
1c00
3600
0000
ENDCHAR
STARTCHAR LtCapULcircum
ENCODING 862
SWIDTH 1080 0
DWIDTH 9 0
BBX 9 18 0 -4
BITMAP
0000
0000
0000
6300
6300
6300
6300
6300
6300
6300
6300
6300
6300
3e00
0800
1c00
3600
0000
ENDCHAR
STARTCHAR LtSmlDLcircum
ENCODING 863
SWIDTH 1080 0
DWIDTH 9 0
BBX 9 18 0 -4
BITMAP
0000
0000
0000
0300
0300
0300
3b00
6700
6300
6300
6300
6300
6700
3b00
0800
1c00
3600
0000
ENDCHAR
STARTCHAR LtSmlELcircum
ENCODING 864
SWIDTH 1080 0
DWIDTH 9 0
BBX 9 18 0 -4
BITMAP
0000
0000
0000
0000
0000
0000
1e00
3300
6300
7f00
6000
6000
3300
1e00
0800
1c00
3600
0000
ENDCHAR
STARTCHAR LtSmlLLcircum
ENCODING 865
SWIDTH 1080 0
DWIDTH 9 0
BBX 9 18 0 -4
BITMAP
0000
0000
0000
1c00
0c00
0c00
0c00
0c00
0c00
0c00
0c00
0c00
0c00
3f00
0800
1c00
3600
0000
ENDCHAR
STARTCHAR LtSmlNLcircum
ENCODING 866
SWIDTH 1080 0
DWIDTH 9 0
BBX 9 18 0 -4
BITMAP
0000
0000
0000
0000
0000
0000
6e00
7300
6300
6300
6300
6300
6300
6300
0800
1c00
3600
0000
ENDCHAR
STARTCHAR LtSmlTLcircum
ENCODING 867
SWIDTH 1080 0
DWIDTH 9 0
BBX 9 18 0 -4
BITMAP
0000
0000
0000
0000
1800
1800
7e00
1800
1800
1800
1800
1800
1b00
0e00
0400
0e00
1b00
0000
ENDCHAR
STARTCHAR LtSmlULcircum
ENCODING 868
SWIDTH 1080 0
DWIDTH 9 0
BBX 9 18 0 -4
BITMAP
0000
0000
0000
0000
0000
0000
6300
6300
6300
6300
6300
6300
6700
3b00
0800
1c00
3600
0000
ENDCHAR
STARTCHAR LtCapHLbreve
ENCODING 869
SWIDTH 1080 0
DWIDTH 9 0
BBX 9 18 0 -4
BITMAP
0000
0000
0000
6300
6300
6300
6300
6300
7f00
6300
6300
6300
6300
6300
0000
3600
1c00
0000
ENDCHAR
STARTCHAR LtSmlHLbreve
ENCODING 870
SWIDTH 1080 0
DWIDTH 9 0
BBX 9 18 0 -4
BITMAP
0000
0000
0000
6000
6000
6000
6e00
7300
6300
6300
6300
6300
6300
6300
0000
3600
1c00
0000
ENDCHAR
STARTCHAR LtSmlILinvbreve
ENCODING 871
SWIDTH 1080 0
DWIDTH 9 0
BBX 9 18 0 -4
BITMAP
0000
0000
0c00
0c00
0000
0000
1c00
0c00
0c00
0c00
0c00
0c00
0c00
3f00
0000
1c00
3600
0000
ENDCHAR
STARTCHAR LtSmlOLinvbreve
ENCODING 872
SWIDTH 1080 0
DWIDTH 9 0
BBX 9 18 0 -4
BITMAP
0000
0000
0000
0000
0000
0000
3e00
6300
6300
6300
6300
6300
6300
3e00
0000
1c00
3600
0000
ENDCHAR
STARTCHAR LtSmlULinvbreve
ENCODING 873
SWIDTH 1080 0
DWIDTH 9 0
BBX 9 18 0 -4
BITMAP
0000
0000
0000
0000
0000
0000
6300
6300
6300
6300
6300
6300
6700
3b00
0000
1c00
3600
0000
ENDCHAR
STARTCHAR LtSmlATrndLinvbreve
ENCODING 874
SWIDTH 1080 0
DWIDTH 9 0
BBX 9 18 0 -4
BITMAP
0000
0000
0000
0000
0000
0000
ee00
7300
6300
6300
7e00
6000
6300
3e00
0000
1c00
3600
0000
ENDCHAR
STARTCHAR LtCapELtilde
ENCODING 875
SWIDTH 1080 0
DWIDTH 9 0
BBX 9 18 0 -4
BITMAP
0000
0000
0000
7f00
6300
6100
6000
6400
7c00
6400
6000
6100
6300
7f00
0000
3600
5c00
0000
ENDCHAR
STARTCHAR LtCapILtilde
ENCODING 876
SWIDTH 1080 0
DWIDTH 9 0
BBX 9 18 0 -4
BITMAP
0000
0000
0000
3f00
0c00
0c00
0c00
0c00
0c00
0c00
0c00
0c00
0c00
3f00
0000
1b00
2e00
0000
ENDCHAR
STARTCHAR LtCapULtilde
ENCODING 877
SWIDTH 1080 0
DWIDTH 9 0
BBX 9 18 0 -4
BITMAP
0000
0000
0000
6300
6300
6300
6300
6300
6300
6300
6300
6300
6300
3e00
0000
1b00
2e00
0000
ENDCHAR
STARTCHAR LtSmlELtilde
ENCODING 878
SWIDTH 1080 0
DWIDTH 9 0
BBX 9 18 0 -4
BITMAP
0000
0000
0000
0000
0000
0000
1e00
3300
6300
7f00
6000
6000
3300
1e00
0000
1b00
2e00
0000
ENDCHAR
STARTCHAR LtSmlILtilde
ENCODING 879
SWIDTH 1080 0
DWIDTH 9 0
BBX 9 18 0 -4
BITMAP
0000
0000
0c00
0c00
0000
0000
1c00
0c00
0c00
0c00
0c00
0c00
0c00
3f00
0000
1b00
2e00
0000
ENDCHAR
STARTCHAR LtSmlULtilde
ENCODING 880
SWIDTH 1080 0
DWIDTH 9 0
BBX 9 18 0 -4
BITMAP
0000
0000
0000
0000
0000
0000
6300
6300
6300
6300
6300
6300
6700
3b00
0000
1b00
2e00
0000
ENDCHAR
STARTCHAR LtCapCCedilla
ENCODING 881
SWIDTH 1080 0
DWIDTH 9 0
BBX 9 18 0 -4
BITMAP
0000
0000
0000
1f00
3300
6100
6000
6000
6000
6000
6000
6000
3300
1e00
0800
0c00
1800
0000
ENDCHAR
STARTCHAR LtCapECedilla
ENCODING 882
SWIDTH 1080 0
DWIDTH 9 0
BBX 9 18 0 -4
BITMAP
0000
0000
0000
7f00
6300
6100
6000
6400
7c00
6400
6000
6100
6300
7f00
0800
0c00
1800
0000
ENDCHAR
STARTCHAR LtCapHCedilla
ENCODING 883
SWIDTH 1080 0
DWIDTH 9 0
BBX 9 18 0 -4
BITMAP
0000
0000
0000
6300
6300
6300
6300
6300
7f00
6300
6300
6300
6300
6300
0800
0c00
1800
0000
ENDCHAR
STARTCHAR LtCapSCedilla
ENCODING 884
SWIDTH 1080 0
DWIDTH 9 0
BBX 9 18 0 -4
BITMAP
0000
0000
0000
3f00
6300
6100
6000
3800
1e00
0600
0300
4300
6300
7e00
0800
0c00
1800
0000
ENDCHAR
STARTCHAR LtCapTCedilla
ENCODING 885
SWIDTH 1080 0
DWIDTH 9 0
BBX 9 18 0 -4
BITMAP
0000
0000
0000
7f80
6d80
4c80
0c00
0c00
0c00
0c00
0c00
0c00
0c00
0c00
0400
0600
0c00
0000
ENDCHAR
STARTCHAR LtSmlCCedilla
ENCODING 886
SWIDTH 1080 0
DWIDTH 9 0
BBX 9 18 0 -4
BITMAP
0000
0000
0000
0000
0000
0000
1e00
3300
6000
6000
6000
6000
3300
1e00
0800
0c00
1800
0000
ENDCHAR
STARTCHAR LtSmlECedilla
ENCODING 887
SWIDTH 1080 0
DWIDTH 9 0
BBX 9 18 0 -4
BITMAP
0000
0000
0000
0000
0000
0000
1e00
3300
6300
7f00
6000
6000
3300
1e00
0800
0c00
1800
0000
ENDCHAR
STARTCHAR LtSmlHCedilla
ENCODING 888
SWIDTH 1080 0
DWIDTH 9 0
BBX 9 18 0 -4
BITMAP
0000
0000
0000
6000
6000
6000
6e00
7300
6300
6300
6300
6300
6300
6300
0800
0c00
1800
0000
ENDCHAR
STARTCHAR LtSmlSCedilla
ENCODING 889
SWIDTH 1080 0
DWIDTH 9 0
BBX 9 18 0 -4
BITMAP
0000
0000
0000
0000
0000
0000
3e00
6300
7000
3c00
0e00
0300
6300
3e00
0800
0c00
1800
0000
ENDCHAR
STARTCHAR LtSmlTCedilla
ENCODING 890
SWIDTH 1080 0
DWIDTH 9 0
BBX 9 18 0 -4
BITMAP
0000
0000
0000
0000
1800
1800
7e00
1800
1800
1800
1800
1800
1b00
0e00
0800
0c00
1800
0000
ENDCHAR
STARTCHAR LtCapCAcuteCedilla
ENCODING 891
SWIDTH 1080 0
DWIDTH 9 0
BBX 9 18 0 -4
BITMAP
0700
0c00
0000
1f00
3300
6100
6000
6000
6000
6000
6000
6000
3300
1e00
0800
0c00
1800
0000
ENDCHAR
STARTCHAR LtSmlCAcuteCedilla
ENCODING 892
SWIDTH 1080 0
DWIDTH 9 0
BBX 9 18 0 -4
BITMAP
0000
0000
0600
0c00
0800
0000
1e00
3300
6000
6000
6000
6000
3300
1e00
0800
0c00
1800
0000
ENDCHAR
STARTCHAR LtCapEBreveCedilla
ENCODING 893
SWIDTH 1080 0
DWIDTH 9 0
BBX 9 18 0 -4
BITMAP
2200
3600
1c00
0000
7f00
6300
6000
6400
7c00
6400
6000
6100
6300
7f00
0800
0c00
1800
0000
ENDCHAR
STARTCHAR LtSmlEBreveCedilla
ENCODING 894
SWIDTH 1080 0
DWIDTH 9 0
BBX 9 18 0 -4
BITMAP
0000
0000
1100
1b00
0e00
0000
1e00
3300
6300
7f00
6000
6000
3300
1e00
0800
0c00
1800
0000
ENDCHAR
STARTCHAR LtCapDComma
ENCODING 895
SWIDTH 1080 0
DWIDTH 9 0
BBX 9 18 0 -4
BITMAP
0000
0000
0000
7c00
6600
6300
6300
6300
6300
6300
6300
6300
6600
7c00
0000
1800
3000
0000
ENDCHAR
STARTCHAR LtCapGComma
ENCODING 896
SWIDTH 1080 0
DWIDTH 9 0
BBX 9 18 0 -4
BITMAP
0000
0000
0000
1f00
3300
6100
6000
6000
6700
6300
6300
6300
3300
1f00
0000
0c00
1800
0000
ENDCHAR
STARTCHAR LtCapKComma
ENCODING 897
SWIDTH 1080 0
DWIDTH 9 0
BBX 9 18 0 -4
BITMAP
0000
0000
0000
6300
6200
6600
6400
6800
7c00
7c00
6600
6600
6300
6300
0000
0c00
1800
0000
ENDCHAR
STARTCHAR LtCapLComma
ENCODING 898
SWIDTH 1080 0
DWIDTH 9 0
BBX 9 18 0 -4
BITMAP
0000
0000
0000
6000
6000
6000
6000
6000
6000
6000
6000
6100
6300
7f00
0000
0c00
1800
0000
ENDCHAR
STARTCHAR LtCapNComma
ENCODING 899
SWIDTH 1080 0
DWIDTH 9 0
BBX 9 18 0 -4
BITMAP
0000
0000
0000
6100
7100
7100
5900
5900
4d00
4d00
4700
4700
4300
4100
0000
0c00
1800
0000
ENDCHAR
STARTCHAR LtCapRComma
ENCODING 900
SWIDTH 1080 0
DWIDTH 9 0
BBX 9 18 0 -4
BITMAP
0000
0000
0000
7e00
6300
6300
6300
6300
7e00
6c00
6600
6600
6300
6300
0000
0c00
1800
0000
ENDCHAR
STARTCHAR LtCapSComma
ENCODING 901
SWIDTH 1080 0
DWIDTH 9 0
BBX 9 18 0 -4
BITMAP
0000
0000
0000
3f00
6300
6100
6000
3800
1e00
0600
0300
4300
6300
7e00
0000
0c00
1800
0000
ENDCHAR
STARTCHAR LtCapTComma
ENCODING 902
SWIDTH 1080 0
DWIDTH 9 0
BBX 9 18 0 -4
BITMAP
0000
0000
0000
7f80
6d80
4c80
0c00
0c00
0c00
0c00
0c00
0c00
0c00
0c00
0000
0c00
1800
0000
ENDCHAR
STARTCHAR LtSmlDComma
ENCODING 903
SWIDTH 1080 0
DWIDTH 9 0
BBX 9 18 0 -4
BITMAP
0000
0000
0000
0300
0300
0300
3b00
6700
6300
6300
6300
6300
6700
3b00
0000
1800
3000
0000
ENDCHAR
STARTCHAR LtSmlGComma
ENCODING 904
SWIDTH 1080 0
DWIDTH 9 0
BBX 9 18 0 -4
BITMAP
0000
0000
0000
0c00
1800
0000
3d00
6700
6600
6600
3c00
6000
3e00
3f00
6100
6300
3e00
0000
ENDCHAR
STARTCHAR LtSmlKComma
ENCODING 905
SWIDTH 1080 0
DWIDTH 9 0
BBX 9 18 0 -4
BITMAP
0000
0000
0000
6000
6000
6000
6300
6200
6400
6c00
7c00
6600
6300
6300
0000
0c00
1800
0000
ENDCHAR
STARTCHAR LtSmlLComma
ENCODING 906
SWIDTH 1080 0
DWIDTH 9 0
BBX 9 18 0 -4
BITMAP
0000
0000
0000
1c00
0c00
0c00
0c00
0c00
0c00
0c00
0c00
0c00
0c00
3f00
0000
0c00
1800
0000
ENDCHAR
STARTCHAR LtSmlNComma
ENCODING 907
SWIDTH 1080 0
DWIDTH 9 0
BBX 9 18 0 -4
BITMAP
0000
0000
0000
0000
0000
0000
6e00
7300
6300
6300
6300
6300
6300
6300
0000
0c00
1800
0000
ENDCHAR
STARTCHAR LtSmlRComma
ENCODING 908
SWIDTH 1080 0
DWIDTH 9 0
BBX 9 18 0 -4
BITMAP
0000
0000
0000
0000
0000
0000
7700
3b00
3100
3000
3000
3000
3000
3000
0000
1800
3000
0000
ENDCHAR
STARTCHAR LtSmlSComma
ENCODING 909
SWIDTH 1080 0
DWIDTH 9 0
BBX 9 18 0 -4
BITMAP
0000
0000
0000
0000
0000
0000
3e00
6300
7000
3c00
0e00
0300
6300
3e00
0000
0c00
1800
0000
ENDCHAR
STARTCHAR LtSmlTComma
ENCODING 910
SWIDTH 1080 0
DWIDTH 9 0
BBX 9 18 0 -4
BITMAP
0000
0000
0000
0000
1800
1800
7e00
1800
1800
1800
1800
1800
1b00
0e00
0000
0c00
1800
0000
ENDCHAR
STARTCHAR LtCapAOgonek
ENCODING 911
SWIDTH 1080 0
DWIDTH 9 0
BBX 9 18 0 -4
BITMAP
0000
0000
0000
0800
1800
1c00
1c00
2c00
2600
2600
7e00
4300
4300
c300
0600
0c00
0700
0000
ENDCHAR
STARTCHAR LtCapEOgonek
ENCODING 912
SWIDTH 1080 0
DWIDTH 9 0
BBX 9 18 0 -4
BITMAP
0000
0000
0000
7f00
6300
6100
6000
6400
7c00
6400
6000
6100
6300
7f00
0600
0c00
0700
0000
ENDCHAR
STARTCHAR LtCapIOgonek
ENCODING 913
SWIDTH 1080 0
DWIDTH 9 0
BBX 9 18 0 -4
BITMAP
0000
0000
0000
3f00
0c00
0c00
0c00
0c00
0c00
0c00
0c00
0c00
0c00
3f00
0400
0c00
0700
0000
ENDCHAR
STARTCHAR LtCapOOgonek
ENCODING 914
SWIDTH 1080 0
DWIDTH 9 0
BBX 9 18 0 -4
BITMAP
0000
0000
0000
3e00
6300
6300
6300
6300
6300
6300
6300
6300
6300
3e00
0400
0c00
0700
0000
ENDCHAR
STARTCHAR LtCapUOgonek
ENCODING 915
SWIDTH 1080 0
DWIDTH 9 0
BBX 9 18 0 -4
BITMAP
0000
0000
0000
6300
6300
6300
6300
6300
6300
6300
6300
6300
6300
3e00
0400
0c00
0700
0000
ENDCHAR
STARTCHAR LtSmlAOgonek
ENCODING 916
SWIDTH 1080 0
DWIDTH 9 0
BBX 9 18 0 -4
BITMAP
0000
0000
0000
0000
0000
0000
3e00
3300
0300
3f00
6300
6300
6700
3b00
0600
0c00
0700
0000
ENDCHAR
STARTCHAR LtSmlEOgonek
ENCODING 917
SWIDTH 1080 0
DWIDTH 9 0
BBX 9 18 0 -4
BITMAP
0000
0000
0000
0000
0000
0000
1e00
3300
6300
7f00
6000
6000
3300
1e00
0400
0c00
0700
0000
ENDCHAR
STARTCHAR LtSmlIOgonek
ENCODING 918
SWIDTH 1080 0
DWIDTH 9 0
BBX 9 18 0 -4
BITMAP
0000
0000
0c00
0c00
0000
0000
1c00
0c00
0c00
0c00
0c00
0c00
0c00
3f00
0400
0c00
0700
0000
ENDCHAR
STARTCHAR LtSmlOOgonek
ENCODING 919
SWIDTH 1080 0
DWIDTH 9 0
BBX 9 18 0 -4
BITMAP
0000
0000
0000
0000
0000
0000
3e00
6300
6300
6300
6300
6300
6300
3e00
0400
0c00
0700
0000
ENDCHAR
STARTCHAR LtSmlUOgonek
ENCODING 920
SWIDTH 1080 0
DWIDTH 9 0
BBX 9 18 0 -4
BITMAP
0000
0000
0000
0000
0000
0000
6300
6300
6300
6300
6300
6300
6700
3b00
0600
0c00
0700
0000
ENDCHAR
STARTCHAR LtCapOMacronOgonek
ENCODING 921
SWIDTH 1080 0
DWIDTH 9 0
BBX 9 18 0 -4
BITMAP
3e00
3e00
0000
3e00
6300
6300
6300
6300
6300
6300
6300
6300
6300
3e00
0400
0c00
0700
0000
ENDCHAR
STARTCHAR LtSmlOMacronOgonek
ENCODING 922
SWIDTH 1080 0
DWIDTH 9 0
BBX 9 18 0 -4
BITMAP
0000
0000
0000
3e00
3e00
0000
3e00
6300
6300
6300
6300
6300
6300
3e00
0400
0c00
0700
0000
ENDCHAR
STARTCHAR LtCapAAcuteOgonek
ENCODING 923
SWIDTH 1080 0
DWIDTH 9 0
BBX 9 18 0 -4
BITMAP
0e00
1800
0000
0800
1800
1c00
1c00
2c00
2600
2600
7e00
4300
4300
c300
0600
0c00
0700
0000
ENDCHAR
STARTCHAR LtCapEAcuteOgonek
ENCODING 924
SWIDTH 1080 0
DWIDTH 9 0
BBX 9 18 0 -4
BITMAP
0e00
1800
0000
7f00
6300
6100
6000
6400
7c00
6400
6000
6100
6300
7f00
0600
0c00
0700
0000
ENDCHAR
STARTCHAR LtCapIAcuteOgonek
ENCODING 925
SWIDTH 1080 0
DWIDTH 9 0
BBX 9 18 0 -4
BITMAP
0700
0c00
0000
3f00
0c00
0c00
0c00
0c00
0c00
0c00
0c00
0c00
0c00
3f00
0400
0c00
0700
0000
ENDCHAR
STARTCHAR LtCapOAcuteOgonek
ENCODING 926
SWIDTH 1080 0
DWIDTH 9 0
BBX 9 18 0 -4
BITMAP
0700
0c00
0000
3e00
6300
6300
6300
6300
6300
6300
6300
6300
6300
3e00
0400
0c00
0700
0000
ENDCHAR
STARTCHAR LtCapUAcuteOgonek
ENCODING 927
SWIDTH 1080 0
DWIDTH 9 0
BBX 9 18 0 -4
BITMAP
0700
0c00
0000
6300
6300
6300
6300
6300
6300
6300
6300
6300
6300
3e00
0400
0c00
0700
0000
ENDCHAR
STARTCHAR LtSmlAAcuteOgonek
ENCODING 928
SWIDTH 1080 0
DWIDTH 9 0
BBX 9 18 0 -4
BITMAP
0000
0000
0600
0c00
0800
0000
3e00
3300
0300
3f00
6300
6300
6700
3b00
0600
0c00
0700
0000
ENDCHAR
STARTCHAR LtSmlEAcuteOgonek
ENCODING 929
SWIDTH 1080 0
DWIDTH 9 0
BBX 9 18 0 -4
BITMAP
0000
0000
0600
0c00
0800
0000
1e00
3300
6300
7f00
6000
6000
3300
1e00
0400
0c00
0700
0000
ENDCHAR
STARTCHAR LtSmlIAcuteOgonek
ENCODING 930
SWIDTH 1080 0
DWIDTH 9 0
BBX 9 18 0 -4
BITMAP
0000
0000
0600
0c00
0800
0000
1c00
0c00
0c00
0c00
0c00
0c00
0c00
3f00
0400
0c00
0700
0000
ENDCHAR
STARTCHAR LtSmlOAcuteOgonek
ENCODING 931
SWIDTH 1080 0
DWIDTH 9 0
BBX 9 18 0 -4
BITMAP
0000
0000
0600
0c00
0800
0000
3e00
6300
6300
6300
6300
6300
6300
3e00
0400
0c00
0700
0000
ENDCHAR
STARTCHAR LtSmlUAcuteOgonek
ENCODING 932
SWIDTH 1080 0
DWIDTH 9 0
BBX 9 18 0 -4
BITMAP
0000
0000
0600
0c00
0800
0000
6300
6300
6300
6300
6300
6300
6700
3b00
0600
0c00
0700
0000
ENDCHAR
STARTCHAR CyCapA
ENCODING 933
SWIDTH 1080 0
DWIDTH 9 0
BBX 9 18 0 -4
BITMAP
0000
0000
0000
0800
1800
1c00
1c00
2c00
2600
2600
7e00
4300
4300
c300
0000
0000
0000
0000
ENDCHAR
STARTCHAR CyCapBe
ENCODING 934
SWIDTH 1080 0
DWIDTH 9 0
BBX 9 18 0 -4
BITMAP
0000
0000
0000
7e00
6600
6200
6000
6000
7e00
6300
6300
6300
6300
7e00
0000
0000
0000
0000
ENDCHAR
STARTCHAR CyCapVe
ENCODING 935
SWIDTH 1080 0
DWIDTH 9 0
BBX 9 18 0 -4
BITMAP
0000
0000
0000
7e00
6300
6300
6300
6200
7e00
6300
6300
6300
6300
7e00
0000
0000
0000
0000
ENDCHAR
STARTCHAR CyCapGhe
ENCODING 936
SWIDTH 1080 0
DWIDTH 9 0
BBX 9 18 0 -4
BITMAP
0000
0000
0000
3f80
3180
3080
3000
3000
3000
3000
3000
3000
3000
3000
0000
0000
0000
0000
ENDCHAR
STARTCHAR CyCapDe
ENCODING 937
SWIDTH 1080 0
DWIDTH 9 0
BBX 9 18 0 -4
BITMAP
0000
0000
0000
3e00
2600
2600
2600
2600
2600
2600
2600
2600
6600
7f00
6300
6300
6300
0000
ENDCHAR
STARTCHAR CyCapIe
ENCODING 938
SWIDTH 1080 0
DWIDTH 9 0
BBX 9 18 0 -4
BITMAP
0000
0000
0000
7f00
6300
6100
6000
6400
7c00
6400
6000
6100
6300
7f00
0000
0000
0000
0000
ENDCHAR
STARTCHAR CyCapZhe
ENCODING 939
SWIDTH 1080 0
DWIDTH 9 0
BBX 9 18 0 -4
BITMAP
0000
0000
0000
6b00
6b00
6b00
2a00
1c00
3e00
2a00
6b00
6b00
6b00
6b00
0000
0000
0000
0000
ENDCHAR
STARTCHAR CyCapZe
ENCODING 940
SWIDTH 1080 0
DWIDTH 9 0
BBX 9 18 0 -4
BITMAP
0000
0000
0000
3c00
6600
0300
0300
0600
1c00
0600
0300
0300
6600
3c00
0000
0000
0000
0000
ENDCHAR
STARTCHAR CyCapI
ENCODING 941
SWIDTH 1080 0
DWIDTH 9 0
BBX 9 18 0 -4
BITMAP
0000
0000
0000
6300
6300
6700
6700
6b00
6b00
6b00
7300
7300
6300
6300
0000
0000
0000
0000
ENDCHAR
STARTCHAR CyCapKa
ENCODING 942
SWIDTH 1080 0
DWIDTH 9 0
BBX 9 18 0 -4
BITMAP
0000
0000
0000
6300
6200
6600
6400
6800
7c00
7c00
6600
6600
6300
6300
0000
0000
0000
0000
ENDCHAR
STARTCHAR CyCapEl
ENCODING 943
SWIDTH 1080 0
DWIDTH 9 0
BBX 9 18 0 -4
BITMAP
0000
0000
0000
1f00
1300
1300
1300
1300
1300
1300
1300
1300
7300
6300
0000
0000
0000
0000
ENDCHAR
STARTCHAR CyCapElBul
ENCODING 944
SWIDTH 1080 0
DWIDTH 9 0
BBX 9 18 0 -4
BITMAP
0000
0000
0000
0800
1800
1c00
1c00
2c00
2600
2600
6600
4300
4300
c300
0000
0000
0000
0000
ENDCHAR
STARTCHAR CyCapEm
ENCODING 945
SWIDTH 1080 0
DWIDTH 9 0
BBX 9 18 0 -4
BITMAP
0000
0000
0000
6300
6300
7700
7700
7f00
5b00
5b00
4300
4300
4300
4300
0000
0000
0000
0000
ENDCHAR
STARTCHAR CyCapEn
ENCODING 946
SWIDTH 1080 0
DWIDTH 9 0
BBX 9 18 0 -4
BITMAP
0000
0000
0000
6300
6300
6300
6300
6300
7f00
6300
6300
6300
6300
6300
0000
0000
0000
0000
ENDCHAR
STARTCHAR CyCapO
ENCODING 947
SWIDTH 1080 0
DWIDTH 9 0
BBX 9 18 0 -4
BITMAP
0000
0000
0000
3e00
6300
6300
6300
6300
6300
6300
6300
6300
6300
3e00
0000
0000
0000
0000
ENDCHAR
STARTCHAR CyCapPe
ENCODING 948
SWIDTH 1080 0
DWIDTH 9 0
BBX 9 18 0 -4
BITMAP
0000
0000
0000
7f00
6300
6300
6300
6300
6300
6300
6300
6300
6300
6300
0000
0000
0000
0000
ENDCHAR
STARTCHAR CyCapEr
ENCODING 949
SWIDTH 1080 0
DWIDTH 9 0
BBX 9 18 0 -4
BITMAP
0000
0000
0000
7e00
6300
6300
6300
6300
7e00
6000
6000
6000
6000
6000
0000
0000
0000
0000
ENDCHAR
STARTCHAR CyCapEs
ENCODING 950
SWIDTH 1080 0
DWIDTH 9 0
BBX 9 18 0 -4
BITMAP
0000
0000
0000
1f00
3300
6100
6000
6000
6000
6000
6000
6000
3300
1e00
0000
0000
0000
0000
ENDCHAR
STARTCHAR CyCapTe
ENCODING 951
SWIDTH 1080 0
DWIDTH 9 0
BBX 9 18 0 -4
BITMAP
0000
0000
0000
7f80
6d80
4c80
0c00
0c00
0c00
0c00
0c00
0c00
0c00
0c00
0000
0000
0000
0000
ENDCHAR
STARTCHAR CyCapU
ENCODING 952
SWIDTH 1080 0
DWIDTH 9 0
BBX 9 18 0 -4
BITMAP
0000
0000
0000
6180
6100
3100
3300
1a00
1a00
0e00
0c00
4400
6c00
3800
0000
0000
0000
0000
ENDCHAR
STARTCHAR CyCapEf
ENCODING 953
SWIDTH 1080 0
DWIDTH 9 0
BBX 9 18 0 -4
BITMAP
0000
0000
0800
0800
3e00
6b00
6b00
6b00
6b00
6b00
6b00
6b00
3e00
0800
0800
0000
0000
0000
ENDCHAR
STARTCHAR CyCapHa
ENCODING 954
SWIDTH 1080 0
DWIDTH 9 0
BBX 9 18 0 -4
BITMAP
0000
0000
0000
6300
6300
3200
3400
1c00
0800
1c00
1600
2600
6300
6300
0000
0000
0000
0000
ENDCHAR
STARTCHAR CyCapTse
ENCODING 955
SWIDTH 1080 0
DWIDTH 9 0
BBX 9 18 0 -4
BITMAP
0000
0000
0000
6300
6300
6300
6300
6300
6300
6300
6300
6300
6300
7f80
0180
0180
0180
0000
ENDCHAR
STARTCHAR CyCapChe
ENCODING 956
SWIDTH 1080 0
DWIDTH 9 0
BBX 9 18 0 -4
BITMAP
0000
0000
0000
6300
6300
6300
6300
6300
3f00
0300
0300
0300
0300
0300
0000
0000
0000
0000
ENDCHAR
STARTCHAR CyCapSha
ENCODING 957
SWIDTH 1080 0
DWIDTH 9 0
BBX 9 18 0 -4
BITMAP
0000
0000
0000
6b00
6b00
6b00
6b00
6b00
6b00
6b00
6b00
6b00
6b00
7f00
0000
0000
0000
0000
ENDCHAR
STARTCHAR CyCapShcha
ENCODING 958
SWIDTH 1080 0
DWIDTH 9 0
BBX 9 18 0 -4
BITMAP
0000
0000
0000
6b00
6b00
6b00
6b00
6b00
6b00
6b00
6b00
6b00
6b00
7f80
0180
0180
0180
0000
ENDCHAR
STARTCHAR CyCapHardsign
ENCODING 959
SWIDTH 1080 0
DWIDTH 9 0
BBX 9 18 0 -4
BITMAP
0000
0000
0000
7800
7800
5800
1800
1800
1e00
1b00
1b00
1b00
1b00
1e00
0000
0000
0000
0000
ENDCHAR
STARTCHAR CyCapYeru
ENCODING 960
SWIDTH 1080 0
DWIDTH 9 0
BBX 9 18 0 -4
BITMAP
0000
0000
0000
6300
6300
6300
6300
6300
7300
6b00
6f00
6f00
7b00
7300
0000
0000
0000
0000
ENDCHAR
STARTCHAR CyCapSoftsign
ENCODING 961
SWIDTH 1080 0
DWIDTH 9 0
BBX 9 18 0 -4
BITMAP
0000
0000
0000
6000
6000
6000
6000
6000
7e00
6300
6300
6300
6300
7e00
0000
0000
0000
0000
ENDCHAR
STARTCHAR CyCapE
ENCODING 962
SWIDTH 1080 0
DWIDTH 9 0
BBX 9 18 0 -4
BITMAP
0000
0000
0000
3c00
6600
0300
0300
1300
1f00
1300
0300
0300
6600
3c00
0000
0000
0000
0000
ENDCHAR
STARTCHAR CyCapYu
ENCODING 963
SWIDTH 1080 0
DWIDTH 9 0
BBX 9 18 0 -4
BITMAP
0000
0000
0000
6600
6f00
6b00
6b00
7b00
7b00
7b00
6b00
6b00
6f00
6600
0000
0000
0000
0000
ENDCHAR
STARTCHAR CyCapYa
ENCODING 964
SWIDTH 1080 0
DWIDTH 9 0
BBX 9 18 0 -4
BITMAP
0000
0000
0000
3f00
6300
6300
6300
6300
3f00
1b00
3300
3300
6300
6300
0000
0000
0000
0000
ENDCHAR
STARTCHAR CyCapDje
ENCODING 965
SWIDTH 1080 0
DWIDTH 9 0
BBX 9 18 0 -4
BITMAP
0000
0000
0000
ff00
db00
9900
1800
1e00
1b00
1b00
1b00
1b00
1b00
1b00
0300
0b00
0e00
0000
ENDCHAR
STARTCHAR CyCapTshe
ENCODING 966
SWIDTH 1080 0
DWIDTH 9 0
BBX 9 18 0 -4
BITMAP
0000
0000
0000
ff00
db00
9900
1800
1e00
1b00
1b00
1b00
1b00
1b00
1b00
0000
0000
0000
0000
ENDCHAR
STARTCHAR CyCapLje
ENCODING 967
SWIDTH 1080 0
DWIDTH 9 0
BBX 9 18 0 -4
BITMAP
0000
0000
0000
7800
5800
5800
5800
5800
5e00
5b00
5b00
5b00
db00
9e00
0000
0000
0000
0000
ENDCHAR
STARTCHAR CyCapNje
ENCODING 968
SWIDTH 1080 0
DWIDTH 9 0
BBX 9 18 0 -4
BITMAP
0000
0000
0000
6c00
6c00
6c00
6c00
6c00
7f00
6d80
6d80
6d80
6d80
6f00
0000
0000
0000
0000
ENDCHAR
STARTCHAR CyCapDzhe
ENCODING 969
SWIDTH 1080 0
DWIDTH 9 0
BBX 9 18 0 -4
BITMAP
0000
0000
0000
6300
6300
6300
6300
6300
6300
6300
6300
6300
6300
7f00
0c00
0c00
0c00
0000
ENDCHAR
STARTCHAR CyCapIeUkr
ENCODING 970
SWIDTH 1080 0
DWIDTH 9 0
BBX 9 18 0 -4
BITMAP
0000
0000
0000
1e00
3300
6000
6000
6400
7c00
6400
6000
6000
3300
1e00
0000
0000
0000
0000
ENDCHAR
STARTCHAR CyCapDze
ENCODING 971
SWIDTH 1080 0
DWIDTH 9 0
BBX 9 18 0 -4
BITMAP
0000
0000
0000
3f00
6300
6100
6000
3800
1e00
0600
0300
4300
6300
7e00
0000
0000
0000
0000
ENDCHAR
STARTCHAR CyCapIUkr
ENCODING 972
SWIDTH 1080 0
DWIDTH 9 0
BBX 9 18 0 -4
BITMAP
0000
0000
0000
3f00
0c00
0c00
0c00
0c00
0c00
0c00
0c00
0c00
0c00
3f00
0000
0000
0000
0000
ENDCHAR
STARTCHAR CyCapJe
ENCODING 973
SWIDTH 1080 0
DWIDTH 9 0
BBX 9 18 0 -4
BITMAP
0000
0000
0000
0f00
0600
0600
0600
0600
0600
0600
0600
6600
6600
3c00
0000
0000
0000
0000
ENDCHAR
STARTCHAR CyCapYat
ENCODING 974
SWIDTH 1080 0
DWIDTH 9 0
BBX 9 18 0 -4
BITMAP
0000
0000
0000
1800
1800
7e00
5a00
1800
1e00
1b00
1b00
1b00
1b00
1e00
0000
0000
0000
0000
ENDCHAR
STARTCHAR CyCapFita
ENCODING 975
SWIDTH 1080 0
DWIDTH 9 0
BBX 9 18 0 -4
BITMAP
0000
0000
0000
3e00
6300
6300
6300
6300
7f00
6300
6300
6300
6300
3e00
0000
0000
0000
0000
ENDCHAR
STARTCHAR CyCapIzhitsa
ENCODING 976
SWIDTH 1080 0
DWIDTH 9 0
BBX 9 18 0 -4
BITMAP
0000
0000
0000
6180
6300
3200
3200
3400
3400
1c00
1800
1800
1800
0800
0000
0000
0000
0000
ENDCHAR
STARTCHAR CyCapLittleyus
ENCODING 977
SWIDTH 1080 0
DWIDTH 9 0
BBX 9 18 0 -4
BITMAP
0000
0000
0000
0800
0800
1c00
1c00
1400
2600
3e00
3e00
5b00
5b00
5b00
0000
0000
0000
0000
ENDCHAR
STARTCHAR CyCapBigyus
ENCODING 978
SWIDTH 1080 0
DWIDTH 9 0
BBX 9 18 0 -4
BITMAP
0000
0000
0000
7f00
6300
3200
3600
1c00
1c00
3e00
6b00
6b00
6b00
6b00
0000
0000
0000
0000
ENDCHAR
STARTCHAR CyCapOmega
ENCODING 979
SWIDTH 1080 0
DWIDTH 9 0
BBX 9 18 0 -4
BITMAP
0000
0000
0000
6300
6b00
6b00
6b00
6b00
6b00
6b00
6b00
6b00
3600
3600
0000
0000
0000
0000
ENDCHAR
STARTCHAR CyCapOmegaBroad
ENCODING 980
SWIDTH 1080 0
DWIDTH 9 0
BBX 9 18 0 -4
BITMAP
0000
0000
0000
3300
6d80
6180
6180
6180
6d80
6d80
6d80
6d80
3f00
1200
0000
0000
0000
0000
ENDCHAR
STARTCHAR CyCapPsi
ENCODING 981
SWIDTH 1080 0
DWIDTH 9 0
BBX 9 18 0 -4
BITMAP
0000
0000
0000
6b00
6b00
6b00
6b00
6b00
6b00
3e00
0800
0800
0800
1c00
0000
0000
0000
0000
ENDCHAR
STARTCHAR CyCapKsi
ENCODING 982
SWIDTH 1080 0
DWIDTH 9 0
BBX 9 18 0 -4
BITMAP
3600
1c00
0800
3c00
6600
0300
0300
0600
1c00
0600
0300
0300
0600
3c00
6000
3e00
0300
0000
ENDCHAR
STARTCHAR CyCapKoppa
ENCODING 983
SWIDTH 1080 0
DWIDTH 9 0
BBX 9 18 0 -4
BITMAP
0000
0000
0000
1d00
3300
6100
6000
6000
6000
6000
6000
6000
3000
1e00
0600
0600
0600
0000
ENDCHAR
STARTCHAR CyCapYn
ENCODING 984
SWIDTH 1080 0
DWIDTH 9 0
BBX 9 18 0 -4
BITMAP
0000
0000
0000
0c00
0c00
0c00
1e00
1e00
1f00
3d00
2d80
6d80
0c00
0c00
0c00
0c00
0c00
0000
ENDCHAR
STARTCHAR CyCapSchwa
ENCODING 985
SWIDTH 1080 0
DWIDTH 9 0
BBX 9 18 0 -4
BITMAP
0000
0000
0000
3c00
3600
2300
0300
0300
7f00
6300
6300
6300
3600
1c00
0000
0000
0000
0000
ENDCHAR
STARTCHAR CyCapQa
ENCODING 986
SWIDTH 1080 0
DWIDTH 9 0
BBX 9 18 0 -4
BITMAP
0000
0000
0000
3e00
6300
6300
6300
6300
6300
6300
6300
7b00
6b00
3e00
0600
0380
0000
0000
ENDCHAR
STARTCHAR CyCapWe
ENCODING 987
SWIDTH 1080 0
DWIDTH 9 0
BBX 9 18 0 -4
BITMAP
0000
0000
0000
6080
6080
6080
6480
6480
6e80
7f80
3700
3300
3300
3300
0000
0000
0000
0000
ENDCHAR
STARTCHAR CyCapDzeAbkh
ENCODING 988
SWIDTH 1080 0
DWIDTH 9 0
BBX 9 18 0 -4
BITMAP
0000
0000
0000
7f00
6300
4600
0400
0c00
0e00
0300
0300
0300
6600
3c00
0000
0000
0000
0000
ENDCHAR
STARTCHAR CyCapUStrt
ENCODING 989
SWIDTH 1080 0
DWIDTH 9 0
BBX 9 18 0 -4
BITMAP
0000
0000
0000
6180
6100
3100
3200
1a00
1c00
0c00
0c00
0c00
0c00
0c00
0000
0000
0000
0000
ENDCHAR
STARTCHAR CyCapShha
ENCODING 990
SWIDTH 1080 0
DWIDTH 9 0
BBX 9 18 0 -4
BITMAP
0000
0000
0000
6000
6000
6000
6000
6000
7e00
6300
6300
6300
6300
6300
0000
0000
0000
0000
ENDCHAR
STARTCHAR CyCapDeKomi
ENCODING 991
SWIDTH 1080 0
DWIDTH 9 0
BBX 9 18 0 -4
BITMAP
0000
0000
0000
0300
0300
0300
0300
0300
3f00
6300
6300
6300
6300
3f00
0000
0000
0000
0000
ENDCHAR
STARTCHAR CyCapSemisoftsign
ENCODING 992
SWIDTH 1080 0
DWIDTH 9 0
BBX 9 18 0 -4
BITMAP
0000
0000
0000
3000
3000
7800
3000
3000
3e00
3300
3300
3300
3300
3e00
0000
0000
0000
0000
ENDCHAR
STARTCHAR CyCapPalochka
ENCODING 993
SWIDTH 1080 0
DWIDTH 9 0
BBX 9 18 0 -4
BITMAP
0000
0000
0000
1e00
0c00
0c00
0c00
0c00
0c00
0c00
0c00
0c00
0c00
1e00
0000
0000
0000
0000
ENDCHAR
STARTCHAR CySmlA
ENCODING 994
SWIDTH 1080 0
DWIDTH 9 0
BBX 9 18 0 -4
BITMAP
0000
0000
0000
0000
0000
0000
3e00
3300
0300
3f00
6300
6300
6700
3b00
0000
0000
0000
0000
ENDCHAR
STARTCHAR CySmlBe
ENCODING 995
SWIDTH 1080 0
DWIDTH 9 0
BBX 9 18 0 -4
BITMAP
0000
0000
0000
0600
1c00
3000
2000
6e00
7300
6300
6300
6300
6300
3e00
0000
0000
0000
0000
ENDCHAR
STARTCHAR CySmlBeSrb
ENCODING 996
SWIDTH 1080 0
DWIDTH 9 0
BBX 9 18 0 -4
BITMAP
0000
0000
0000
3e00
7e00
6000
3c00
3600
6300
6300
6300
6300
3600
1c00
0000
0000
0000
0000
ENDCHAR
STARTCHAR CySmlVe
ENCODING 997
SWIDTH 1080 0
DWIDTH 9 0
BBX 9 18 0 -4
BITMAP
0000
0000
0000
0000
0000
0000
7e00
6300
6200
7e00
6300
6300
6300
7e00
0000
0000
0000
0000
ENDCHAR
STARTCHAR CySmlVeBul
ENCODING 998
SWIDTH 1080 0
DWIDTH 9 0
BBX 9 18 0 -4
BITMAP
0000
0000
0000
3c00
6600
6600
6400
7c00
6600
6300
6300
6300
7300
6e00
0000
0000
0000
0000
ENDCHAR
STARTCHAR CySmlGhe
ENCODING 999
SWIDTH 1080 0
DWIDTH 9 0
BBX 9 18 0 -4
BITMAP
0000
0000
0000
0000
0000
0000
7f00
6300
6100
6000
6000
6000
6000
6000
0000
0000
0000
0000
ENDCHAR
STARTCHAR CySmlGheSrb
ENCODING 1000
SWIDTH 1080 0
DWIDTH 9 0
BBX 9 18 0 -4
BITMAP
0000
0000
0000
0000
0000
0000
7f00
6300
6100
6000
6000
6000
6000
6000
0000
0000
0000
0000
ENDCHAR
STARTCHAR CySmlGheBul
ENCODING 1001
SWIDTH 1080 0
DWIDTH 9 0
BBX 9 18 0 -4
BITMAP
0000
0000
0000
0000
0000
0000
3e00
6300
0700
1e00
3800
6000
6300
3e00
0000
0000
0000
0000
ENDCHAR
STARTCHAR CySmlDe
ENCODING 1002
SWIDTH 1080 0
DWIDTH 9 0
BBX 9 18 0 -4
BITMAP
0000
0000
0000
0000
0000
0000
3e00
2600
2600
2600
2600
2600
6600
7f00
6300
6300
6300
0000
ENDCHAR
STARTCHAR CySmlDeSrb
ENCODING 1003
SWIDTH 1080 0
DWIDTH 9 0
BBX 9 18 0 -4
BITMAP
0000
0000
0000
0000
0000
0000
3e00
2600
2600
2600
2600
2600
6600
7f00
6300
6300
6300
0000
ENDCHAR
STARTCHAR CySmlDeBul
ENCODING 1004
SWIDTH 1080 0
DWIDTH 9 0
BBX 9 18 0 -4
BITMAP
0000
0000
0000
0000
0000
0000
3b00
6700
6300
6300
6300
6300
6700
3b00
0300
6300
3e00
0000
ENDCHAR
STARTCHAR CySmlIe
ENCODING 1005
SWIDTH 1080 0
DWIDTH 9 0
BBX 9 18 0 -4
BITMAP
0000
0000
0000
0000
0000
0000
1e00
3300
6300
7f00
6000
6000
3300
1e00
0000
0000
0000
0000
ENDCHAR
STARTCHAR CySmlZhe
ENCODING 1006
SWIDTH 1080 0
DWIDTH 9 0
BBX 9 18 0 -4
BITMAP
0000
0000
0000
0000
0000
0000
6b00
6b00
2a00
1c00
6b00
6b00
6b00
6b00
0000
0000
0000
0000
ENDCHAR
STARTCHAR CySmlZheBul
ENCODING 1007
SWIDTH 1080 0
DWIDTH 9 0
BBX 9 18 0 -4
BITMAP
0000
0000
0000
0800
0800
0800
6b00
6b00
2a00
1c00
6b00
6b00
6b00
6b00
0000
0000
0000
0000
ENDCHAR
STARTCHAR CySmlZe
ENCODING 1008
SWIDTH 1080 0
DWIDTH 9 0
BBX 9 18 0 -4
BITMAP
0000
0000
0000
0000
0000
0000
3e00
6300
0300
0e00
0300
0300
6300
3e00
0000
0000
0000
0000
ENDCHAR
STARTCHAR CySmlZeBul
ENCODING 1009
SWIDTH 1080 0
DWIDTH 9 0
BBX 9 18 0 -4
BITMAP
0000
0000
0000
0000
0000
0000
3e00
6300
0300
0300
0600
1e00
0300
0300
0300
6300
3e00
0000
ENDCHAR
STARTCHAR CySmlI
ENCODING 1010
SWIDTH 1080 0
DWIDTH 9 0
BBX 9 18 0 -4
BITMAP
0000
0000
0000
0000
0000
0000
6300
6700
6700
6b00
6b00
7300
7300
6300
0000
0000
0000
0000
ENDCHAR
STARTCHAR CySmlIBul
ENCODING 1011
SWIDTH 1080 0
DWIDTH 9 0
BBX 9 18 0 -4
BITMAP
0000
0000
0000
0000
0000
0000
6300
6300
6300
6300
6300
6300
6700
3b00
0000
0000
0000
0000
ENDCHAR
STARTCHAR CySmlKa
ENCODING 1012
SWIDTH 1080 0
DWIDTH 9 0
BBX 9 18 0 -4
BITMAP
0000
0000
0000
0000
0000
0000
6300
6200
6400
6c00
7c00
6600
6300
6300
0000
0000
0000
0000
ENDCHAR
STARTCHAR CySmlKaBul
ENCODING 1013
SWIDTH 1080 0
DWIDTH 9 0
BBX 9 18 0 -4
BITMAP
0000
0000
0000
6000
6000
6000
6300
6200
6400
6c00
7c00
6600
6300
6300
0000
0000
0000
0000
ENDCHAR
STARTCHAR CySmlEl
ENCODING 1014
SWIDTH 1080 0
DWIDTH 9 0
BBX 9 18 0 -4
BITMAP
0000
0000
0000
0000
0000
0000
1f00
1300
1300
1300
1300
1300
7300
6300
0000
0000
0000
0000
ENDCHAR
STARTCHAR CySmlElBul
ENCODING 1015
SWIDTH 1080 0
DWIDTH 9 0
BBX 9 18 0 -4
BITMAP
0000
0000
0000
0000
0000
0000
0400
0c00
0e00
1600
1300
1300
2180
6180
0000
0000
0000
0000
ENDCHAR
STARTCHAR CySmlEm
ENCODING 1016
SWIDTH 1080 0
DWIDTH 9 0
BBX 9 18 0 -4
BITMAP
0000
0000
0000
0000
0000
0000
6300
6300
7700
7700
5b00
5b00
4300
4300
0000
0000
0000
0000
ENDCHAR
STARTCHAR CySmlEn
ENCODING 1017
SWIDTH 1080 0
DWIDTH 9 0
BBX 9 18 0 -4
BITMAP
0000
0000
0000
0000
0000
0000
6300
6300
6300
7f00
6300
6300
6300
6300
0000
0000
0000
0000
ENDCHAR
STARTCHAR CySmlO
ENCODING 1018
SWIDTH 1080 0
DWIDTH 9 0
BBX 9 18 0 -4
BITMAP
0000
0000
0000
0000
0000
0000
3e00
6300
6300
6300
6300
6300
6300
3e00
0000
0000
0000
0000
ENDCHAR
STARTCHAR CySmlPe
ENCODING 1019
SWIDTH 1080 0
DWIDTH 9 0
BBX 9 18 0 -4
BITMAP
0000
0000
0000
0000
0000
0000
7f00
6300
6300
6300
6300
6300
6300
6300
0000
0000
0000
0000
ENDCHAR
STARTCHAR CySmlPeSrb
ENCODING 1020
SWIDTH 1080 0
DWIDTH 9 0
BBX 9 18 0 -4
BITMAP
0000
0000
0000
0000
0000
0000
7f00
6300
6300
6300
6300
6300
6300
6300
0000
0000
0000
0000
ENDCHAR
STARTCHAR CySmlPeBul
ENCODING 1021
SWIDTH 1080 0
DWIDTH 9 0
BBX 9 18 0 -4
BITMAP
0000
0000
0000
0000
0000
0000
6e00
7300
6300
6300
6300
6300
6300
6300
0000
0000
0000
0000
ENDCHAR
STARTCHAR CySmlEr
ENCODING 1022
SWIDTH 1080 0
DWIDTH 9 0
BBX 9 18 0 -4
BITMAP
0000
0000
0000
0000
0000
0000
6e00
7300
6300
6300
6300
6300
7300
6e00
6000
6000
6000
0000
ENDCHAR
STARTCHAR CySmlEs
ENCODING 1023
SWIDTH 1080 0
DWIDTH 9 0
BBX 9 18 0 -4
BITMAP
0000
0000
0000
0000
0000
0000
1e00
3300
6000
6000
6000
6000
3300
1e00
0000
0000
0000
0000
ENDCHAR
STARTCHAR CySmlTe
ENCODING 1024
SWIDTH 1080 0
DWIDTH 9 0
BBX 9 18 0 -4
BITMAP
0000
0000
0000
0000
0000
0000
7f80
6d80
4c80
0c00
0c00
0c00
0c00
0c00
0000
0000
0000
0000
ENDCHAR
STARTCHAR CySmlTeSrb
ENCODING 1025
SWIDTH 1080 0
DWIDTH 9 0
BBX 9 18 0 -4
BITMAP
0000
0000
0000
0000
0000
0000
7f80
6d80
4c80
0c00
0c00
0c00
0c00
0c00
0000
0000
0000
0000
ENDCHAR
STARTCHAR CySmlTeBul
ENCODING 1026
SWIDTH 1080 0
DWIDTH 9 0
BBX 9 18 0 -4
BITMAP
0000
0000
0000
0000
0000
0000
5600
7f00
6b00
6b00
6b00
6b00
6b00
6b00
0000
0000
0000
0000
ENDCHAR
STARTCHAR CySmlU
ENCODING 1027
SWIDTH 1080 0
DWIDTH 9 0
BBX 9 18 0 -4
BITMAP
0000
0000
0000
0000
0000
0000
6300
6300
3200
3200
1a00
1c00
0c00
0c00
0800
6800
7000
0000
ENDCHAR
STARTCHAR CySmlEf
ENCODING 1028
SWIDTH 1080 0
DWIDTH 9 0
BBX 9 18 0 -4
BITMAP
0000
0000
0000
1400
0800
0800
3e00
6b00
6b00
6b00
6b00
6b00
6b00
3e00
0800
0800
1400
0000
ENDCHAR
STARTCHAR CySmlHa
ENCODING 1029
SWIDTH 1080 0
DWIDTH 9 0
BBX 9 18 0 -4
BITMAP
0000
0000
0000
0000
0000
0000
6300
7300
3400
1800
0c00
1600
6700
6300
0000
0000
0000
0000
ENDCHAR
STARTCHAR CySmlTse
ENCODING 1030
SWIDTH 1080 0
DWIDTH 9 0
BBX 9 18 0 -4
BITMAP
0000
0000
0000
0000
0000
0000
6300
6300
6300
6300
6300
6300
6300
7f80
0180
0180
0180
0000
ENDCHAR
STARTCHAR CySmlTseBul
ENCODING 1031
SWIDTH 1080 0
DWIDTH 9 0
BBX 9 18 0 -4
BITMAP
0000
0000
0000
0000
0000
0000
6300
6300
6300
6300
6300
6300
6700
3b80
0180
0180
0180
0000
ENDCHAR
STARTCHAR CySmlChe
ENCODING 1032
SWIDTH 1080 0
DWIDTH 9 0
BBX 9 18 0 -4
BITMAP
0000
0000
0000
0000
0000
0000
6300
6300
6300
3f00
0300
0300
0300
0300
0000
0000
0000
0000
ENDCHAR
STARTCHAR CySmlSha
ENCODING 1033
SWIDTH 1080 0
DWIDTH 9 0
BBX 9 18 0 -4
BITMAP
0000
0000
0000
0000
0000
0000
6b00
6b00
6b00
6b00
6b00
6b00
6b00
7f00
0000
0000
0000
0000
ENDCHAR
STARTCHAR CySmlShaBul
ENCODING 1034
SWIDTH 1080 0
DWIDTH 9 0
BBX 9 18 0 -4
BITMAP
0000
0000
0000
0000
0000
0000
6b00
6b00
6b00
6b00
6b00
6b00
7f00
3500
0000
0000
0000
0000
ENDCHAR
STARTCHAR CySmlShcha
ENCODING 1035
SWIDTH 1080 0
DWIDTH 9 0
BBX 9 18 0 -4
BITMAP
0000
0000
0000
0000
0000
0000
6b00
6b00
6b00
6b00
6b00
6b00
6b00
7f80
0180
0180
0180
0000
ENDCHAR
STARTCHAR CySmlShchaBul
ENCODING 1036
SWIDTH 1080 0
DWIDTH 9 0
BBX 9 18 0 -4
BITMAP
0000
0000
0000
0000
0000
0000
6b00
6b00
6b00
6b00
6b00
6b00
7f00
3580
0180
0180
0180
0000
ENDCHAR
STARTCHAR CySmlHardsign
ENCODING 1037
SWIDTH 1080 0
DWIDTH 9 0
BBX 9 18 0 -4
BITMAP
0000
0000
0000
0000
0000
0000
7c00
6c00
4c00
0f00
0d80
0d80
0d80
0f00
0000
0000
0000
0000
ENDCHAR
STARTCHAR CySmlYeru
ENCODING 1038
SWIDTH 1080 0
DWIDTH 9 0
BBX 9 18 0 -4
BITMAP
0000
0000
0000
0000
0000
0000
6300
6300
6300
7300
6b00
6f00
6b00
7300
0000
0000
0000
0000
ENDCHAR
STARTCHAR CySmlSoftsign
ENCODING 1039
SWIDTH 1080 0
DWIDTH 9 0
BBX 9 18 0 -4
BITMAP
0000
0000
0000
0000
0000
0000
6000
6000
6000
7e00
6300
6300
6300
7e00
0000
0000
0000
0000
ENDCHAR
STARTCHAR CySmlE
ENCODING 1040
SWIDTH 1080 0
DWIDTH 9 0
BBX 9 18 0 -4
BITMAP
0000
0000
0000
0000
0000
0000
3c00
6600
0300
1f00
0300
0300
6600
3c00
0000
0000
0000
0000
ENDCHAR
STARTCHAR CySmlYu
ENCODING 1041
SWIDTH 1080 0
DWIDTH 9 0
BBX 9 18 0 -4
BITMAP
0000
0000
0000
0000
0000
0000
6600
6b00
6b00
7b00
6b00
6b00
6b00
6600
0000
0000
0000
0000
ENDCHAR
STARTCHAR CySmlYuBul
ENCODING 1042
SWIDTH 1080 0
DWIDTH 9 0
BBX 9 18 0 -4
BITMAP
0000
0000
0000
6000
6000
6000
6600
6b00
6b00
7b00
6b00
6b00
6b00
6600
0000
0000
0000
0000
ENDCHAR
STARTCHAR CySmlYa
ENCODING 1043
SWIDTH 1080 0
DWIDTH 9 0
BBX 9 18 0 -4
BITMAP
0000
0000
0000
0000
0000
0000
3f00
6300
6300
3f00
1b00
3300
3300
6300
0000
0000
0000
0000
ENDCHAR
STARTCHAR CySmlDje
ENCODING 1044
SWIDTH 1080 0
DWIDTH 9 0
BBX 9 18 0 -4
BITMAP
0000
0000
0000
6000
fc00
6000
6c00
7600
6300
6300
6300
6300
6300
6600
0600
0c00
1800
0000
ENDCHAR
STARTCHAR CySmlTshe
ENCODING 1045
SWIDTH 1080 0
DWIDTH 9 0
BBX 9 18 0 -4
BITMAP
0000
0000
0000
6000
fc00
6000
6e00
7300
6300
6300
6300
6300
6300
6300
0000
0000
0000
0000
ENDCHAR
STARTCHAR CySmlLje
ENCODING 1046
SWIDTH 1080 0
DWIDTH 9 0
BBX 9 18 0 -4
BITMAP
0000
0000
0000
0000
0000
0000
7800
5800
5800
5e00
5b00
5b00
db00
9e00
0000
0000
0000
0000
ENDCHAR
STARTCHAR CySmlNje
ENCODING 1047
SWIDTH 1080 0
DWIDTH 9 0
BBX 9 18 0 -4
BITMAP
0000
0000
0000
0000
0000
0000
6c00
6c00
6c00
7e00
6d00
6d00
6f00
6e00
0000
0000
0000
0000
ENDCHAR
STARTCHAR CySmlDzhe
ENCODING 1048
SWIDTH 1080 0
DWIDTH 9 0
BBX 9 18 0 -4
BITMAP
0000
0000
0000
0000
0000
0000
6300
6300
6300
6300
6300
6300
6300
7f00
0c00
0c00
0c00
0000
ENDCHAR
STARTCHAR CySmlIeUkr
ENCODING 1049
SWIDTH 1080 0
DWIDTH 9 0
BBX 9 18 0 -4
BITMAP
0000
0000
0000
0000
0000
0000
1e00
3300
6000
7c00
6000
6000
3300
1e00
0000
0000
0000
0000
ENDCHAR
STARTCHAR CySmlDze
ENCODING 1050
SWIDTH 1080 0
DWIDTH 9 0
BBX 9 18 0 -4
BITMAP
0000
0000
0000
0000
0000
0000
3e00
6300
7000
3c00
0e00
0300
6300
3e00
0000
0000
0000
0000
ENDCHAR
STARTCHAR CySmlIUkr
ENCODING 1051
SWIDTH 1080 0
DWIDTH 9 0
BBX 9 18 0 -4
BITMAP
0000
0000
0c00
0c00
0000
0000
1c00
0c00
0c00
0c00
0c00
0c00
0c00
3f00
0000
0000
0000
0000
ENDCHAR
STARTCHAR CySmlJe
ENCODING 1052
SWIDTH 1080 0
DWIDTH 9 0
BBX 9 18 0 -4
BITMAP
0000
0000
0600
0600
0000
0000
1e00
0600
0600
0600
0600
0600
0600
0600
6600
6600
3c00
0000
ENDCHAR
STARTCHAR CySmlYat
ENCODING 1053
SWIDTH 1080 0
DWIDTH 9 0
BBX 9 18 0 -4
BITMAP
0000
0000
0000
3400
1800
1800
7e00
5a00
1800
1f00
1980
1980
1980
1f00
0000
0000
0000
0000
ENDCHAR
STARTCHAR CySmlFita
ENCODING 1054
SWIDTH 1080 0
DWIDTH 9 0
BBX 9 18 0 -4
BITMAP
0000
0000
0000
0000
0000
0000
3e00
6300
6300
7f00
6300
6300
6300
3e00
0000
0000
0000
0000
ENDCHAR
STARTCHAR CySmlIzhitsa
ENCODING 1055
SWIDTH 1080 0
DWIDTH 9 0
BBX 9 18 0 -4
BITMAP
0000
0000
0000
0000
0000
0000
6180
6300
3200
3200
3400
1c00
1800
0800
0000
0000
0000
0000
ENDCHAR
STARTCHAR CySmlLittleyus
ENCODING 1056
SWIDTH 1080 0
DWIDTH 9 0
BBX 9 18 0 -4
BITMAP
0000
0000
0000
0000
0000
0000
0400
0c00
0e00
1600
1300
3f00
2d80
6d80
0000
0000
0000
0000
ENDCHAR
STARTCHAR CySmlBigyus
ENCODING 1057
SWIDTH 1080 0
DWIDTH 9 0
BBX 9 18 0 -4
BITMAP
0000
0000
0000
0000
0000
0000
7f00
6300
3200
1c00
3e00
6b00
6b00
6b00
0000
0000
0000
0000
ENDCHAR
STARTCHAR CySmlOmega
ENCODING 1058
SWIDTH 1080 0
DWIDTH 9 0
BBX 9 18 0 -4
BITMAP
0000
0000
0000
0000
0000
0000
6300
6b00
6b00
6b00
6b00
6b00
3600
3600
0000
0000
0000
0000
ENDCHAR
STARTCHAR CySmlOmegaBroad
ENCODING 1059
SWIDTH 1080 0
DWIDTH 9 0
BBX 9 18 0 -4
BITMAP
0000
0000
0000
0000
0000
0000
3300
6d80
6180
6180
6d80
6d80
6d80
3700
0000
0000
0000
0000
ENDCHAR
STARTCHAR CySmlPsi
ENCODING 1060
SWIDTH 1080 0
DWIDTH 9 0
BBX 9 18 0 -4
BITMAP
0000
0000
0000
0800
0800
0800
4900
6b00
6b00
6b00
6b00
6b00
6b00
3e00
0800
0800
0800
0000
ENDCHAR
STARTCHAR CySmlKsi
ENCODING 1061
SWIDTH 1080 0
DWIDTH 9 0
BBX 9 18 0 -4
BITMAP
0000
0000
0000
3600
1c00
0800
3e00
6300
0300
0e00
0300
0300
0300
3e00
6000
3e00
0300
0000
ENDCHAR
STARTCHAR CySmlKoppa
ENCODING 1062
SWIDTH 1080 0
DWIDTH 9 0
BBX 9 18 0 -4
BITMAP
0000
0000
0000
0000
0000
0000
1e00
3300
6000
6000
6000
6000
3000
1e00
0600
0600
0600
0000
ENDCHAR
STARTCHAR CySmlYn
ENCODING 1063
SWIDTH 1080 0
DWIDTH 9 0
BBX 9 18 0 -4
BITMAP
0000
0000
0000
0000
0000
0000
0c00
0c00
1e00
1e00
1d00
3d00
2d80
6c80
0c00
0c00
0c00
0000
ENDCHAR
STARTCHAR CySmlSchwa
ENCODING 1064
SWIDTH 1080 0
DWIDTH 9 0
BBX 9 18 0 -4
BITMAP
0000
0000
0000
0000
0000
0000
3c00
6600
0300
0300
7f00
6300
6600
3c00
0000
0000
0000
0000
ENDCHAR
STARTCHAR CySmlQa
ENCODING 1065
SWIDTH 1080 0
DWIDTH 9 0
BBX 9 18 0 -4
BITMAP
0000
0000
0000
0000
0000
0000
3b00
6700
6300
6300
6300
6300
6700
3b00
0300
0300
0300
0000
ENDCHAR
STARTCHAR CySmlWe
ENCODING 1066
SWIDTH 1080 0
DWIDTH 9 0
BBX 9 18 0 -4
BITMAP
0000
0000
0000
0000
0000
0000
6080
6080
6480
6480
6e80
3f00
3300
3300
0000
0000
0000
0000
ENDCHAR
STARTCHAR CySmlDzeAbkh
ENCODING 1067
SWIDTH 1080 0
DWIDTH 9 0
BBX 9 18 0 -4
BITMAP
0000
0000
0000
0000
0000
0000
7f00
6300
4600
0600
0c00
0e00
0300
0300
0300
6200
3c00
0000
ENDCHAR
STARTCHAR CySmlUStrt
ENCODING 1068
SWIDTH 1080 0
DWIDTH 9 0
BBX 9 18 0 -4
BITMAP
0000
0000
0000
0000
0000
0000
6180
6100
3100
3200
1a00
1c00
0c00
0c00
0c00
0c00
0c00
0000
ENDCHAR
STARTCHAR CySmlShha
ENCODING 1069
SWIDTH 1080 0
DWIDTH 9 0
BBX 9 18 0 -4
BITMAP
0000
0000
0000
6000
6000
6000
6e00
7300
6300
6300
6300
6300
6300
6300
0000
0000
0000
0000
ENDCHAR
STARTCHAR CySmlDeKomi
ENCODING 1070
SWIDTH 1080 0
DWIDTH 9 0
BBX 9 18 0 -4
BITMAP
0000
0000
0000
0300
0300
0300
3b00
6700
6300
6300
6300
6300
6700
3b00
0000
0000
0000
0000
ENDCHAR
STARTCHAR CySmlSemisoftsign
ENCODING 1071
SWIDTH 1080 0
DWIDTH 9 0
BBX 9 18 0 -4
BITMAP
0000
0000
0000
0000
0000
0000
3000
7c00
3000
3e00
3300
3300
3300
3e00
0000
0000
0000
0000
ENDCHAR
STARTCHAR CySmlPalochka
ENCODING 1072
SWIDTH 1080 0
DWIDTH 9 0
BBX 9 18 0 -4
BITMAP
0000
0000
0000
1e00
0c00
0c00
0c00
0c00
0c00
0c00
0c00
0c00
0c00
1e00
0000
0000
0000
0000
ENDCHAR
STARTCHAR CyCapAIe
ENCODING 1073
SWIDTH 1080 0
DWIDTH 9 0
BBX 9 18 0 -4
BITMAP
0000
0000
0000
0f80
0c80
1c80
1c00
2d00
2f00
2d00
7c00
4c80
4c80
cf80
0000
0000
0000
0000
ENDCHAR
STARTCHAR CyCapEnGhe
ENCODING 1074
SWIDTH 1080 0
DWIDTH 9 0
BBX 9 18 0 -4
BITMAP
0000
0000
0000
6780
6680
6600
6600
6600
7e00
6600
6600
6600
6600
6600
0000
0000
0000
0000
ENDCHAR
STARTCHAR CyCapTeTse
ENCODING 1075
SWIDTH 1080 0
DWIDTH 9 0
BBX 9 18 0 -4
BITMAP
0000
0000
0000
7b00
7b00
3300
3300
3300
3300
3300
3300
3300
3300
3f80
0180
0180
0180
0000
ENDCHAR
STARTCHAR CySmlAIe
ENCODING 1076
SWIDTH 1080 0
DWIDTH 9 0
BBX 9 18 0 -4
BITMAP
0000
0000
0000
0000
0000
0000
3700
6d80
0d80
3f80
6c00
6c00
6d80
3700
0000
0000
0000
0000
ENDCHAR
STARTCHAR CySmlEnGhe
ENCODING 1077
SWIDTH 1080 0
DWIDTH 9 0
BBX 9 18 0 -4
BITMAP
0000
0000
0000
0000
0000
0000
6780
6680
6600
7e00
6600
6600
6600
6600
0000
0000
0000
0000
ENDCHAR
STARTCHAR CySmlTeTse
ENCODING 1078
SWIDTH 1080 0
DWIDTH 9 0
BBX 9 18 0 -4
BITMAP
0000
0000
0000
0000
0000
0000
7b00
7b00
3300
3300
3300
3300
3300
3f80
0180
0180
0180
0000
ENDCHAR
STARTCHAR CyCapIA
ENCODING 1079
SWIDTH 1080 0
DWIDTH 9 0
BBX 9 18 0 -4
BITMAP
0000
0000
0000
6200
6200
6700
6700
7f80
7980
6980
6f80
6980
6980
6980
0000
0000
0000
0000
ENDCHAR
STARTCHAR CyCapIE
ENCODING 1080
SWIDTH 1080 0
DWIDTH 9 0
BBX 9 18 0 -4
BITMAP
0000
0000
0000
6380
6680
6c00
6c00
6d00
7f00
6d00
6c00
6c00
6680
6380
0000
0000
0000
0000
ENDCHAR
STARTCHAR CyCapILittleyus
ENCODING 1081
SWIDTH 1080 0
DWIDTH 9 0
BBX 9 18 0 -4
BITMAP
0000
0000
0000
6200
6200
6700
6700
6500
7d00
6f80
6f80
6a80
6a80
6a80
0000
0000
0000
0000
ENDCHAR
STARTCHAR CyCapIBigyus
ENCODING 1082
SWIDTH 1080 0
DWIDTH 9 0
BBX 9 18 0 -4
BITMAP
0000
0000
0000
6f80
6f80
6c80
6500
6700
7e00
6700
6f80
6a80
6a80
6a80
0000
0000
0000
0000
ENDCHAR
STARTCHAR CyCapOu
ENCODING 1083
SWIDTH 1080 0
DWIDTH 9 0
BBX 9 18 0 -4
BITMAP
0000
0000
0000
3000
7800
6800
6e80
6e80
6e80
6b80
6b80
6b80
7900
3100
0300
0200
0200
0000
ENDCHAR
STARTCHAR CyCapOuGamma
ENCODING 1084
SWIDTH 1080 0
DWIDTH 9 0
BBX 9 18 0 -4
BITMAP
0000
0000
0000
6100
7300
3a00
1e00
0c00
0400
0c00
3e00
6b00
6300
3e00
0000
0000
0000
0000
ENDCHAR
STARTCHAR CySmlIA
ENCODING 1085
SWIDTH 1080 0
DWIDTH 9 0
BBX 9 18 0 -4
BITMAP
0000
0000
0000
0000
0000
0000
6f00
6d80
6180
6f80
7980
7980
6f80
6d80
0000
0000
0000
0000
ENDCHAR
STARTCHAR CySmlIE
ENCODING 1086
SWIDTH 1080 0
DWIDTH 9 0
BBX 9 18 0 -4
BITMAP
0000
0000
0000
0000
0000
0000
6380
6680
6c00
7f00
6c00
6c00
6680
6380
0000
0000
0000
0000
ENDCHAR
STARTCHAR CySmlILittleyus
ENCODING 1087
SWIDTH 1080 0
DWIDTH 9 0
BBX 9 18 0 -4
BITMAP
0000
0000
0000
0000
0000
0000
6200
6200
6700
7d00
6700
6f80
6a80
6a80
0000
0000
0000
0000
ENDCHAR
STARTCHAR CySmlIBigyus
ENCODING 1088
SWIDTH 1080 0
DWIDTH 9 0
BBX 9 18 0 -4
BITMAP
0000
0000
0000
0000
0000
0000
6f80
6d80
6700
6200
7f00
6f80
6a80
6a80
0000
0000
0000
0000
ENDCHAR
STARTCHAR CySmlOu
ENCODING 1089
SWIDTH 1080 0
DWIDTH 9 0
BBX 9 18 0 -4
BITMAP
0000
0000
0000
0000
0000
0000
3680
6e80
6e80
6b80
6b80
6b80
7900
3100
0300
0200
0200
0000
ENDCHAR
STARTCHAR CySmlOuGamma
ENCODING 1090
SWIDTH 1080 0
DWIDTH 9 0
BBX 9 18 0 -4
BITMAP
0000
0000
0e00
0f00
6300
6300
3600
1c00
1c00
3600
6300
4300
6300
3e00
0000
0000
0000
0000
ENDCHAR
STARTCHAR CyCapOmegaRound
ENCODING 1091
SWIDTH 1080 0
DWIDTH 9 0
BBX 9 18 0 -4
BITMAP
0000
0000
0800
3e00
6b00
6300
6300
6300
6300
6300
6300
6300
6b00
3e00
0800
0000
0000
0000
ENDCHAR
STARTCHAR CySmlOmegaRound
ENCODING 1092
SWIDTH 1080 0
DWIDTH 9 0
BBX 9 18 0 -4
BITMAP
0000
0000
0000
0000
0000
0800
3e00
6b00
6300
6300
6300
6300
6b00
3e00
0800
0000
0000
0000
ENDCHAR
STARTCHAR CyCapZeRev
ENCODING 1093
SWIDTH 1080 0
DWIDTH 9 0
BBX 9 18 0 -4
BITMAP
0000
0000
0000
1e00
3300
6000
6000
3000
1c00
3000
6000
6000
3300
1e00
0000
0000
0000
0000
ENDCHAR
STARTCHAR CySmlZeRev
ENCODING 1094
SWIDTH 1080 0
DWIDTH 9 0
BBX 9 18 0 -4
BITMAP
0000
0000
0000
0000
0000
0000
3e00
6300
6000
3800
6000
6000
6300
3e00
0000
0000
0000
0000
ENDCHAR
STARTCHAR CyCapKaLhook
ENCODING 1095
SWIDTH 1080 0
DWIDTH 9 0
BBX 9 18 0 -4
BITMAP
0000
0000
0000
6300
6200
6600
6400
6800
7c00
7200
6300
6300
6300
6300
0300
1a00
1c00
0000
ENDCHAR
STARTCHAR CyCapElLhook
ENCODING 1096
SWIDTH 1080 0
DWIDTH 9 0
BBX 9 18 0 -4
BITMAP
0000
0000
0000
1f00
1300
1300
1300
1300
1300
1300
1300
1300
7300
6300
0300
1a00
1c00
0000
ENDCHAR
STARTCHAR CyCapEnLhook
ENCODING 1097
SWIDTH 1080 0
DWIDTH 9 0
BBX 9 18 0 -4
BITMAP
0000
0000
0000
6300
6300
6300
6300
6300
7f00
6300
6300
6300
6300
6300
0300
1a00
1c00
0000
ENDCHAR
STARTCHAR CyCapHaLhook
ENCODING 1098
SWIDTH 1080 0
DWIDTH 9 0
BBX 9 18 0 -4
BITMAP
0000
0000
0000
6300
6300
3200
3400
1c00
0800
1c00
1600
2600
6300
6300
0300
1a00
1c00
0000
ENDCHAR
STARTCHAR CySmlKaLhook
ENCODING 1099
SWIDTH 1080 0
DWIDTH 9 0
BBX 9 18 0 -4
BITMAP
0000
0000
0000
0000
0000
0000
6300
6200
6400
6c00
7c00
6600
6300
6300
0300
1a00
1c00
0000
ENDCHAR
STARTCHAR CySmlElLhook
ENCODING 1100
SWIDTH 1080 0
DWIDTH 9 0
BBX 9 18 0 -4
BITMAP
0000
0000
0000
0000
0000
0000
1f00
1300
1300
1300
1300
1300
7300
6300
0300
1a00
1c00
0000
ENDCHAR
STARTCHAR CySmlEnLhook
ENCODING 1101
SWIDTH 1080 0
DWIDTH 9 0
BBX 9 18 0 -4
BITMAP
0000
0000
0000
0000
0000
0000
6300
6300
6300
7f00
6300
6300
6300
6300
0300
1a00
1c00
0000
ENDCHAR
STARTCHAR CySmlHaLhook
ENCODING 1102
SWIDTH 1080 0
DWIDTH 9 0
BBX 9 18 0 -4
BITMAP
0000
0000
0000
0000
0000
0000
6300
7300
3400
1800
0c00
1600
6700
6300
0300
1a00
1c00
0000
ENDCHAR
STARTCHAR CyCapGheStrokeLhook
ENCODING 1103
SWIDTH 1080 0
DWIDTH 9 0
BBX 9 18 0 -4
BITMAP
0000
0000
0000
3f80
3180
3080
3000
3000
7c00
3000
3000
3000
3000
3c00
0200
1600
1c00
0000
ENDCHAR
ENDFONT
